{"glyphs":{"0":{"ha":653,"x_min":26,"x_max":613,"o":"m 333 925 q 219 903 274 925 q 128 839 164 881 q 49 608 69 751 q 54 324 28 465 q 150 106 81 182 q 278 38 199 57 q 426 38 358 18 q 535 134 493 72 q 595 267 578 196 q 613 429 613 339 q 600 603 613 519 q 565 778 588 686 q 483 888 549 849 q 333 925 417 926 m 328 704 q 405 684 371 704 q 449 628 439 664 q 376 243 522 319 q 299 243 340 233 q 233 279 257 253 q 183 392 197 318 q 180 540 169 465 q 221 658 190 614 q 328 704 260 704 z "},"1":{"ha":389,"x_min":40,"x_max":350,"o":"m 185 21 q 167 467 182 182 q 74 414 83 407 q 76 479 74 438 q 77 540 78 521 q 67 586 76 558 q 40 640 58 614 q 333 913 192 707 q 342 460 338 781 q 349 18 347 140 q 324 22 343 19 q 295 26 304 25 q 269 29 286 28 q 240 30 251 31 q 213 27 228 29 q 185 21 199 25 z "},"2":{"ha":586,"x_min":40,"x_max":547,"o":"m 544 18 q 317 40 456 40 q 101 19 178 40 q 104 164 99 104 q 165 247 122 199 q 249 334 208 294 q 324 424 289 374 q 368 515 360 474 q 319 640 383 631 q 211 588 268 647 q 160 506 175 550 q 115 503 122 415 q 91 592 107 557 q 40 671 75 626 q 124 815 75 758 q 222 893 172 872 q 320 908 271 914 q 408 871 369 901 q 472 785 447 840 q 497 663 496 731 q 492 568 499 614 q 478 492 485 522 q 451 420 471 463 q 421 360 431 378 q 383 297 411 343 q 347 236 356 250 q 425 237 381 235 q 499 238 469 239 q 547 229 528 238 q 544 18 531 125 z "},"3":{"ha":517,"x_min":36,"x_max":508,"o":"m 114 138 q 103 168 111 146 q 92 206 96 190 q 88 236 88 221 q 122 206 97 232 q 168 176 147 181 q 282 204 233 140 q 310 315 321 257 q 256 364 300 364 q 203 367 221 358 q 214 383 193 372 q 259 408 240 386 q 279 457 278 429 q 242 550 271 518 q 180 581 214 582 q 113 560 146 581 q 65 504 81 539 q 40 740 44 574 q 54 913 36 907 q 197 908 128 921 q 319 865 265 894 q 412 788 374 835 q 467 685 450 740 q 474 564 483 631 q 425 429 464 497 q 415 415 419 422 q 408 406 410 408 q 404 400 406 403 q 403 396 403 397 q 403 393 403 394 q 408 390 404 392 q 414 385 411 389 q 422 376 417 382 q 432 363 426 371 q 456 144 507 261 q 336 25 417 58 q 163 60 236 -18 q 114 138 135 90 z "},"4":{"ha":667,"x_min":40,"x_max":628,"o":"m 588 14 q 498 15 575 14 q 401 15 421 17 q 414 169 400 67 q 426 321 428 271 q 306 331 376 331 q 156 327 235 331 q 40 324 76 324 q 113 469 72 389 q 175 592 154 550 q 229 717 196 635 q 303 913 263 800 q 359 876 322 906 q 435 823 396 847 q 508 796 474 799 q 453 685 489 757 q 390 558 418 613 q 333 457 361 503 q 436 443 397 443 q 433 456 435 447 q 431 473 432 465 q 428 488 429 481 q 428 500 428 496 q 432 506 429 504 q 531 510 456 510 q 626 504 606 510 q 588 14 585 264 z "},"5":{"ha":625,"x_min":29,"x_max":586,"o":"m 490 489 q 353 567 415 556 q 256 538 290 578 q 222 418 221 497 q 243 373 222 386 q 297 361 264 360 q 365 368 331 363 q 434 379 399 374 q 486 382 469 385 q 501 299 504 340 q 485 214 499 257 q 443 135 471 171 q 382 72 415 100 q 308 29 349 43 q 227 15 267 15 q 147 36 188 14 q 74 101 107 58 q 97 146 88 121 q 113 186 107 171 q 125 206 118 201 q 168 187 135 211 q 221 165 201 163 q 322 206 310 175 q 292 238 331 225 q 246 246 272 243 q 46 315 110 244 q 55 626 29 429 q 132 890 81 824 q 240 906 147 907 q 423 901 332 906 q 585 917 514 897 q 539 735 582 901 q 490 489 496 568 z "},"6":{"ha":665,"x_min":38,"x_max":632,"o":"m 283 919 q 266 907 275 919 q 236 856 257 894 q 181 751 201 792 q 130 642 161 710 q 83 518 99 574 q 53 395 67 463 q 40 260 39 328 q 56 126 40 193 q 118 45 72 74 q 220 13 164 17 q 340 26 276 10 q 460 76 404 43 q 558 160 515 110 q 617 269 601 211 q 622 386 632 331 q 583 480 613 442 q 509 545 553 518 q 412 576 465 572 q 300 567 358 579 q 288 565 288 561 q 294 585 288 568 q 451 788 321 653 q 456 790 453 789 q 486 822 476 813 q 508 847 496 832 q 526 867 521 863 q 534 881 531 872 q 537 892 538 890 q 530 899 536 894 q 517 905 524 904 q 494 908 511 906 q 465 910 478 910 q 426 911 453 910 q 422 911 424 911 q 292 918 310 914 q 283 919 286 919 m 297 415 q 338 404 315 415 q 393 332 383 375 q 383 253 403 289 q 324 194 363 218 q 240 172 285 169 q 180 213 199 176 q 167 290 161 249 q 197 369 172 332 q 257 411 222 406 q 297 415 283 415 z "},"7":{"ha":729,"x_min":40,"x_max":696,"o":"m 689 892 q 584 703 628 807 q 517 483 540 599 q 483 260 493 368 q 469 26 472 153 q 244 19 424 33 q 272 126 257 68 q 300 228 288 183 q 325 318 313 272 q 346 398 338 364 q 359 460 354 432 q 363 504 364 488 q 357 525 363 521 q 288 503 346 536 q 163 435 231 469 q 68 408 96 400 q 73 522 72 474 q 71 619 74 571 q 65 698 68 667 q 53 794 61 729 q 40 907 46 858 q 306 904 115 906 q 596 901 497 903 q 689 892 694 899 z "},"8":{"ha":656,"x_min":38,"x_max":618,"o":"m 318 907 q 88 835 185 908 q 41 711 44 781 q 63 578 38 642 q 136 457 89 515 q 66 335 92 408 q 51 183 40 261 q 119 63 61 106 q 252 23 169 31 q 415 31 335 15 q 553 97 494 47 q 615 219 613 146 q 500 474 617 386 q 549 579 538 533 q 563 763 590 690 q 470 871 535 835 q 318 907 406 907 m 300 788 q 308 788 304 788 q 413 696 411 788 q 372 581 413 621 q 265 567 332 540 q 206 617 228 581 q 183 692 183 654 q 214 758 183 729 q 300 788 244 788 m 324 369 q 333 369 328 369 q 439 278 438 369 q 389 160 438 204 q 274 143 340 117 q 224 199 240 161 q 212 274 208 236 q 244 340 215 311 q 324 369 274 369 z "},"9":{"ha":665,"x_min":33,"x_max":628,"o":"m 383 13 q 400 25 392 13 q 429 76 408 38 q 485 181 464 140 q 536 290 506 222 q 583 414 567 358 q 613 537 599 469 q 626 672 628 604 q 611 806 625 739 q 548 887 593 858 q 446 919 503 915 q 325 906 389 922 q 206 856 261 889 q 108 772 150 822 q 50 663 65 721 q 44 546 35 601 q 83 452 54 490 q 157 387 113 414 q 255 356 201 360 q 365 365 308 353 q 379 367 378 371 q 372 347 379 364 q 214 144 346 279 q 211 142 213 143 q 180 110 189 119 q 158 85 171 100 q 140 65 144 69 q 132 51 135 60 q 129 40 129 42 q 136 33 129 38 q 149 27 143 28 q 172 24 156 26 q 201 22 189 22 q 239 21 213 22 q 244 21 242 21 q 375 14 357 18 q 383 13 381 13 m 331 461 q 290 472 313 461 q 235 544 244 501 q 245 624 225 588 q 305 684 265 660 q 388 704 344 708 q 448 664 429 700 q 461 586 467 628 q 431 508 456 544 q 371 465 406 471 q 331 461 344 461 z "},"Ŕ":{"ha":506,"x_min":46,"x_max":414,"o":"m 46 0 l 46 925 l 414 925 l 414 0 l 46 0 m 92 46 l 368 46 l 368 879 l 92 879 l 92 46 z "},"Ŗ":{"ha":506,"x_min":46,"x_max":414,"o":"m 46 0 l 46 925 l 414 925 l 414 0 l 46 0 m 92 46 l 368 46 l 368 879 l 92 879 l 92 46 z "},"ŗ":{"ha":506,"x_min":46,"x_max":414,"o":"m 46 0 l 46 925 l 414 925 l 414 0 l 46 0 m 92 46 l 368 46 l 368 879 l 92 879 l 92 46 z "},"Ř":{"ha":506,"x_min":46,"x_max":414,"o":"m 46 0 l 46 925 l 414 925 l 414 0 l 46 0 m 92 46 l 368 46 l 368 879 l 92 879 l 92 46 z "},"Ś":{"ha":506,"x_min":46,"x_max":414,"o":"m 46 0 l 46 925 l 414 925 l 414 0 l 46 0 m 92 46 l 368 46 l 368 879 l 92 879 l 92 46 z "},"Ŝ":{"ha":506,"x_min":46,"x_max":414,"o":"m 46 0 l 46 925 l 414 925 l 414 0 l 46 0 m 92 46 l 368 46 l 368 879 l 92 879 l 92 46 z "},"Ş":{"ha":506,"x_min":46,"x_max":414,"o":"m 46 0 l 46 925 l 414 925 l 414 0 l 46 0 m 92 46 l 368 46 l 368 879 l 92 879 l 92 46 z "},"Š":{"ha":506,"x_min":46,"x_max":414,"o":"m 46 0 l 46 925 l 414 925 l 414 0 l 46 0 m 92 46 l 368 46 l 368 879 l 92 879 l 92 46 z "},"Ż":{"ha":506,"x_min":46,"x_max":414,"o":"m 46 0 l 46 925 l 414 925 l 414 0 l 46 0 m 92 46 l 368 46 l 368 879 l 92 879 l 92 46 z "},"ż":{"ha":506,"x_min":46,"x_max":414,"o":"m 46 0 l 46 925 l 414 925 l 414 0 l 46 0 m 92 46 l 368 46 l 368 879 l 92 879 l 92 46 z "},"Ž":{"ha":506,"x_min":46,"x_max":414,"o":"m 46 0 l 46 925 l 414 925 l 414 0 l 46 0 m 92 46 l 368 46 l 368 879 l 92 879 l 92 46 z "},"˄":{"ha":506,"x_min":46,"x_max":414,"o":"m 46 0 l 46 925 l 414 925 l 414 0 l 46 0 m 92 46 l 368 46 l 368 879 l 92 879 l 92 46 z "},"˅":{"ha":506,"x_min":46,"x_max":414,"o":"m 46 0 l 46 925 l 414 925 l 414 0 l 46 0 m 92 46 l 368 46 l 368 879 l 92 879 l 92 46 z "},"₥":{"ha":506,"x_min":46,"x_max":414,"o":"m 46 0 l 46 925 l 414 925 l 414 0 l 46 0 m 92 46 l 368 46 l 368 879 l 92 879 l 92 46 z "},"₦":{"ha":506,"x_min":46,"x_max":414,"o":"m 46 0 l 46 925 l 414 925 l 414 0 l 46 0 m 92 46 l 368 46 l 368 879 l 92 879 l 92 46 z "},"!":{"ha":472,"x_min":35,"x_max":433,"o":"m 194 910 q 43 900 76 908 q 50 869 35 900 q 83 778 68 828 q 106 688 97 728 q 124 585 115 649 q 135 490 132 522 q 144 385 138 458 q 154 288 151 311 q 324 285 265 322 q 337 431 332 340 q 346 587 342 522 q 372 738 350 651 q 433 900 393 825 q 194 910 350 910 m 242 243 q 167 212 196 242 q 138 128 138 182 q 165 49 139 76 q 236 21 192 22 q 331 49 304 21 q 358 132 358 78 q 326 207 360 175 q 242 243 292 239 z "},"\"":{"ha":360,"x_min":40,"x_max":321,"o":"m 129 901 q 43 897 88 903 l 42 778 l 40 658 l 89 661 l 139 663 l 140 679 q 175 893 146 779 q 129 901 175 901 m 279 901 q 200 897 247 901 q 171 661 183 819 l 235 661 l 285 663 l 285 679 q 321 893 292 779 q 279 901 319 901 z "},"#":{"ha":897,"x_min":39,"x_max":860,"o":"m 331 911 q 256 893 257 910 q 229 650 243 767 q 121 654 190 651 q 99 613 110 656 q 86 535 88 571 q 93 494 85 500 q 210 501 151 499 q 189 356 200 424 q 75 361 150 357 q 53 319 64 361 q 40 241 42 276 q 49 200 39 206 q 163 207 106 204 q 128 36 146 115 q 168 17 124 21 q 258 24 213 14 q 303 51 304 35 q 310 214 303 126 q 492 217 406 217 q 454 36 474 119 q 494 17 450 21 q 585 24 539 14 q 629 51 631 35 q 636 214 629 126 q 781 204 714 211 q 804 248 794 203 q 812 337 814 293 q 796 376 810 381 q 651 360 731 365 q 672 508 660 429 q 826 499 756 504 q 849 541 840 496 q 857 631 858 586 q 840 671 856 675 q 697 653 775 660 q 742 890 711 733 q 703 908 743 903 q 623 909 664 914 q 581 893 582 904 q 556 646 569 763 q 369 646 471 643 q 415 890 383 729 q 391 906 417 900 q 331 911 365 911 m 528 511 q 538 511 531 511 q 514 351 526 426 q 324 351 429 350 q 346 507 333 425 q 528 511 443 511 z "},"$":{"ha":639,"x_min":40,"x_max":606,"o":"m 472 53 q 445 32 454 46 q 438 1 436 18 q 445 -33 440 -17 q 458 -64 450 -49 q 467 -77 460 -67 q 480 -95 475 -87 q 489 -112 485 -103 q 492 -127 493 -121 q 483 -136 490 -133 q 356 -128 428 -128 q 232 -150 285 -128 q 217 -83 197 -165 q 222 -64 219 -76 q 225 -56 224 -57 q 229 -26 228 -37 q 228 -1 231 -15 q 217 21 226 14 q 189 29 207 28 q 124 64 160 35 q 78 129 89 93 q 109 223 79 165 q 143 293 139 281 q 156 305 150 303 q 168 300 163 307 q 177 287 174 293 q 186 267 181 281 q 194 251 192 256 q 201 239 196 246 q 210 229 206 232 q 255 190 231 204 q 301 172 279 175 q 345 174 324 169 q 382 192 367 179 q 409 222 397 206 q 422 258 421 238 q 418 299 424 278 q 388 326 408 317 q 350 336 367 335 q 301 338 333 338 q 260 338 268 338 q 135 384 186 346 q 63 476 85 422 q 41 593 42 529 q 61 715 40 657 q 124 821 82 772 q 222 892 165 869 q 207 1011 250 933 q 249 1053 178 1042 q 447 1050 336 1067 q 475 1043 468 1046 q 465 1018 479 1036 q 432 970 451 1000 q 406 914 413 940 q 533 899 461 922 q 572 826 606 876 q 542 740 550 796 q 528 669 533 685 q 504 662 518 663 q 476 667 490 661 q 450 679 463 672 q 425 694 438 686 q 408 704 413 701 q 326 713 364 719 q 264 679 289 706 q 227 621 239 653 q 224 555 215 589 q 261 497 232 521 q 313 484 283 488 q 369 482 343 481 q 424 481 394 483 q 535 444 492 481 q 591 354 579 408 q 596 242 603 300 q 556 131 589 183 q 472 53 522 78 z "},"%":{"ha":879,"x_min":39,"x_max":843,"o":"m 689 913 q 614 906 622 913 q 139 42 510 729 q 122 19 122 22 q 239 15 122 15 q 300 16 279 15 q 335 17 321 17 q 352 19 349 18 q 354 24 356 21 q 410 244 371 133 q 503 456 449 356 q 606 632 558 557 q 712 792 653 707 q 790 911 771 878 q 744 912 779 911 q 689 913 708 913 m 224 908 q 40 719 40 901 q 84 558 46 610 q 215 499 122 507 q 289 515 257 499 q 339 556 321 532 q 369 612 357 579 q 384 669 381 644 q 389 718 388 694 q 347 851 392 796 q 224 908 303 907 m 219 808 q 281 779 258 807 q 303 713 304 751 q 298 680 301 696 q 286 644 294 664 q 260 613 278 625 q 215 601 242 601 q 149 631 168 606 q 126 713 129 657 q 219 808 126 804 m 674 428 q 490 239 490 422 q 534 78 496 131 q 667 18 572 26 q 740 35 708 18 q 790 76 772 51 q 819 132 807 100 q 835 189 831 164 q 839 239 839 214 q 797 372 842 315 q 674 428 753 428 m 669 328 q 732 299 710 328 q 753 232 754 271 q 749 199 753 215 q 737 164 746 183 q 710 133 728 144 q 665 121 692 121 q 599 151 618 125 q 576 232 579 178 q 669 328 576 325 z "},"&":{"ha":725,"x_min":4,"x_max":686,"o":"m 144 447 q 159 435 150 442 q 170 426 168 429 q 178 420 172 424 q 181 414 183 417 q 181 409 179 411 q 176 402 182 407 q 169 395 171 397 q 158 385 167 393 q 44 193 29 314 q 142 38 57 100 q 333 1 238 -33 q 467 144 417 33 q 486 126 478 167 q 492 99 489 118 q 494 85 493 89 q 511 24 496 75 q 584 103 531 63 q 685 156 638 143 q 637 183 660 165 q 597 224 614 201 q 565 274 581 247 q 540 326 550 300 q 520 378 529 353 q 505 426 511 404 q 494 463 499 447 q 485 488 489 479 q 481 493 482 496 q 354 397 439 428 q 367 358 343 382 q 390 322 390 335 q 301 188 371 208 q 211 217 249 172 q 206 333 168 267 q 257 392 224 364 q 269 401 265 397 q 276 410 274 406 q 279 417 278 415 q 278 424 281 418 q 274 431 275 429 q 266 439 272 432 q 257 450 260 446 q 198 626 190 558 q 276 722 206 693 q 314 729 296 729 q 347 723 332 729 q 374 707 361 717 q 397 682 386 697 q 415 651 407 667 q 429 616 422 636 q 441 580 436 596 q 451 543 446 564 q 501 626 467 569 q 561 728 536 683 q 600 810 586 772 q 260 904 431 942 q 74 778 133 878 q 71 540 6 664 q 144 447 97 492 z "},"'":{"ha":215,"x_min":40,"x_max":176,"o":"m 140 679 l 139 663 l 89 661 l 40 658 l 42 778 l 43 897 q 74 900 56 899 q 117 902 93 901 q 158 901 142 903 q 175 893 175 899 q 140 679 146 779 z "},"(":{"ha":308,"x_min":39,"x_max":269,"o":"m 268 908 q 174 670 204 838 q 166 317 144 503 q 260 21 188 131 q 182 28 226 26 q 108 19 138 29 q 40 463 40 229 q 101 906 40 696 q 107 910 103 908 q 120 912 111 911 q 138 913 129 913 q 161 912 146 913 q 186 911 176 911 q 268 908 242 911 z "},")":{"ha":308,"x_min":40,"x_max":269,"o":"m 40 900 q 134 662 104 829 q 142 308 164 494 q 49 13 121 122 q 126 19 82 18 q 200 11 171 21 q 269 454 269 221 q 207 897 268 688 q 203 901 207 900 q 189 903 199 903 q 172 904 179 904 q 148 903 164 904 q 122 903 132 903 q 40 900 67 903 z "},"*":{"ha":394,"x_min":39,"x_max":357,"o":"m 213 908 q 133 904 136 908 q 153 793 138 871 q 96 839 117 824 q 80 817 94 839 q 52 773 65 794 q 40 750 39 751 q 129 718 86 735 q 46 625 51 632 q 71 607 46 622 q 121 578 96 592 q 146 565 146 564 q 194 686 169 628 q 243 565 219 628 q 268 578 243 564 q 318 607 293 592 q 343 625 343 622 q 256 722 343 625 q 354 756 304 740 q 342 778 356 757 q 313 822 328 800 q 296 843 297 843 q 233 794 275 828 q 247 906 239 850 q 213 908 247 908 z "},"+":{"ha":665,"x_min":38,"x_max":629,"o":"m 319 768 q 256 756 254 768 q 268 539 264 639 q 53 550 147 539 q 41 511 43 551 q 45 433 39 471 q 63 397 51 394 q 269 419 150 415 q 258 194 269 293 q 297 183 257 185 q 376 187 338 181 q 411 204 414 193 q 389 421 392 294 q 613 413 465 419 q 624 447 621 411 q 625 517 628 482 q 614 553 622 553 q 388 540 492 543 q 396 754 389 613 q 319 768 397 768 z "},",":{"ha":229,"x_min":33,"x_max":188,"o":"m 185 75 q 167 11 186 64 q 136 -60 147 -42 q 126 -90 125 -79 q 108 -109 128 -101 q 75 -114 89 -117 q 48 -96 63 -112 q 35 -68 33 -79 q 49 -49 36 -57 q 90 14 65 -37 q 113 83 114 65 q 122 101 111 90 q 139 111 132 111 q 166 98 149 111 q 185 75 183 85 z "},"-":{"ha":665,"x_min":38,"x_max":629,"o":"m 53 550 q 614 553 268 526 q 625 517 622 553 q 624 447 628 482 q 613 413 621 411 q 340 420 506 421 q 63 397 174 419 q 45 433 51 394 q 41 511 39 471 q 53 550 43 551 z "},".":{"ha":346,"x_min":136,"x_max":251,"o":"m 190 69 q 151 53 167 68 q 136 10 136 39 q 188 -44 139 -43 q 236 -30 222 -44 q 250 13 250 -15 q 233 51 250 35 q 190 69 215 68 z "},"/":{"ha":749,"x_min":40,"x_max":710,"o":"m 274 24 q 270 19 274 21 q 253 17 267 18 q 219 16 240 17 q 157 15 197 15 q 40 19 40 15 q 58 42 40 22 q 532 906 428 728 q 567 912 539 911 q 650 912 596 913 q 710 911 704 911 q 630 792 689 878 q 524 632 571 707 q 422 456 476 557 q 328 244 367 356 q 274 24 289 133 z "},":":{"ha":263,"x_min":39,"x_max":224,"o":"m 124 510 q 63 485 86 508 q 40 418 40 463 q 63 356 42 378 q 119 332 83 333 q 195 356 174 333 q 217 421 217 378 q 190 481 217 456 q 124 510 164 507 m 129 194 q 69 169 92 193 q 46 103 46 146 q 68 40 47 61 q 125 17 89 18 q 200 40 179 18 q 222 106 221 63 q 196 166 222 140 q 129 194 169 192 z "},";":{"ha":300,"x_min":40,"x_max":261,"o":"m 168 510 q 107 485 131 508 q 85 418 83 463 q 107 356 86 378 q 164 332 128 333 q 239 356 218 333 q 261 421 260 378 q 235 481 261 456 q 168 510 208 507 m 242 178 q 226 181 239 181 q 185 178 214 181 l 132 174 q 40 -40 114 96 q 181 -32 144 -19 q 242 178 231 133 z "},"<":{"ha":722,"x_min":40,"x_max":683,"o":"m 683 19 q 550 19 665 19 q 400 19 435 19 q 40 451 249 206 q 233 689 183 625 q 386 900 282 753 q 400 918 383 914 q 540 920 418 921 q 674 915 663 919 q 601 856 636 888 q 535 794 565 825 q 477 732 504 763 q 426 670 450 701 q 383 613 401 639 q 347 561 364 588 q 320 519 331 535 q 300 487 310 504 q 289 469 290 469 q 333 398 299 450 q 420 274 367 346 q 545 131 474 203 q 683 19 617 58 z "},"=":{"ha":751,"x_min":33,"x_max":714,"o":"m 385 676 q 44 624 197 676 q 47 442 33 528 q 230 492 90 475 q 512 499 369 508 q 704 458 654 489 q 708 546 703 485 q 713 626 714 607 q 385 676 567 678 m 385 460 q 44 407 197 460 q 47 224 33 311 q 230 274 90 258 q 512 281 369 290 q 704 242 654 272 q 708 328 703 267 q 713 410 714 390 q 385 460 567 461 z "},">":{"ha":722,"x_min":40,"x_max":683,"o":"m 40 19 q 173 19 58 19 q 322 19 288 19 q 683 451 475 206 q 491 689 540 625 q 338 900 442 753 q 324 918 340 914 q 183 920 306 921 q 50 915 61 919 q 122 856 86 888 q 188 794 158 825 q 246 732 218 763 q 297 670 274 701 q 340 613 321 639 q 376 561 358 588 q 403 519 393 535 q 423 487 413 504 q 433 469 433 469 q 390 398 425 450 q 303 274 356 346 q 178 131 250 203 q 40 19 106 58 z "},"?":{"ha":754,"x_min":40,"x_max":722,"o":"m 468 929 q 288 891 378 929 q 128 777 197 853 q 40 607 58 701 q 142 526 103 586 q 186 386 182 465 q 196 374 186 375 q 215 383 206 372 q 244 479 222 393 q 339 667 247 613 q 460 679 404 704 q 496 582 517 651 q 446 499 485 543 q 392 385 414 465 q 371 265 371 306 q 608 268 457 303 q 613 269 611 267 q 616 275 615 271 q 617 288 617 279 q 617 307 617 296 q 635 453 615 367 q 688 578 656 540 q 708 629 697 589 q 707 764 721 706 q 658 858 693 822 q 575 910 624 893 q 468 929 526 928 m 500 243 q 424 212 454 242 q 396 128 394 182 q 424 49 397 76 q 494 21 450 22 q 589 49 563 21 q 617 132 615 78 q 583 207 617 175 q 500 243 550 239 z "},"@":{"ha":924,"x_min":35,"x_max":894,"o":"m 497 913 q 324 876 404 910 q 190 786 244 842 q 98 658 135 731 q 48 510 61 586 q 44 357 35 433 q 83 215 53 281 q 171 101 114 150 q 304 31 228 51 q 517 35 394 13 q 688 117 639 57 q 683 130 689 128 q 647 131 676 132 q 535 161 571 125 q 504 171 517 179 q 386 140 454 135 q 243 201 300 150 q 166 323 186 251 q 152 475 146 394 q 193 628 158 556 q 270 721 218 679 q 388 783 322 763 q 519 803 453 803 q 648 769 586 803 q 747 672 710 736 q 760 552 764 615 q 726 426 757 489 q 643 325 694 363 q 589 318 599 301 q 594 388 583 326 q 619 478 606 450 q 654 535 628 497 q 690 596 681 574 l 701 628 q 604 681 631 669 q 580 659 597 681 q 563 629 563 638 q 535 632 563 619 q 525 636 528 635 q 455 649 494 650 q 376 628 415 647 q 307 572 338 610 q 265 478 276 535 q 267 343 253 421 q 309 300 282 311 q 400 289 336 289 l 469 289 l 497 256 q 629 200 547 200 q 725 233 681 201 q 799 317 769 265 q 849 421 829 369 q 881 524 869 472 q 866 690 893 615 q 783 813 839 765 q 653 885 726 860 q 497 913 579 911 m 432 561 q 473 543 451 561 q 500 507 494 525 q 474 406 510 453 q 429 382 460 388 q 373 387 399 376 q 347 419 347 397 q 350 456 347 438 q 360 499 353 475 q 385 539 368 522 q 426 560 401 556 q 432 561 428 561 z "},"A":{"ha":596,"x_min":40,"x_max":557,"o":"m 154 894 q 40 4 49 600 q 98 22 63 19 q 163 17 133 24 q 211 0 192 11 q 217 81 217 26 q 218 161 217 136 q 269 281 232 276 q 342 218 322 283 q 357 146 347 199 q 375 53 367 93 q 386 11 383 13 q 556 108 435 97 q 372 781 453 510 q 344 840 360 815 q 317 876 329 864 q 283 897 306 889 q 251 905 261 904 q 214 910 242 906 q 154 894 165 914 m 226 631 q 248 642 233 643 q 272 625 263 640 q 292 569 281 610 q 319 481 303 532 q 333 417 342 417 q 270 440 303 440 q 208 418 238 439 q 209 519 201 426 q 226 631 217 613 z "},"B":{"ha":838,"x_min":38,"x_max":821,"o":"m 56 882 q 41 876 43 885 q 49 856 39 868 q 56 844 53 849 q 61 829 58 839 q 65 814 64 819 q 70 790 67 808 q 76 758 74 772 q 113 615 106 624 q 118 616 114 614 q 131 627 122 618 q 153 651 139 636 q 189 692 167 665 l 207 711 q 213 649 207 701 q 223 571 219 597 q 233 488 226 544 q 246 396 240 432 q 259 307 251 360 q 274 217 267 254 q 290 138 282 179 q 308 65 299 97 q 328 11 318 33 q 474 0 367 1 q 757 114 672 0 q 789 292 821 199 q 660 410 758 382 q 640 414 650 413 l 615 417 l 639 454 q 683 582 672 511 q 678 717 693 653 q 614 829 664 781 q 486 889 564 878 q 285 894 442 896 q 56 882 129 893 m 515 690 q 513 599 542 656 q 438 508 483 543 q 379 494 393 474 q 349 609 365 517 q 342 711 332 701 q 401 726 369 721 q 467 723 432 731 q 515 690 501 715 m 604 288 q 632 203 647 256 q 570 156 615 175 q 484 137 525 136 q 436 163 443 138 q 419 244 428 194 q 414 296 411 293 q 510 313 450 315 q 604 288 571 310 z "},"C":{"ha":704,"x_min":33,"x_max":669,"o":"m 661 276 q 566 87 639 154 q 379 4 493 19 q 222 36 292 -6 q 110 151 151 78 q 51 320 69 225 q 42 507 33 415 q 90 680 51 599 q 190 806 128 761 q 233 826 211 818 q 265 837 254 835 q 287 841 276 839 q 297 844 297 843 q 296 851 297 844 q 288 875 288 863 q 372 900 308 893 q 444 888 435 907 q 518 619 465 799 q 501 605 511 611 q 475 592 492 599 q 445 579 458 585 q 401 562 432 574 q 347 542 369 550 q 318 668 319 631 q 286 646 321 692 q 274 629 279 638 q 217 468 222 556 q 250 317 213 381 q 344 217 288 254 q 480 206 400 181 q 633 321 560 231 q 661 336 651 357 q 661 276 668 318 z "},"D":{"ha":763,"x_min":40,"x_max":731,"o":"m 200 900 q 61 899 79 900 q 40 894 43 899 q 126 454 96 697 q 154 1 157 211 q 217 -3 164 -3 q 285 0 269 -3 q 494 74 403 22 q 635 191 585 125 q 708 336 686 257 q 721 494 731 415 q 671 645 711 572 q 567 774 631 718 q 408 865 503 831 q 200 900 313 900 m 318 682 q 433 645 385 679 q 502 561 482 611 q 522 452 522 511 q 500 342 521 393 q 434 252 479 290 q 331 206 389 214 q 316 386 325 303 q 300 508 307 469 q 281 600 293 546 q 267 664 268 654 q 282 676 267 671 q 318 682 297 681 z "},"E":{"ha":625,"x_min":39,"x_max":588,"o":"m 565 14 q 398 4 547 8 q 169 3 249 0 l 81 6 l 82 29 q 71 416 72 136 q 46 835 69 696 q 56 881 39 871 q 121 894 72 890 q 258 894 129 894 q 428 893 356 893 q 497 888 490 893 q 492 842 504 882 q 490 772 485 821 q 510 692 496 724 q 221 657 307 668 q 223 607 222 647 q 226 531 224 567 q 233 488 228 496 q 257 488 235 486 q 293 493 279 490 q 460 528 403 521 q 466 528 464 529 q 468 524 468 528 q 467 514 468 519 q 464 497 467 508 q 457 448 456 465 q 471 403 458 431 q 485 360 486 369 q 469 347 485 350 q 256 292 268 301 q 247 239 249 286 q 253 182 246 192 q 324 185 257 175 q 460 213 392 196 q 539 228 538 232 q 538 217 540 226 q 533 163 532 201 q 574 46 533 90 q 585 25 586 31 q 565 14 585 19 z "},"F":{"ha":563,"x_min":40,"x_max":524,"o":"m 506 715 q 508 692 515 696 q 364 685 469 683 q 215 674 258 686 q 224 623 219 657 q 233 565 228 589 q 247 517 238 542 q 272 484 256 493 q 313 485 289 475 q 365 500 333 493 q 419 510 397 507 q 447 513 442 513 q 456 427 451 453 q 474 360 460 401 q 476 329 482 335 q 383 315 444 324 q 288 299 321 306 q 276 289 278 296 q 278 244 275 282 q 297 38 288 94 q 299 7 303 11 q 217 1 296 3 q 139 1 139 -1 q 88 418 132 125 q 40 863 44 711 q 43 884 40 879 q 56 892 46 889 q 138 895 71 893 q 258 898 204 897 q 376 899 313 899 q 478 897 439 900 q 522 889 517 894 q 513 844 519 871 q 501 799 506 817 q 497 758 497 781 q 506 715 497 735 z "},"G":{"ha":856,"x_min":39,"x_max":817,"o":"m 653 76 q 632 149 643 86 q 615 164 625 182 q 317 4 475 -21 q 160 83 225 18 q 67 238 96 149 q 41 431 39 326 q 74 627 43 535 q 172 792 106 719 q 326 888 238 864 q 508 894 407 903 q 569 888 568 889 q 563 846 571 888 q 564 778 556 804 q 606 708 578 731 q 606 697 613 701 q 525 699 589 686 q 300 631 381 754 q 244 396 236 535 q 321 219 253 264 q 432 219 368 190 q 515 310 504 254 q 516 336 519 331 q 498 334 513 342 q 429 308 483 326 q 371 300 371 290 q 375 307 371 303 q 388 356 386 321 q 379 471 389 392 q 381 478 379 476 q 389 479 383 481 q 478 483 399 479 q 747 553 626 492 q 747 440 744 486 q 765 319 749 393 q 815 190 782 246 q 766 185 790 197 q 725 153 742 172 q 688 110 708 135 q 653 76 667 86 z "},"H":{"ha":650,"x_min":38,"x_max":611,"o":"m 590 72 l 554 71 q 489 61 526 71 q 431 39 451 51 q 410 33 414 29 q 406 164 407 36 q 406 318 406 292 q 403 339 404 335 q 393 343 401 343 q 349 333 383 340 q 285 319 314 326 q 251 308 256 313 q 253 188 249 304 q 261 44 257 72 q 258 34 261 36 q 242 29 256 32 q 202 32 231 28 q 145 34 174 36 q 92 13 117 32 q 61 -8 65 -8 q 58 46 57 -8 q 60 297 56 132 q 62 597 65 463 q 40 847 58 732 q 68 870 38 867 q 148 876 99 874 q 225 894 197 878 q 240 899 238 901 q 244 761 242 897 q 254 522 249 528 q 404 546 307 539 l 408 574 q 421 676 413 594 q 432 797 429 758 l 432 825 l 465 840 q 593 888 560 885 q 608 885 606 888 q 610 869 610 883 q 594 597 599 686 q 586 345 589 507 q 590 72 583 183 z "},"I":{"ha":290,"x_min":38,"x_max":253,"o":"m 240 53 q 57 1 185 50 q 64 181 58 64 q 70 351 69 297 q 70 490 71 406 q 63 649 69 575 q 42 804 56 722 q 50 819 38 815 q 116 845 65 826 q 196 879 167 864 q 219 889 215 890 q 221 874 222 888 q 242 506 238 650 q 251 72 247 361 q 240 53 253 61 z "},"J":{"ha":621,"x_min":40,"x_max":640,"o":"m 61 244 q 151 297 128 272 q 169 306 161 306 q 183 299 176 307 q 196 283 190 292 q 209 261 201 275 q 222 239 217 247 q 386 251 335 131 q 410 538 429 356 q 368 706 397 644 q 328 752 353 736 q 281 769 304 768 q 239 757 258 769 q 213 719 219 744 q 172 601 179 604 q 106 619 146 618 q 40 614 67 619 q 59 667 51 638 q 72 720 67 697 q 80 777 76 743 q 84 827 83 811 q 86 878 85 843 q 89 919 88 913 l 128 921 q 235 938 178 921 q 244 936 243 939 q 246 918 246 933 l 246 896 l 290 896 q 398 887 358 897 q 469 838 438 876 q 554 214 640 461 q 385 18 503 69 q 178 32 275 -29 q 61 244 76 94 z "},"K":{"ha":761,"x_min":40,"x_max":728,"o":"m 486 450 q 574 284 524 357 q 715 117 624 211 q 715 88 728 101 q 678 69 703 74 q 605 47 660 67 q 521 13 550 26 q 447 165 494 69 q 351 364 400 261 q 333 353 339 357 q 314 342 326 349 q 328 225 313 339 q 351 83 344 111 q 357 50 358 57 q 296 42 335 46 q 225 31 257 38 q 161 13 193 25 q 152 146 157 85 q 144 254 147 207 q 135 352 140 301 q 126 431 129 403 q 115 507 124 460 q 104 572 107 554 q 91 642 101 590 q 77 710 81 694 q 59 790 74 725 q 40 876 44 856 q 91 894 54 890 q 177 899 128 897 q 253 908 226 901 l 265 911 q 261 842 263 875 q 263 771 260 808 q 267 713 265 733 q 275 643 269 692 q 282 576 281 594 l 285 553 q 449 706 378 613 q 524 889 519 800 q 595 856 557 864 q 660 853 633 849 q 719 849 686 858 q 692 764 710 806 q 647 677 675 722 q 599 603 619 632 q 540 522 579 575 q 486 450 500 469 z "},"L":{"ha":733,"x_min":40,"x_max":694,"o":"m 272 915 q 243 906 263 914 q 107 881 196 886 q 94 876 97 879 q 93 861 92 874 q 135 213 146 521 q 121 197 133 203 q 81 183 108 190 q 40 171 53 175 q 58 126 43 160 q 83 58 74 92 q 90 -6 93 25 q 325 55 218 33 q 488 81 432 76 q 604 88 544 85 q 694 96 664 90 q 649 207 674 119 q 625 297 625 294 q 455 252 569 276 q 321 249 340 228 q 315 493 321 383 q 292 751 308 603 q 275 914 276 899 q 272 915 275 915 z "},"M":{"ha":758,"x_min":40,"x_max":719,"o":"m 551 8 q 540 142 551 63 q 515 267 528 221 q 473 173 506 244 q 428 72 440 101 q 388 99 410 76 q 342 158 365 122 q 299 224 318 193 q 259 293 281 254 q 231 342 238 332 q 217 209 225 303 q 200 68 208 115 q 199 42 200 56 q 192 17 197 29 q 176 6 186 6 q 153 19 167 6 q 53 67 94 58 q 69 278 67 164 q 67 477 72 392 q 52 688 61 563 q 40 883 43 813 q 92 890 63 888 q 141 893 121 893 q 197 892 161 893 q 246 892 232 892 q 306 614 271 731 q 399 369 340 497 q 453 513 433 432 q 476 654 472 593 q 488 768 481 715 q 511 838 496 821 q 578 885 533 856 q 636 924 622 914 q 648 642 640 861 q 670 293 656 424 q 719 50 685 163 q 694 27 713 38 q 652 10 675 17 q 607 -1 629 3 q 569 -1 585 -4 q 551 8 553 1 z "},"N":{"ha":675,"x_min":40,"x_max":643,"o":"m 597 36 l 572 36 q 475 26 524 33 q 413 10 426 18 q 396 3 399 0 q 304 163 379 24 q 232 339 264 238 q 219 372 224 368 q 215 304 218 375 q 210 163 211 233 q 211 60 210 93 q 210 19 214 26 q 182 18 206 13 q 110 28 150 25 q 64 28 71 31 q 49 26 57 22 q 40 885 81 369 q 53 885 46 892 q 89 874 61 876 q 163 882 117 872 q 185 888 171 885 q 238 890 228 899 q 258 818 247 881 q 265 786 263 799 q 329 544 300 633 q 426 314 358 456 q 445 499 439 414 q 453 631 451 583 q 456 758 454 678 q 458 886 457 838 q 512 890 485 889 q 577 891 539 892 q 629 890 615 890 q 619 456 642 771 q 597 36 597 140 z "},"O":{"ha":728,"x_min":36,"x_max":692,"o":"m 379 889 q 167 792 257 889 q 50 556 76 694 q 41 420 38 486 q 56 292 44 354 q 92 177 67 229 q 149 84 118 125 q 225 21 181 43 q 318 -6 269 -1 q 426 13 367 -10 q 546 83 485 35 q 675 354 635 171 q 688 477 692 414 q 671 593 685 540 q 631 711 657 646 q 534 844 592 797 q 388 889 476 892 q 379 889 385 889 m 372 701 q 376 701 375 701 q 510 599 465 704 q 535 393 554 485 q 464 236 513 288 q 340 191 394 179 q 249 253 285 203 q 197 375 213 304 q 192 510 182 446 q 256 647 207 590 q 372 701 306 703 z "},"P":{"ha":728,"x_min":40,"x_max":693,"o":"m 40 883 l 42 861 q 97 510 76 706 q 142 -3 118 314 q 240 14 183 11 q 328 13 296 17 q 372 6 361 8 q 344 128 368 54 q 314 243 319 203 l 389 246 q 551 302 483 257 q 650 410 619 347 q 686 544 681 472 q 671 682 692 617 q 605 799 650 747 q 499 871 560 851 q 269 896 389 896 q 40 883 150 896 m 322 736 q 406 724 364 736 q 482 680 447 711 q 524 604 517 649 q 519 522 529 556 q 490 468 508 488 q 436 435 471 449 q 372 417 401 422 q 294 408 342 413 q 260 540 278 408 q 249 708 242 672 q 322 736 253 736 z "},"Q":{"ha":857,"x_min":39,"x_max":819,"o":"m 408 933 q 342 928 376 932 q 144 792 221 908 q 46 513 68 675 q 40 442 40 457 q 46 381 40 426 q 107 164 60 256 q 268 31 154 72 q 486 22 382 -10 l 524 36 l 538 -37 q 558 -112 551 -110 q 636 -71 565 -114 q 764 -1 707 -28 q 808 23 797 15 q 818 36 819 31 q 772 77 815 44 q 699 121 729 110 q 674 132 679 128 q 690 168 669 136 q 769 366 747 267 q 780 547 792 465 q 734 701 768 629 q 649 822 700 772 q 535 901 597 872 q 408 933 472 931 m 404 715 q 496 693 464 715 q 572 588 547 661 q 588 437 597 515 q 538 308 578 358 l 526 296 l 517 318 q 500 372 508 336 q 492 425 492 408 q 489 439 492 439 q 452 410 486 439 q 377 354 418 382 q 336 323 336 326 q 364 301 336 319 q 415 260 390 285 q 435 229 439 235 q 415 217 432 225 q 379 211 397 210 q 258 278 301 217 q 210 416 214 339 q 233 573 206 493 q 313 696 260 653 q 404 715 342 715 z "},"R":{"ha":781,"x_min":40,"x_max":743,"o":"m 315 893 q 117 871 225 892 q 40 843 72 860 q 87 401 50 657 q 164 -1 124 144 q 278 13 186 1 q 378 25 371 25 q 393 35 390 26 q 386 54 396 44 q 349 129 369 72 q 328 213 328 186 q 332 222 328 217 q 340 231 336 228 q 353 238 344 233 q 363 243 361 243 q 485 7 422 154 q 538 17 494 -6 q 643 78 581 40 q 739 129 706 117 q 741 138 742 133 q 736 142 740 142 q 665 174 699 146 q 593 247 631 203 q 539 306 556 292 l 551 325 q 653 617 644 489 q 575 819 661 744 q 315 893 489 894 m 328 733 q 437 701 386 733 q 493 615 488 668 q 442 516 497 574 q 328 425 386 458 q 268 408 271 392 q 229 599 264 461 q 240 699 210 664 q 328 733 271 733 z "},"S":{"ha":665,"x_min":25,"x_max":658,"o":"m 86 13 q 108 74 90 35 q 133 155 125 114 q 135 253 142 196 q 231 249 186 250 q 321 265 276 247 q 394 322 365 282 q 410 362 406 344 q 412 390 415 379 q 402 408 408 400 q 381 418 396 415 q 356 422 367 421 q 325 422 344 424 q 294 418 306 419 q 267 414 283 417 q 88 461 150 401 q 44 633 25 521 q 94 743 54 685 q 181 832 133 801 q 213 853 210 851 q 206 874 215 856 q 203 894 196 890 q 254 903 211 899 q 346 921 300 906 q 396 933 392 936 q 394 908 400 931 q 395 853 389 886 q 414 793 401 819 q 438 758 424 776 q 461 738 453 740 q 446 713 478 732 q 435 707 440 710 q 379 668 408 694 q 343 642 350 642 q 307 674 336 642 l 279 707 l 263 688 q 221 601 210 629 q 235 592 225 593 q 608 479 540 619 q 572 238 657 379 q 363 40 494 111 q 86 13 211 -40 z "},"T":{"ha":701,"x_min":39,"x_max":663,"o":"m 653 903 q 337 859 450 872 q 157 842 224 846 q 40 832 90 838 q 54 747 40 825 q 64 600 68 668 q 288 657 250 649 l 283 593 q 281 290 282 557 q 281 1 279 24 q 382 9 308 7 q 467 8 456 11 q 456 208 461 46 q 450 629 444 593 l 454 649 q 519 642 486 647 q 599 628 553 638 q 663 615 644 619 q 651 747 653 663 q 658 901 649 831 q 653 903 657 903 z "},"U":{"ha":656,"x_min":40,"x_max":619,"o":"m 319 0 q 247 14 279 6 q 190 39 215 22 q 144 68 164 56 q 110 111 125 81 q 85 160 94 142 q 68 225 75 179 q 57 298 61 271 q 51 388 53 325 q 47 490 49 451 q 44 608 46 528 q 40 836 43 753 q 49 906 47 904 q 139 885 81 896 q 238 865 197 874 q 282 849 278 857 q 273 757 285 843 q 249 570 261 671 q 247 372 238 469 q 296 247 257 274 q 367 236 328 228 q 431 275 406 244 q 436 644 508 389 q 429 672 433 654 q 394 797 397 778 q 399 818 390 815 q 400 819 400 819 q 435 831 411 825 q 540 882 479 840 q 572 900 571 903 q 581 839 575 881 q 597 699 592 749 q 611 555 603 649 q 617 406 619 461 q 607 273 614 350 q 578 151 600 196 q 525 65 557 107 q 440 7 493 22 q 319 0 388 -8 z "},"V":{"ha":769,"x_min":31,"x_max":735,"o":"m 728 863 q 640 728 682 829 q 568 509 599 628 q 507 275 538 390 q 438 81 476 160 q 357 -1 400 3 q 249 210 331 13 q 100 624 168 408 q 42 892 32 839 q 117 888 72 892 q 202 884 163 883 q 282 894 242 885 q 306 890 296 897 q 310 867 317 883 q 315 597 290 797 q 383 369 340 397 q 405 494 390 408 q 433 653 419 581 q 460 781 446 725 q 475 863 474 833 l 476 892 q 526 892 486 892 q 597 890 565 892 q 664 887 629 889 q 716 878 699 885 q 728 863 733 872 z "},"W":{"ha":933,"x_min":40,"x_max":896,"o":"m 889 863 q 704 142 806 590 q 625 8 671 33 q 544 154 588 69 q 479 299 500 239 q 435 213 458 260 q 401 143 413 165 q 369 84 390 121 q 319 0 349 47 q 254 58 283 -1 q 203 219 225 117 q 159 433 181 321 q 106 674 138 544 q 40 890 75 804 q 199 874 96 876 q 232 841 215 868 q 263 774 249 814 q 289 686 276 733 q 311 592 301 639 q 328 508 321 546 q 342 448 336 471 q 351 425 349 425 q 406 565 372 443 q 456 676 435 674 q 471 669 464 676 q 510 612 481 658 q 565 533 539 565 q 610 497 590 500 q 618 615 611 535 q 626 731 625 696 q 622 851 628 765 q 645 865 626 863 q 684 865 664 867 q 719 868 704 863 q 767 874 731 871 q 833 881 803 876 q 878 892 864 886 q 893 892 890 896 q 892 876 896 888 q 889 863 889 864 z "},"X":{"ha":885,"x_min":40,"x_max":846,"o":"m 203 917 q 200 917 201 917 q 40 760 126 865 q 317 515 175 699 q 150 243 214 364 q 106 111 86 122 q 200 60 168 83 q 256 -7 232 38 q 443 329 383 232 q 631 -7 503 232 q 686 60 654 38 q 781 111 718 83 q 736 243 800 122 q 569 515 672 364 q 846 760 711 699 q 686 917 760 865 q 443 693 622 925 q 203 917 268 919 z "},"Y":{"ha":757,"x_min":40,"x_max":718,"o":"m 522 472 q 550 422 524 468 q 588 344 576 375 q 588 304 600 313 q 572 288 579 297 q 558 268 565 279 q 547 249 551 257 q 534 228 542 242 q 522 208 526 214 q 501 226 511 214 q 478 261 492 239 q 460 290 465 283 q 432 176 444 274 q 418 11 419 78 q 310 19 388 24 q 179 -10 232 14 q 233 230 186 72 q 289 439 279 388 q 209 515 257 467 q 120 600 161 563 q 40 665 79 638 q 81 758 68 719 q 95 822 93 797 q 101 919 97 846 q 135 910 118 922 q 171 878 151 899 q 200 850 190 857 q 234 815 214 842 q 274 757 254 788 q 311 697 293 726 q 343 648 329 667 q 360 632 357 629 q 435 772 381 665 q 528 932 490 879 q 535 940 531 935 q 543 947 540 944 q 550 952 546 950 q 558 951 554 954 q 565 943 561 949 q 607 913 582 926 q 669 885 632 900 q 717 864 706 869 q 650 744 694 817 q 572 606 606 672 q 522 472 538 539 z "},"Z":{"ha":871,"x_min":40,"x_max":833,"o":"m 350 217 q 507 238 381 217 q 668 257 633 260 q 617 177 635 224 q 595 94 599 131 q 585 28 592 57 q 567 -7 579 -1 q 310 17 507 14 q 40 1 113 21 q 236 392 118 196 q 478 711 354 588 q 421 737 467 735 q 319 728 375 739 q 207 702 263 717 q 115 678 151 688 q 78 675 78 669 q 98 781 101 750 q 87 840 94 813 q 85 886 79 867 q 438 904 154 906 q 831 857 811 904 q 828 843 833 850 q 669 658 797 806 q 463 406 542 511 q 350 217 385 300 z "},"[":{"ha":588,"x_min":39,"x_max":549,"o":"m 547 1104 q 461 881 467 1033 q 375 880 451 882 q 267 878 299 878 q 256 690 258 797 q 256 503 254 582 q 262 303 258 424 q 267 138 265 182 q 461 146 297 139 q 464 -43 400 65 q 471 -64 475 -62 q 458 -60 468 -64 q 75 -62 424 -61 q 74 -5 71 -24 q 72 51 78 14 q 46 142 67 88 q 72 138 57 138 q 96 138 88 138 q 124 141 104 138 q 146 144 144 144 q 140 449 144 164 q 125 874 135 735 q 99 879 113 878 q 68 881 86 881 q 42 882 50 882 q 42 1103 40 1000 q 294 1106 114 1101 q 547 1104 475 1110 z "},"\\":{"ha":749,"x_min":40,"x_max":710,"o":"m 476 24 q 480 19 476 21 q 497 17 483 18 q 531 16 510 17 q 592 15 551 15 q 710 19 710 15 q 692 42 710 22 q 217 906 321 728 q 183 912 211 911 q 99 912 154 913 q 40 911 44 911 q 134 791 103 835 q 217 651 165 747 q 330 407 269 556 q 476 24 390 258 z "},"]":{"ha":588,"x_min":40,"x_max":549,"o":"m 40 1104 q 128 881 121 1033 q 213 880 138 882 q 321 878 289 878 q 331 690 329 797 q 332 503 333 582 q 326 303 331 424 q 322 138 322 182 q 126 146 292 139 q 125 -43 189 65 q 117 -64 114 -62 q 129 -60 119 -64 q 513 -62 164 -61 q 514 -5 518 -24 q 515 51 510 14 q 543 142 521 88 q 515 138 531 138 q 492 138 500 138 q 464 141 485 138 q 443 144 443 144 q 448 449 443 164 q 464 874 453 735 q 489 879 475 878 q 520 881 503 881 q 546 882 538 882 q 547 1103 549 1000 q 293 1106 474 1101 q 40 1104 113 1110 z "},"^":{"ha":575,"x_min":40,"x_max":536,"o":"m 286 911 q 211 809 268 883 q 100 665 154 735 q 40 588 46 594 q 192 590 138 588 q 288 744 242 683 l 288 743 q 288 744 288 744 q 288 744 288 744 q 289 743 289 744 l 289 744 q 385 590 335 683 q 536 588 438 588 q 476 665 531 594 q 365 809 421 735 q 289 911 308 883 q 288 910 289 911 q 286 911 286 911 z "},"_":{"ha":1172,"x_min":40,"x_max":1133,"o":"m 1106 26 q 560 47 825 49 q 71 26 296 46 q 58 78 65 44 q 40 146 50 111 q 568 178 333 179 q 1132 143 803 178 q 1119 99 1128 128 q 1108 55 1111 71 q 1106 26 1104 39 z "},"`":{"ha":317,"x_min":40,"x_max":278,"o":"m 268 679 l 276 663 l 229 661 l 181 658 l 110 778 l 40 897 q 84 901 58 900 q 140 901 110 903 q 175 893 171 900 q 268 679 214 779 z "},"a":{"ha":596,"x_min":40,"x_max":557,"o":"m 154 894 q 40 4 49 600 q 98 22 63 19 q 163 17 133 24 q 211 0 192 11 q 217 81 217 26 q 218 161 217 136 q 269 281 232 276 q 342 218 322 283 q 357 146 347 199 q 375 53 367 93 q 386 11 383 13 q 556 108 435 97 q 372 781 453 510 q 344 840 360 815 q 317 876 329 864 q 283 897 306 889 q 251 905 261 904 q 214 910 242 906 q 154 894 165 914 m 226 631 q 248 642 233 643 q 272 625 263 640 q 292 569 281 610 q 319 481 303 532 q 333 417 342 417 q 270 440 303 440 q 208 418 238 439 q 209 519 201 426 q 226 631 217 613 z "},"b":{"ha":838,"x_min":38,"x_max":821,"o":"m 56 882 q 41 876 43 885 q 49 856 39 868 q 56 844 53 849 q 61 829 58 839 q 65 814 64 819 q 70 790 67 808 q 76 758 74 772 q 113 615 106 624 q 118 616 114 614 q 131 627 122 618 q 153 651 139 636 q 189 692 167 665 l 207 711 q 213 649 207 701 q 223 571 219 597 q 233 488 226 544 q 246 396 240 432 q 259 307 251 360 q 274 217 267 254 q 290 138 282 179 q 308 65 299 97 q 328 11 318 33 q 474 0 367 1 q 757 114 672 0 q 789 292 821 199 q 660 410 758 382 q 640 414 650 413 l 615 417 l 639 454 q 683 582 672 511 q 678 717 693 653 q 614 829 664 781 q 486 889 564 878 q 285 894 442 896 q 56 882 129 893 m 515 690 q 513 599 542 656 q 438 508 483 543 q 379 494 393 474 q 349 609 365 517 q 342 711 332 701 q 401 726 369 721 q 467 723 432 731 q 515 690 501 715 m 604 288 q 632 203 647 256 q 570 156 615 175 q 484 137 525 136 q 436 163 443 138 q 419 244 428 194 q 414 296 411 293 q 510 313 450 315 q 604 288 571 310 z "},"c":{"ha":704,"x_min":33,"x_max":669,"o":"m 661 276 q 566 87 639 154 q 379 4 493 19 q 222 36 292 -6 q 110 151 151 78 q 51 320 69 225 q 42 507 33 415 q 90 680 51 599 q 190 806 128 761 q 233 826 211 818 q 265 837 254 835 q 287 841 276 839 q 297 844 297 843 q 296 851 297 844 q 288 875 288 863 q 372 900 308 893 q 444 888 435 907 q 518 619 465 799 q 501 605 511 611 q 475 592 492 599 q 445 579 458 585 q 401 562 432 574 q 347 542 369 550 q 318 668 319 631 q 286 646 321 692 q 274 629 279 638 q 217 468 222 556 q 250 317 213 381 q 344 217 288 254 q 480 206 400 181 q 633 321 560 231 q 661 336 651 357 q 661 276 668 318 z "},"d":{"ha":763,"x_min":40,"x_max":731,"o":"m 200 900 q 61 899 79 900 q 40 894 43 899 q 126 454 96 697 q 154 1 157 211 q 217 -3 164 -3 q 285 0 269 -3 q 494 74 403 22 q 635 191 585 125 q 708 336 686 257 q 721 494 731 415 q 671 645 711 572 q 567 774 631 718 q 408 865 503 831 q 200 900 313 900 m 318 682 q 433 645 385 679 q 502 561 482 611 q 522 452 522 511 q 500 342 521 393 q 434 252 479 290 q 331 206 389 214 q 316 386 325 303 q 300 508 307 469 q 281 600 293 546 q 267 664 268 654 q 282 676 267 671 q 318 682 297 681 z "},"e":{"ha":625,"x_min":39,"x_max":588,"o":"m 565 14 q 398 4 547 8 q 169 3 249 0 l 81 6 l 82 29 q 71 416 72 136 q 46 835 69 696 q 56 881 39 871 q 121 894 72 890 q 258 894 129 894 q 428 893 356 893 q 497 888 490 893 q 492 842 504 882 q 490 772 485 821 q 510 692 496 724 q 221 657 307 668 q 223 607 222 647 q 226 531 224 567 q 233 488 228 496 q 257 488 235 486 q 293 493 279 490 q 460 528 403 521 q 466 528 464 529 q 468 524 468 528 q 467 514 468 519 q 464 497 467 508 q 457 448 456 465 q 471 403 458 431 q 485 360 486 369 q 469 347 485 350 q 256 292 268 301 q 247 239 249 286 q 253 182 246 192 q 324 185 257 175 q 460 213 392 196 q 539 228 538 232 q 538 217 540 226 q 533 163 532 201 q 574 46 533 90 q 585 25 586 31 q 565 14 585 19 z "},"f":{"ha":563,"x_min":40,"x_max":524,"o":"m 506 715 q 508 692 515 696 q 364 685 469 683 q 215 674 258 686 q 224 623 219 657 q 233 565 228 589 q 247 517 238 542 q 272 484 256 493 q 313 485 289 475 q 365 500 333 493 q 419 510 397 507 q 447 513 442 513 q 456 427 451 453 q 474 360 460 401 q 476 329 482 335 q 383 315 444 324 q 288 299 321 306 q 276 289 278 296 q 278 244 275 282 q 297 38 288 94 q 299 7 303 11 q 217 1 296 3 q 139 1 139 -1 q 88 418 132 125 q 40 863 44 711 q 43 884 40 879 q 56 892 46 889 q 138 895 71 893 q 258 898 204 897 q 376 899 313 899 q 478 897 439 900 q 522 889 517 894 q 513 844 519 871 q 501 799 506 817 q 497 758 497 781 q 506 715 497 735 z "},"g":{"ha":856,"x_min":39,"x_max":817,"o":"m 653 76 q 632 149 643 86 q 615 164 625 182 q 317 4 475 -21 q 160 83 225 18 q 67 238 96 149 q 41 431 39 326 q 74 627 43 535 q 172 792 106 719 q 326 888 238 864 q 508 894 407 903 q 569 888 568 889 q 563 846 571 888 q 564 778 556 804 q 606 708 578 731 q 606 697 613 701 q 525 699 589 686 q 300 631 381 754 q 244 396 236 535 q 321 219 253 264 q 432 219 368 190 q 515 310 504 254 q 516 336 519 331 q 498 334 513 342 q 429 308 483 326 q 371 300 371 290 q 375 307 371 303 q 388 356 386 321 q 379 471 389 392 q 381 478 379 476 q 389 479 383 481 q 478 483 399 479 q 747 553 626 492 q 747 440 744 486 q 765 319 749 393 q 815 190 782 246 q 766 185 790 197 q 725 153 742 172 q 688 110 708 135 q 653 76 667 86 z "},"h":{"ha":650,"x_min":38,"x_max":611,"o":"m 590 72 l 554 71 q 489 61 526 71 q 431 39 451 51 q 410 33 414 29 q 406 164 407 36 q 406 318 406 292 q 403 339 404 335 q 393 343 401 343 q 349 333 383 340 q 285 319 314 326 q 251 308 256 313 q 253 188 249 304 q 261 44 257 72 q 258 34 261 36 q 242 29 256 32 q 202 32 231 28 q 145 34 174 36 q 92 13 117 32 q 61 -8 65 -8 q 58 46 57 -8 q 60 297 56 132 q 62 597 65 463 q 40 847 58 732 q 68 870 38 867 q 148 876 99 874 q 225 894 197 878 q 240 899 238 901 q 244 761 242 897 q 254 522 249 528 q 404 546 307 539 l 408 574 q 421 676 413 594 q 432 797 429 758 l 432 825 l 465 840 q 593 888 560 885 q 608 885 606 888 q 610 869 610 883 q 594 597 599 686 q 586 345 589 507 q 590 72 583 183 z "},"i":{"ha":290,"x_min":38,"x_max":253,"o":"m 240 53 q 57 1 185 50 q 64 181 58 64 q 70 351 69 297 q 70 490 71 406 q 63 649 69 575 q 42 804 56 722 q 50 819 38 815 q 116 845 65 826 q 196 879 167 864 q 219 889 215 890 q 221 874 222 888 q 242 506 238 650 q 251 72 247 361 q 240 53 253 61 z "},"j":{"ha":621,"x_min":40,"x_max":640,"o":"m 61 244 q 151 297 128 272 q 169 306 161 306 q 183 299 176 307 q 196 283 190 292 q 209 261 201 275 q 222 239 217 247 q 386 251 335 131 q 410 538 429 356 q 368 706 397 644 q 328 752 353 736 q 281 769 304 768 q 239 757 258 769 q 213 719 219 744 q 172 601 179 604 q 106 619 146 618 q 40 614 67 619 q 59 667 51 638 q 72 720 67 697 q 80 777 76 743 q 84 827 83 811 q 86 878 85 843 q 89 919 88 913 l 128 921 q 235 938 178 921 q 244 936 243 939 q 246 918 246 933 l 246 896 l 290 896 q 398 887 358 897 q 469 838 438 876 q 554 214 640 461 q 385 18 503 69 q 178 32 275 -29 q 61 244 76 94 z "},"k":{"ha":761,"x_min":40,"x_max":728,"o":"m 486 432 q 574 266 524 339 q 715 99 624 193 q 715 69 728 83 q 678 51 703 56 q 605 28 660 49 q 521 -6 550 8 q 447 147 494 51 q 351 346 400 243 q 333 335 339 339 q 314 324 326 331 q 328 207 313 321 q 351 65 344 93 q 357 32 358 39 q 296 24 335 28 q 225 13 257 19 q 161 -6 193 7 q 152 128 157 67 q 144 236 147 189 q 135 334 140 283 q 126 413 129 385 q 115 489 124 442 q 104 554 107 536 q 91 624 101 572 q 77 692 81 676 q 59 772 74 707 q 40 858 44 838 q 91 876 54 872 q 177 881 128 879 q 253 890 226 883 l 265 893 q 261 824 263 857 q 263 753 260 790 q 267 694 265 715 q 275 625 269 674 q 282 558 281 576 l 285 535 q 449 688 378 594 q 524 871 519 782 q 595 838 557 846 q 660 835 633 831 q 719 831 686 840 q 692 746 710 788 q 647 659 675 704 q 599 585 619 614 q 540 504 579 557 q 486 432 500 451 z "},"l":{"ha":733,"x_min":40,"x_max":694,"o":"m 272 915 q 243 906 263 914 q 107 881 196 886 q 94 876 97 879 q 93 861 92 874 q 135 213 146 521 q 121 197 133 203 q 81 183 108 190 q 40 171 53 175 q 58 126 43 160 q 83 58 74 92 q 90 -6 93 25 q 325 55 218 33 q 488 81 432 76 q 604 88 544 85 q 694 96 664 90 q 649 207 674 119 q 625 297 625 294 q 455 252 569 276 q 321 249 340 228 q 315 493 321 383 q 292 751 308 603 q 275 914 276 899 q 272 915 275 915 z "},"m":{"ha":758,"x_min":40,"x_max":719,"o":"m 551 8 q 540 142 551 63 q 515 267 528 221 q 473 173 506 244 q 428 72 440 101 q 388 99 410 76 q 342 158 365 122 q 299 224 318 193 q 259 293 281 254 q 231 342 238 332 q 217 209 225 303 q 200 68 208 115 q 199 42 200 56 q 192 17 197 29 q 176 6 186 6 q 153 19 167 6 q 53 67 94 58 q 69 278 67 164 q 67 477 72 392 q 52 688 61 563 q 40 883 43 813 q 92 890 63 888 q 141 893 121 893 q 197 892 161 893 q 246 892 232 892 q 306 614 271 731 q 399 369 340 497 q 453 513 433 432 q 476 654 472 593 q 488 768 481 715 q 511 838 496 821 q 578 885 533 856 q 636 924 622 914 q 648 642 640 861 q 670 293 656 424 q 719 50 685 163 q 694 27 713 38 q 652 10 675 17 q 607 -1 629 3 q 569 -1 585 -4 q 551 8 553 1 z "},"n":{"ha":675,"x_min":40,"x_max":643,"o":"m 597 36 l 572 36 q 475 26 524 33 q 413 10 426 18 q 396 3 399 0 q 304 163 379 24 q 232 339 264 238 q 219 372 224 368 q 215 304 218 375 q 210 163 211 233 q 211 60 210 93 q 210 19 214 26 q 182 18 206 13 q 110 28 150 25 q 64 28 71 31 q 49 26 57 22 q 40 885 81 369 q 53 885 46 892 q 89 874 61 876 q 163 882 117 872 q 185 888 171 885 q 238 890 228 899 q 258 818 247 881 q 265 786 263 799 q 329 544 300 633 q 426 314 358 456 q 445 499 439 414 q 453 631 451 583 q 456 758 454 678 q 458 886 457 838 q 512 890 485 889 q 577 891 539 892 q 629 890 615 890 q 619 456 642 771 q 597 36 597 140 z "},"o":{"ha":728,"x_min":36,"x_max":692,"o":"m 379 889 q 167 792 257 889 q 50 556 76 694 q 41 420 38 486 q 56 292 44 354 q 92 177 67 229 q 149 84 118 125 q 225 21 181 43 q 318 -6 269 -1 q 426 13 367 -10 q 546 83 485 35 q 675 354 635 171 q 688 477 692 414 q 671 593 685 540 q 631 711 657 646 q 534 844 592 797 q 388 889 476 892 q 379 889 385 889 m 372 701 q 376 701 375 701 q 510 599 465 704 q 535 393 554 485 q 464 236 513 288 q 340 191 394 179 q 249 253 285 203 q 197 375 213 304 q 192 510 182 446 q 256 647 207 590 q 372 701 306 703 z "},"p":{"ha":728,"x_min":40,"x_max":693,"o":"m 40 883 l 42 861 q 97 510 76 706 q 142 -3 118 314 q 240 14 183 11 q 328 13 296 17 q 372 6 361 8 q 344 128 368 54 q 314 243 319 203 l 389 246 q 551 302 483 257 q 650 410 619 347 q 686 544 681 472 q 671 682 692 617 q 605 799 650 747 q 499 871 560 851 q 269 896 389 896 q 40 883 150 896 m 322 736 q 406 724 364 736 q 482 680 447 711 q 524 604 517 649 q 519 522 529 556 q 490 468 508 488 q 436 435 471 449 q 372 417 401 422 q 294 408 342 413 q 260 540 278 408 q 249 708 242 672 q 322 736 253 736 z "},"q":{"ha":857,"x_min":39,"x_max":819,"o":"m 408 933 q 342 928 376 932 q 144 792 221 908 q 46 513 68 675 q 40 442 40 457 q 46 381 40 426 q 107 164 60 256 q 268 31 154 72 q 486 22 382 -10 l 524 36 l 538 -37 q 558 -112 551 -110 q 636 -71 565 -114 q 764 -1 707 -28 q 808 23 797 15 q 818 36 819 31 q 772 77 815 44 q 699 121 729 110 q 674 132 679 128 q 690 168 669 136 q 769 366 747 267 q 780 547 792 465 q 734 701 768 629 q 649 822 700 772 q 535 901 597 872 q 408 933 472 931 m 404 715 q 496 693 464 715 q 572 588 547 661 q 588 437 597 515 q 538 308 578 358 l 526 296 l 517 318 q 500 372 508 336 q 492 425 492 408 q 489 439 492 439 q 452 410 486 439 q 377 354 418 382 q 336 323 336 326 q 364 301 336 319 q 415 260 390 285 q 435 229 439 235 q 415 217 432 225 q 379 211 397 210 q 258 278 301 217 q 210 416 214 339 q 233 573 206 493 q 313 696 260 653 q 404 715 342 715 z "},"r":{"ha":781,"x_min":40,"x_max":743,"o":"m 315 893 q 117 871 225 892 q 40 843 72 860 q 87 401 50 657 q 164 -1 124 144 q 278 13 186 1 q 378 25 371 25 q 393 35 390 26 q 386 54 396 44 q 349 129 369 72 q 328 213 328 186 q 332 222 328 217 q 340 231 336 228 q 353 238 344 233 q 363 243 361 243 q 485 7 422 154 q 538 17 494 -6 q 643 78 581 40 q 739 129 706 117 q 741 138 742 133 q 736 142 740 142 q 665 174 699 146 q 593 247 631 203 q 539 306 556 292 l 551 325 q 653 617 644 489 q 575 819 661 744 q 315 893 489 894 m 328 733 q 437 701 386 733 q 493 615 488 668 q 442 516 497 574 q 328 425 386 458 q 268 408 271 392 q 229 599 264 461 q 240 699 210 664 q 328 733 271 733 z "},"s":{"ha":665,"x_min":25,"x_max":658,"o":"m 86 13 q 108 74 90 35 q 133 155 125 114 q 135 253 142 196 q 231 249 186 250 q 321 265 276 247 q 394 322 365 282 q 410 362 406 344 q 412 390 415 379 q 402 408 408 400 q 381 418 396 415 q 356 422 367 421 q 325 422 344 424 q 294 418 306 419 q 267 414 283 417 q 88 461 150 401 q 44 633 25 521 q 94 743 54 685 q 181 832 133 801 q 213 853 210 851 q 206 874 215 856 q 203 894 196 890 q 254 903 211 899 q 346 921 300 906 q 396 933 392 936 q 394 908 400 931 q 395 853 389 886 q 414 793 401 819 q 438 758 424 776 q 461 738 453 740 q 446 713 478 732 q 435 707 440 710 q 379 668 408 694 q 343 642 350 642 q 307 674 336 642 l 279 707 l 263 688 q 221 601 210 629 q 235 592 225 593 q 608 479 540 619 q 572 238 657 379 q 363 40 494 111 q 86 13 211 -40 z "},"t":{"ha":701,"x_min":39,"x_max":663,"o":"m 653 903 q 337 859 450 872 q 157 842 224 846 q 40 832 90 838 q 54 747 40 825 q 64 600 68 668 q 288 657 250 649 l 283 593 q 281 290 282 557 q 281 1 279 24 q 382 9 308 7 q 467 8 456 11 q 456 208 461 46 q 450 629 444 593 l 454 649 q 519 642 486 647 q 599 628 553 638 q 663 615 644 619 q 651 747 653 663 q 658 901 649 831 q 653 903 657 903 z "},"u":{"ha":656,"x_min":40,"x_max":619,"o":"m 319 0 q 247 14 279 6 q 190 39 215 22 q 144 68 164 56 q 110 111 125 81 q 85 160 94 142 q 68 225 75 179 q 57 298 61 271 q 51 388 53 325 q 47 490 49 451 q 44 608 46 528 q 40 836 43 753 q 49 906 47 904 q 139 885 81 896 q 238 865 197 874 q 282 849 278 857 q 273 757 285 843 q 249 570 261 671 q 247 372 238 469 q 296 247 257 274 q 367 236 328 228 q 431 275 406 244 q 436 644 508 389 q 429 672 433 654 q 394 797 397 778 q 399 818 390 815 q 400 819 400 819 q 435 831 411 825 q 540 882 479 840 q 572 900 571 903 q 581 839 575 881 q 597 699 592 749 q 611 555 603 649 q 617 406 619 461 q 607 273 614 350 q 578 151 600 196 q 525 65 557 107 q 440 7 493 22 q 319 0 388 -8 z "},"v":{"ha":769,"x_min":31,"x_max":735,"o":"m 728 863 q 640 728 682 829 q 568 509 599 628 q 507 275 538 390 q 438 81 476 160 q 357 -1 400 3 q 249 210 331 13 q 100 624 168 408 q 42 892 32 839 q 117 888 72 892 q 202 884 163 883 q 282 894 242 885 q 306 890 296 897 q 310 867 317 883 q 315 597 290 797 q 383 369 340 397 q 405 494 390 408 q 433 653 419 581 q 460 781 446 725 q 475 863 474 833 l 476 892 q 526 892 486 892 q 597 890 565 892 q 664 887 629 889 q 716 878 699 885 q 728 863 733 872 z "},"w":{"ha":933,"x_min":40,"x_max":896,"o":"m 889 863 q 704 142 806 590 q 625 8 671 33 q 544 154 588 69 q 479 299 500 239 q 435 213 458 260 q 401 143 413 165 q 369 84 390 121 q 319 0 349 47 q 254 58 283 -1 q 203 219 225 117 q 159 433 181 321 q 106 674 138 544 q 40 890 75 804 q 199 874 96 876 q 232 841 215 868 q 263 774 249 814 q 289 686 276 733 q 311 592 301 639 q 328 508 321 546 q 342 448 336 471 q 351 425 349 425 q 406 565 372 443 q 456 676 435 674 q 471 669 464 676 q 510 612 481 658 q 565 533 539 565 q 610 497 590 500 q 618 615 611 535 q 626 731 625 696 q 622 851 628 765 q 645 865 626 863 q 684 865 664 867 q 719 868 704 863 q 767 874 731 871 q 833 881 803 876 q 878 892 864 886 q 893 892 890 896 q 892 876 896 888 q 889 863 889 864 z "},"x":{"ha":885,"x_min":40,"x_max":846,"o":"m 203 917 q 200 917 201 917 q 40 760 126 865 q 317 515 175 699 q 150 243 214 364 q 106 111 86 122 q 200 60 168 83 q 256 -7 232 38 q 443 329 383 232 q 631 -7 503 232 q 686 60 654 38 q 781 111 718 83 q 736 243 800 122 q 569 515 672 364 q 846 760 711 699 q 686 917 760 865 q 443 693 622 925 q 203 917 268 919 z "},"y":{"ha":757,"x_min":40,"x_max":718,"o":"m 522 472 q 550 422 524 468 q 588 344 576 375 q 588 304 600 313 q 572 288 579 297 q 558 268 565 279 q 547 249 551 257 q 534 228 542 242 q 522 208 526 214 q 501 226 511 214 q 478 261 492 239 q 460 290 465 283 q 432 176 444 274 q 418 11 419 78 q 310 19 388 24 q 179 -10 232 14 q 233 230 186 72 q 289 439 279 388 q 209 515 257 467 q 120 600 161 563 q 40 665 79 638 q 81 758 68 719 q 95 822 93 797 q 101 919 97 846 q 135 910 118 922 q 171 878 151 899 q 200 850 190 857 q 234 815 214 842 q 274 757 254 788 q 311 697 293 726 q 343 648 329 667 q 360 632 357 629 q 435 772 381 665 q 528 932 490 879 q 535 940 531 935 q 543 947 540 944 q 550 952 546 950 q 558 951 554 954 q 565 943 561 949 q 607 913 582 926 q 669 885 632 900 q 717 864 706 869 q 650 744 694 817 q 572 606 606 672 q 522 472 538 539 z "},"z":{"ha":871,"x_min":40,"x_max":833,"o":"m 350 217 q 507 238 381 217 q 668 257 633 260 q 617 177 635 224 q 595 94 599 131 q 585 28 592 57 q 567 -7 579 -1 q 310 17 507 14 q 40 1 113 21 q 236 392 118 196 q 478 711 354 588 q 421 737 467 735 q 319 728 375 739 q 207 702 263 717 q 115 678 151 688 q 78 675 78 669 q 98 781 101 750 q 87 840 94 813 q 85 886 79 867 q 438 904 154 906 q 831 857 811 904 q 828 843 833 850 q 669 658 797 806 q 463 406 542 511 q 350 217 385 300 z "},"{":{"ha":526,"x_min":38,"x_max":492,"o":"m 89 693 q 99 645 92 675 q 113 594 107 615 q 121 548 118 574 q 120 503 124 522 q 103 468 117 485 q 67 442 90 451 q 40 415 38 432 q 60 406 42 406 q 115 360 96 394 q 137 283 135 326 q 138 188 139 239 q 134 90 138 136 q 139 7 131 44 q 193 -83 156 -53 q 276 -107 231 -112 q 364 -77 321 -101 q 440 -4 407 -53 q 481 101 472 44 q 485 151 490 154 q 482 149 483 151 q 390 58 436 79 q 313 74 344 36 q 281 201 282 111 q 278 233 279 218 q 275 259 276 247 q 270 284 274 271 q 265 305 267 297 q 257 325 263 313 q 249 343 251 338 q 240 362 247 349 q 230 378 232 375 q 218 398 228 382 q 206 417 208 414 q 225 483 222 456 q 224 563 228 510 q 222 661 221 617 q 215 727 221 686 q 206 795 210 768 q 206 854 203 822 q 222 904 208 886 q 267 934 236 922 q 349 943 299 946 q 400 954 389 944 q 393 985 411 964 q 295 1047 346 1038 q 205 1025 244 1056 q 135 944 165 994 q 93 825 106 893 q 89 693 81 757 z "},"|":{"ha":189,"x_min":39,"x_max":153,"o":"m 43 36 q 40 900 60 367 q 65 917 40 913 q 115 916 90 922 q 140 897 140 910 q 150 51 126 307 q 125 24 153 35 q 69 17 97 14 q 43 36 42 21 z "},"}":{"ha":526,"x_min":36,"x_max":490,"o":"m 438 693 q 427 645 435 675 q 415 594 419 615 q 407 548 410 574 q 408 503 404 522 q 424 468 411 485 q 460 442 436 451 q 486 415 489 432 q 468 406 485 406 q 412 360 431 394 q 391 283 393 326 q 390 188 389 239 q 393 90 390 136 q 388 7 396 44 q 334 -83 372 -53 q 251 -107 296 -112 q 163 -77 207 -101 q 87 -4 119 -53 q 46 101 54 44 q 42 151 36 154 q 44 149 43 151 q 136 58 90 79 q 213 74 182 36 q 247 201 244 111 q 249 233 247 218 q 251 259 250 247 q 257 284 253 271 q 263 305 261 297 q 270 325 264 313 q 278 343 276 338 q 288 362 281 349 q 298 378 296 375 q 310 398 300 382 q 321 417 319 414 q 301 483 304 456 q 302 563 299 510 q 306 661 306 617 q 313 727 307 686 q 322 795 318 768 q 322 854 325 822 q 305 904 318 886 q 260 934 292 922 q 179 943 228 946 q 126 954 138 944 q 133 985 115 964 q 232 1047 182 1038 q 322 1025 282 1056 q 392 944 361 994 q 435 825 422 893 q 438 693 447 757 z "},"~":{"ha":613,"x_min":40,"x_max":575,"o":"m 558 425 q 486 338 525 363 q 410 320 447 313 q 334 348 372 328 q 258 390 296 368 q 185 421 219 411 q 115 409 150 431 q 51 329 79 388 q 40 492 42 443 q 83 554 53 519 q 146 579 111 579 q 217 565 181 579 q 292 530 253 550 q 368 497 331 510 q 441 483 406 483 q 510 510 476 482 q 568 600 543 539 q 572 581 574 611 q 563 481 571 556 q 558 425 558 433 z "},"¡":{"ha":472,"x_min":35,"x_max":433,"o":"m 194 21 q 43 29 76 21 q 50 60 35 31 q 83 151 68 101 q 106 241 97 201 q 124 344 115 281 q 135 439 132 407 q 144 544 138 471 q 154 642 151 618 q 324 644 265 607 q 337 499 332 590 q 346 342 342 407 q 372 191 350 278 q 433 31 393 104 q 194 21 350 19 m 242 686 q 167 717 196 688 q 138 803 138 747 q 165 881 139 853 q 236 910 192 908 q 331 880 304 908 q 358 797 358 851 q 326 722 360 754 q 242 686 292 690 z "},"¢":{"ha":583,"x_min":39,"x_max":549,"o":"m 185 894 q 189 842 185 879 q 200 760 193 806 q 207 710 207 715 q 114 642 154 693 q 56 522 74 590 q 40 384 39 454 q 73 253 42 314 q 160 165 104 193 q 185 156 167 163 q 215 146 204 150 q 235 129 226 142 q 243 100 244 117 q 247 50 246 83 q 250 1 249 17 q 305 18 285 13 q 358 20 325 24 q 417 -4 392 17 q 407 74 415 24 q 397 138 399 124 q 543 313 546 190 q 524 349 547 336 q 479 335 501 363 q 265 258 356 203 q 194 393 204 297 q 240 546 183 493 q 324 578 274 578 q 362 562 339 581 q 408 517 385 543 q 440 485 431 490 q 460 497 453 483 q 467 534 467 510 q 467 580 468 558 q 465 626 467 601 q 463 656 463 651 q 347 717 390 713 q 350 774 349 732 q 352 842 351 817 q 348 896 353 868 q 333 933 343 924 q 266 913 321 932 q 185 894 211 893 z "},"£":{"ha":661,"x_min":39,"x_max":622,"o":"m 453 915 q 274 858 350 915 q 157 706 197 800 q 106 489 117 613 q 47 496 75 492 q 40 458 42 497 q 43 379 39 418 q 53 344 47 340 q 101 357 76 353 q 163 25 108 188 q 538 15 450 43 q 578 113 553 57 q 621 190 603 168 q 594 190 621 190 q 526 188 568 189 q 434 185 485 186 q 337 183 383 183 q 254 183 290 182 q 229 368 229 257 q 374 358 278 367 q 380 394 378 358 q 381 465 382 429 q 375 500 379 500 q 236 486 300 490 q 264 610 246 556 q 379 703 293 676 q 529 708 465 731 q 557 900 553 826 q 453 915 503 914 z "},"¤":{"ha":518,"x_min":39,"x_max":483,"o":"m 371 742 q 371 736 369 742 q 369 730 371 733 q 368 724 367 726 q 367 720 369 722 q 365 711 365 718 q 346 656 363 688 q 272 675 314 674 q 157 639 199 672 q 131 688 138 667 q 126 697 129 696 q 125 701 124 699 q 124 706 126 703 q 121 713 121 708 q 118 715 122 718 q 85 685 113 713 q 44 643 51 651 q 41 634 39 636 q 57 629 43 632 q 76 622 68 626 q 86 617 83 618 q 122 597 104 610 q 101 499 101 558 q 136 356 106 401 q 107 335 122 343 q 98 327 104 333 q 82 318 92 321 q 65 310 67 313 q 71 303 64 308 q 118 267 79 294 q 158 242 158 238 q 158 246 158 243 q 159 252 157 249 q 160 258 161 256 q 160 262 158 260 q 164 271 163 264 q 178 317 165 290 q 265 293 211 297 q 365 331 326 293 q 382 303 375 317 q 388 293 383 300 q 396 275 393 286 q 401 260 400 261 q 410 264 403 258 q 450 307 418 271 q 478 344 482 344 q 474 344 476 344 q 467 347 471 344 q 462 349 464 350 q 458 349 460 347 q 449 353 457 351 q 399 375 428 357 q 426 497 424 426 q 388 622 429 572 q 421 647 404 638 q 430 656 424 650 q 447 664 436 661 q 463 672 461 669 q 457 681 464 674 q 411 715 450 688 q 371 742 375 742 m 269 597 q 337 566 313 597 q 360 493 361 535 q 356 458 360 475 q 342 419 351 440 q 313 384 333 397 q 265 372 293 371 q 192 405 213 376 q 168 493 171 433 q 269 597 168 594 z "},"¥":{"ha":765,"x_min":40,"x_max":726,"o":"m 561 919 q 557 919 560 919 q 483 770 540 888 q 404 613 426 653 q 307 767 367 661 q 219 913 247 872 q 181 905 201 913 q 147 891 161 897 q 105 888 133 885 q 40 908 76 890 q 331 422 135 736 q 228 432 275 425 q 219 397 221 433 q 222 326 218 361 q 233 294 226 292 q 340 313 281 308 q 343 269 342 308 q 228 279 279 271 q 219 244 221 281 q 222 174 218 208 q 233 142 226 139 q 349 161 283 156 q 354 22 353 64 q 381 19 363 21 q 406 17 400 17 q 426 17 413 17 q 451 19 439 17 q 478 25 463 21 q 479 163 479 108 q 600 156 519 161 q 608 188 606 156 q 609 251 611 219 q 601 282 607 283 q 478 272 536 275 q 478 290 478 275 q 478 315 478 306 q 600 308 519 314 q 608 340 606 307 q 609 403 611 372 q 601 435 607 435 q 481 425 538 428 q 602 666 524 513 q 726 914 681 819 q 673 893 699 896 q 630 897 647 890 q 593 912 613 904 q 561 919 574 919 z "},"¦":{"ha":189,"x_min":39,"x_max":153,"o":"m 85 918 q 40 900 40 918 q 49 572 46 725 q 133 572 93 572 q 140 897 135 685 q 124 914 140 908 q 85 918 107 919 m 135 386 q 50 385 93 386 q 43 36 50 190 q 69 17 42 21 q 125 24 97 14 q 150 51 153 35 q 135 386 136 190 z "},"§":{"ha":599,"x_min":40,"x_max":560,"o":"m 333 915 q 205 894 264 917 q 108 828 146 871 q 56 724 69 785 q 65 585 43 663 q 76 545 76 563 q 63 486 75 528 q 59 444 60 464 q 62 409 58 425 q 70 380 65 393 q 84 356 75 367 q 103 337 93 346 q 128 321 113 328 q 157 308 143 314 q 190 297 171 303 q 228 288 210 292 q 269 279 246 283 q 356 179 401 246 q 309 154 342 158 q 242 160 276 150 q 181 197 208 171 q 147 257 153 224 q 126 243 142 272 q 65 160 89 178 q 40 147 53 150 q 82 78 42 115 q 171 28 122 42 q 274 10 226 10 q 361 27 322 11 q 430 69 400 43 q 479 126 460 94 q 509 191 499 158 q 519 255 519 224 q 507 308 518 286 q 453 364 486 346 l 463 428 q 428 556 474 499 q 318 633 382 613 q 242 658 271 644 q 202 688 213 672 q 190 717 192 703 q 199 746 189 732 q 219 770 208 760 q 242 789 229 781 q 367 785 294 826 q 476 676 440 743 q 489 688 481 669 q 507 740 493 699 q 560 853 540 850 q 517 880 558 864 q 417 907 475 896 q 333 915 375 915 m 239 518 q 265 515 247 518 q 315 501 303 507 q 333 452 332 493 q 318 399 335 411 q 272 404 310 392 q 221 432 235 417 q 204 472 206 449 q 217 510 203 496 q 239 518 226 518 z "},"¨":{"ha":346,"x_min":39,"x_max":307,"o":"m 94 903 q 55 886 69 901 q 40 843 40 871 q 92 789 42 790 q 140 803 126 789 q 154 846 153 818 q 137 883 154 867 q 94 903 119 900 m 246 903 q 207 886 222 901 q 192 843 192 871 q 243 789 194 790 q 292 803 278 789 q 306 846 306 818 q 289 883 306 867 q 246 903 272 900 z "},"©":{"ha":700,"x_min":36,"x_max":664,"o":"m 365 807 q 161 728 247 807 q 49 535 75 649 q 41 425 38 479 q 55 320 44 371 q 90 227 65 269 q 144 151 114 185 q 217 99 175 118 q 306 77 260 81 q 409 92 353 74 q 524 150 465 110 q 649 371 610 222 q 660 471 664 419 q 644 565 657 522 q 606 661 631 608 q 513 770 568 732 q 374 806 458 808 q 365 807 369 807 m 379 742 q 556 619 496 740 q 596 499 588 551 q 590 374 604 446 q 490 188 558 247 q 320 124 394 121 q 196 181 246 128 q 122 316 146 235 q 103 488 99 397 q 132 603 106 551 q 199 683 158 654 q 283 727 239 713 q 369 742 326 742 q 379 742 374 742 m 368 683 q 310 669 325 683 q 314 657 310 663 q 312 652 317 653 q 290 647 307 651 q 256 632 274 642 q 194 547 215 603 q 176 431 172 492 q 198 314 179 369 q 260 226 217 258 q 358 200 303 193 q 511 346 486 217 q 506 382 517 382 q 496 371 501 382 q 413 308 456 322 q 339 315 369 294 q 288 369 308 335 q 271 450 268 403 q 301 536 274 497 q 325 557 325 569 q 342 490 326 538 q 369 501 353 494 q 394 510 386 507 q 410 517 401 513 q 424 524 419 521 q 433 532 429 528 q 393 676 404 629 q 368 683 390 685 z "},"ª":{"ha":275,"x_min":40,"x_max":236,"o":"m 83 910 q 40 574 43 799 q 74 581 57 582 q 104 572 92 579 q 107 603 107 582 q 107 633 107 624 q 126 678 113 676 q 154 654 147 679 q 160 627 156 647 q 167 592 164 607 q 171 576 169 576 q 235 613 189 608 q 165 867 196 765 q 147 899 158 888 q 129 912 136 910 q 106 915 122 914 q 83 910 88 917 m 118 814 q 135 786 128 814 q 146 754 139 772 q 151 729 154 729 q 104 731 128 747 q 104 768 101 733 q 110 810 107 803 q 118 814 114 814 z "},"«":{"ha":783,"x_min":40,"x_max":744,"o":"m 408 867 q 385 853 399 867 q 336 792 372 839 q 129 558 242 671 q 40 453 40 471 q 78 418 40 447 q 267 247 147 364 q 414 100 386 129 q 499 194 460 147 q 403 281 499 204 q 288 387 360 315 q 217 468 217 458 q 304 575 217 479 q 460 765 344 619 q 492 810 492 804 q 461 836 492 814 q 417 864 431 858 q 408 867 413 867 m 654 867 q 632 853 646 867 q 582 792 618 839 q 375 558 488 671 q 286 453 286 471 q 324 418 286 447 q 513 247 393 364 q 660 100 633 131 q 744 194 706 147 q 650 281 744 204 q 534 387 606 315 q 463 468 463 458 q 550 575 463 479 q 707 765 590 619 q 738 810 738 804 q 707 836 738 814 q 664 864 676 858 q 654 867 658 867 z "},"¬":{"ha":768,"x_min":38,"x_max":729,"o":"m 56 565 q 41 531 43 567 q 47 459 39 494 q 65 428 54 424 q 608 443 249 457 q 601 313 610 399 q 633 307 600 308 q 697 307 665 306 q 729 311 729 308 q 725 564 704 467 q 388 566 639 568 q 56 565 138 564 z "},"­":{"ha":501,"x_min":39,"x_max":464,"o":"m 50 561 q 454 564 204 542 q 462 535 460 565 q 461 474 464 504 q 453 443 458 443 q 256 451 375 451 q 57 431 136 450 q 44 461 49 428 q 40 528 39 494 q 50 561 42 563 z "},"®":{"ha":582,"x_min":31,"x_max":547,"o":"m 303 765 q 138 703 208 767 q 47 546 68 639 q 52 373 31 457 q 125 236 74 289 q 255 176 176 183 q 432 235 333 169 q 532 414 500 293 q 538 533 546 483 q 497 649 529 583 q 310 765 435 768 q 303 765 307 765 m 314 714 q 457 614 408 713 q 485 417 507 506 q 404 265 460 314 q 266 215 326 213 q 166 260 206 217 q 107 369 126 304 q 90 508 88 435 q 131 625 94 576 q 213 694 167 674 q 307 714 260 714 q 314 714 311 714 m 271 663 q 190 654 235 663 q 158 643 172 650 q 178 462 163 567 q 210 297 193 357 q 297 308 275 308 q 303 313 303 310 q 300 321 304 317 q 285 351 293 328 q 276 385 276 375 q 290 399 276 389 q 340 301 315 361 q 362 306 344 296 q 405 331 379 315 q 444 351 431 346 q 445 354 446 353 q 443 356 444 356 q 414 369 428 358 q 385 399 400 381 q 363 424 369 418 l 368 432 q 402 597 426 531 q 271 663 378 664 m 276 599 q 321 585 300 599 q 344 550 342 571 q 323 510 346 533 q 276 472 300 486 q 253 465 253 458 q 236 543 250 488 q 240 583 228 569 q 276 599 253 597 z "},"¯":{"ha":585,"x_min":38,"x_max":547,"o":"m 51 865 q 535 868 236 840 q 544 833 542 869 q 543 760 546 796 q 533 724 540 724 q 298 733 440 733 q 60 708 156 732 q 44 745 50 706 q 40 826 39 785 q 51 865 42 867 z "},"°":{"ha":272,"x_min":39,"x_max":235,"o":"m 142 903 q 40 797 40 899 q 64 709 43 738 q 138 676 85 681 q 185 689 165 676 q 215 723 206 701 q 228 762 224 744 q 232 797 232 779 q 209 871 233 840 q 142 903 185 901 m 139 847 q 174 831 161 846 q 185 794 186 815 q 181 769 185 781 q 167 744 178 757 q 136 733 156 732 q 100 749 111 735 q 88 794 89 764 q 139 847 88 844 z "},"±":{"ha":504,"x_min":39,"x_max":467,"o":"m 238 747 q 193 739 193 747 q 201 585 200 657 q 50 593 117 585 q 40 566 42 594 q 44 510 39 538 q 56 485 49 482 q 203 500 118 497 q 196 342 203 410 q 223 332 194 333 q 278 335 251 331 q 303 347 306 340 q 288 501 290 413 q 446 496 342 500 q 455 520 453 494 q 455 571 457 546 q 447 594 453 596 q 288 586 361 589 q 293 738 288 638 q 238 747 293 749 m 457 297 q 58 294 210 278 q 49 268 51 296 q 52 213 47 240 q 65 188 57 185 q 456 197 183 211 q 464 222 461 197 q 465 272 467 247 q 457 297 463 297 z "},"²":{"ha":271,"x_min":40,"x_max":232,"o":"m 231 578 q 144 585 197 585 q 64 578 92 585 q 64 632 63 610 q 116 693 72 647 q 164 765 160 739 q 140 811 171 814 q 92 775 111 810 q 86 761 88 768 q 68 760 71 726 q 40 824 64 793 q 90 895 60 872 q 146 914 119 918 q 192 884 172 910 q 213 819 213 858 q 210 785 213 801 q 206 756 208 768 q 195 728 203 744 q 184 706 188 713 q 170 683 181 700 q 156 660 160 665 q 185 659 168 658 q 214 660 203 660 q 232 657 225 660 q 231 578 225 618 z "},"³":{"ha":244,"x_min":39,"x_max":231,"o":"m 68 622 q 58 660 58 654 q 71 647 61 657 q 89 636 81 638 q 136 657 119 619 q 133 704 153 690 q 121 708 129 707 q 101 708 107 706 q 106 715 99 711 q 124 724 117 715 q 131 743 131 732 q 110 784 126 774 q 76 787 93 794 q 50 760 58 779 q 40 849 42 786 q 46 914 39 913 q 181 867 133 925 q 185 732 229 808 q 179 724 182 728 q 179 718 176 719 q 188 707 183 714 q 188 608 224 658 q 115 575 157 567 q 68 622 85 583 z "},"´":{"ha":317,"x_min":40,"x_max":278,"o":"m 50 679 l 40 663 l 89 661 l 138 658 l 207 778 l 276 897 q 234 901 260 900 q 178 901 208 903 q 142 893 147 900 q 50 679 103 779 z "},"µ":{"ha":699,"x_min":40,"x_max":663,"o":"m 142 749 q 60 743 71 749 l 40 736 l 54 719 q 81 583 71 665 q 94 437 90 500 q 94 244 97 374 q 90 66 92 115 q 82 -137 89 17 l 143 -135 q 224 -139 201 -131 q 248 -145 246 -147 q 240 -46 250 -143 q 231 42 233 13 q 228 91 229 72 q 229 114 228 110 q 235 117 231 118 q 350 91 271 90 q 464 111 429 92 l 460 21 q 499 33 461 33 q 567 28 536 33 q 604 29 599 24 q 591 378 581 176 q 638 682 601 581 q 658 736 661 731 q 600 741 657 739 q 487 742 543 743 q 431 738 431 742 q 447 647 431 732 q 453 599 449 639 q 459 538 457 558 q 465 469 461 517 q 470 397 469 421 q 473 328 471 374 q 472 265 475 282 q 348 248 433 246 q 231 265 263 250 q 244 449 232 281 q 278 700 256 617 q 282 736 286 732 q 234 744 278 740 q 142 749 190 749 z "},"¶":{"ha":864,"x_min":39,"x_max":825,"o":"m 281 450 q 288 336 292 404 q 278 227 285 268 q 261 119 272 186 q 246 11 250 53 q 311 33 274 29 q 381 33 349 36 q 418 31 413 29 q 385 358 394 174 q 382 688 375 542 q 454 690 392 688 q 540 694 517 693 q 544 369 546 519 q 529 18 542 219 q 615 56 561 49 q 707 43 669 63 q 661 656 663 268 q 672 674 663 669 q 696 676 682 679 q 724 669 710 674 q 754 660 739 665 q 775 653 769 654 q 774 689 776 676 q 776 722 772 701 q 779 751 779 742 q 785 777 779 760 q 792 801 790 794 q 799 824 793 808 q 808 844 806 839 q 816 863 810 849 q 825 881 822 876 q 597 905 717 899 q 352 899 478 911 q 154 851 226 886 q 40 643 42 785 q 103 456 39 531 q 243 421 167 379 q 281 450 261 432 z "},"·":{"ha":222,"x_min":39,"x_max":183,"o":"m 104 419 q 58 438 75 419 q 40 488 42 456 q 59 542 40 524 q 108 561 78 561 q 162 539 140 560 q 182 490 183 518 q 165 438 182 456 q 104 419 147 419 z "},"¸":{"ha":300,"x_min":39,"x_max":264,"o":"m 258 -29 q 247 -57 257 -36 q 226 -84 239 -75 q 185 -103 214 -93 q 122 -111 158 -111 q 74 -106 85 -111 q 46 -71 54 -96 q 42 -48 43 -67 q 40 -15 40 -29 q 40 3 39 0 q 60 -15 43 3 q 121 -50 89 -47 q 160 -44 144 -53 q 179 -19 176 -36 q 175 -1 182 -8 q 125 8 158 11 q 96 10 103 7 l 88 14 l 93 22 q 113 58 99 32 q 142 103 128 83 l 154 124 l 171 124 q 246 118 246 122 q 232 101 246 115 q 204 57 196 60 q 221 53 208 57 q 243 39 232 50 q 257 17 254 28 q 258 -29 263 -3 z "},"¹":{"ha":196,"x_min":40,"x_max":157,"o":"m 94 586 q 88 754 93 647 q 53 733 57 732 q 53 758 53 743 q 54 781 54 774 q 51 799 54 789 q 40 819 47 810 q 151 922 97 844 q 154 751 153 872 q 157 585 156 631 q 94 586 111 592 z "},"º":{"ha":304,"x_min":39,"x_max":267,"o":"m 158 928 q 40 769 40 922 q 68 635 43 678 q 153 585 93 592 q 210 604 186 585 q 244 656 233 624 q 259 715 254 688 q 264 769 264 742 q 238 881 267 833 q 158 928 208 928 m 156 844 q 195 819 181 843 q 208 764 210 796 q 205 725 208 743 q 188 689 201 707 q 153 671 175 671 q 110 696 122 674 q 96 764 97 718 q 156 844 96 842 z "},"»":{"ha":783,"x_min":40,"x_max":744,"o":"m 376 867 q 399 853 386 867 q 449 792 413 839 q 656 558 543 671 q 744 453 744 471 q 707 418 744 447 q 517 247 638 364 q 371 100 397 129 q 286 194 325 147 q 382 281 286 204 q 497 387 425 315 q 568 468 568 458 q 481 575 568 479 q 324 765 440 619 q 293 810 293 804 q 324 836 293 814 q 367 864 354 858 q 376 867 372 867 m 131 867 q 152 853 139 867 q 203 792 165 839 q 410 558 297 671 q 499 453 499 471 q 461 418 499 447 q 272 247 392 364 q 125 100 151 129 q 40 194 78 147 q 135 281 40 204 q 249 387 178 315 q 321 468 321 458 q 235 575 321 479 q 78 765 194 619 q 47 810 47 804 q 78 836 47 814 q 121 864 108 858 q 131 867 126 867 z "},"¼":{"ha":819,"x_min":40,"x_max":781,"o":"m 657 913 q 582 906 590 913 q 107 42 478 728 q 89 19 89 22 q 207 15 89 15 q 268 16 247 15 q 302 17 289 17 q 319 19 315 18 q 322 24 322 21 q 378 244 339 133 q 472 456 417 356 q 573 632 526 557 q 678 792 619 707 q 758 911 738 878 q 712 912 747 911 q 657 913 676 913 m 215 908 q 40 746 131 786 q 56 714 51 731 q 62 686 61 697 q 61 650 63 675 q 61 611 60 625 q 115 643 65 607 q 126 376 125 474 q 145 382 136 381 q 167 383 154 383 q 185 381 179 382 q 206 378 190 381 q 225 375 222 375 q 221 639 224 447 q 215 908 218 831 m 588 558 q 543 441 564 490 q 510 367 522 392 q 474 294 499 342 q 431 207 449 246 q 499 209 453 207 q 588 211 546 211 q 661 206 631 211 q 653 115 661 175 q 646 24 644 54 q 703 23 657 24 q 757 22 749 22 q 781 314 756 171 q 722 318 767 318 q 664 315 678 318 q 661 308 661 311 q 664 292 661 304 q 667 278 667 281 q 606 286 643 278 q 638 347 621 314 q 676 422 656 379 q 710 489 697 465 q 639 522 682 490 q 588 558 596 554 z "},"½":{"ha":847,"x_min":40,"x_max":808,"o":"m 657 913 q 582 906 590 913 q 107 42 478 728 q 89 19 89 22 q 207 15 89 15 q 268 16 247 15 q 302 17 289 17 q 319 19 315 18 q 322 24 322 21 q 378 244 339 133 q 472 456 417 356 q 573 632 526 557 q 678 792 619 707 q 758 911 738 878 q 712 912 747 911 q 657 913 676 913 m 215 908 q 40 746 131 786 q 56 714 51 731 q 62 686 61 697 q 61 650 63 675 q 61 611 60 625 q 115 643 65 607 q 126 376 125 472 q 145 382 136 381 q 167 383 154 383 q 185 381 179 382 q 206 378 190 381 q 225 375 222 375 q 221 639 224 447 q 215 908 218 831 m 663 550 q 577 516 619 551 q 506 408 535 481 q 551 308 543 361 q 578 310 554 256 q 640 383 594 360 q 700 364 688 406 q 701 315 706 346 q 664 246 696 283 q 594 169 632 208 q 544 106 557 131 q 543 19 542 71 q 671 32 588 32 q 807 19 754 32 q 808 146 799 83 q 779 151 797 150 q 735 150 761 151 q 689 149 708 149 q 711 185 694 157 q 733 223 728 213 q 751 259 739 233 q 767 302 763 285 q 775 347 771 319 q 779 403 779 374 q 744 509 778 468 q 663 550 710 550 z "},"¾":{"ha":860,"x_min":38,"x_max":821,"o":"m 82 915 q 49 914 65 915 q 40 811 38 911 q 56 669 43 711 q 96 711 68 699 q 150 707 124 724 q 182 643 176 690 q 171 613 182 625 q 143 599 160 600 q 151 586 122 588 q 168 588 161 586 q 201 543 203 586 q 168 475 201 497 q 117 475 144 460 q 89 492 104 476 q 68 511 74 508 q 71 492 68 501 q 78 470 74 483 q 85 451 83 457 q 194 378 122 364 q 283 449 253 388 q 274 586 322 521 q 267 595 271 592 q 262 600 264 599 q 258 603 260 601 q 256 606 257 606 q 256 607 256 606 q 258 610 257 608 q 263 616 260 611 q 269 626 267 621 q 297 770 311 706 q 222 876 282 835 q 82 915 163 917 m 664 913 q 589 906 597 913 q 114 42 485 728 q 96 19 96 22 q 214 15 96 15 q 274 16 253 15 q 309 17 296 17 q 326 19 322 18 q 329 24 329 21 q 385 244 346 133 q 478 456 424 356 q 580 632 533 557 q 685 792 626 707 q 765 911 744 878 q 718 912 754 911 q 664 913 682 913 m 626 558 q 583 441 603 490 q 550 367 563 392 q 513 294 538 342 q 469 207 489 246 q 538 209 492 207 q 627 211 585 211 q 700 206 669 211 q 692 115 701 175 q 685 24 683 54 q 742 23 696 24 q 796 22 789 22 q 819 314 794 171 q 763 318 807 318 q 703 315 718 318 q 701 308 701 311 q 703 292 700 304 q 706 278 706 281 q 644 286 682 278 q 678 347 661 314 q 716 422 694 379 q 749 489 738 465 q 678 522 721 490 q 626 558 636 554 z "},"¿":{"ha":754,"x_min":33,"x_max":715,"o":"m 286 21 q 467 58 376 21 q 627 172 557 96 q 714 342 697 247 q 613 424 651 363 q 569 563 574 485 q 558 575 568 574 q 540 565 549 576 q 511 469 532 556 q 415 282 508 336 q 296 271 351 244 q 258 367 239 297 q 308 450 271 406 q 363 564 340 483 q 385 685 385 644 q 146 681 297 646 q 142 681 143 682 q 139 674 140 679 q 138 661 138 669 q 138 642 138 653 q 119 495 139 582 q 68 371 99 408 q 46 319 58 360 q 47 185 33 243 q 97 91 61 126 q 180 38 132 56 q 286 21 228 21 m 254 706 q 331 737 301 707 q 360 821 360 767 q 331 900 357 872 q 260 929 306 928 q 165 899 192 928 q 138 817 139 871 q 171 742 138 774 q 254 706 204 710 z "},"À":{"ha":596,"x_min":40,"x_max":557,"o":"m 172 1108 q 90 1099 90 1108 q 112 1063 104 1076 q 124 1040 119 1049 q 140 1006 128 1031 q 167 947 151 981 l 168 947 q 308 947 257 963 q 194 1108 251 1018 q 172 1108 183 1108 m 207 915 q 154 900 163 915 q 40 8 49 606 q 98 27 63 25 q 163 23 133 29 q 211 6 192 17 q 217 87 217 32 q 218 167 217 142 q 269 286 232 282 q 342 224 322 288 q 357 151 347 204 q 375 58 367 99 q 386 17 383 17 q 556 113 435 103 q 372 786 453 515 q 344 845 360 821 q 317 882 329 869 q 283 902 306 894 q 251 910 261 910 q 214 914 242 911 q 207 915 211 915 m 244 647 q 247 647 246 647 q 272 631 263 646 q 292 574 281 615 q 319 486 303 538 q 333 422 342 422 q 270 445 303 446 q 208 424 238 444 q 209 525 201 432 q 226 636 217 618 q 244 647 233 647 z "},"Á":{"ha":596,"x_min":40,"x_max":557,"o":"m 292 1108 q 269 1108 281 1108 q 156 947 213 1018 q 297 947 200 961 q 324 1006 313 981 q 340 1040 336 1031 q 352 1063 344 1049 q 374 1099 360 1076 q 292 1108 374 1108 m 207 915 q 154 900 163 915 q 40 8 49 606 q 98 27 63 25 q 163 23 133 29 q 211 6 192 17 q 217 87 217 32 q 218 167 217 142 q 269 286 232 282 q 342 224 322 288 q 357 151 347 204 q 375 58 367 99 q 386 17 383 17 q 556 113 435 103 q 372 786 453 515 q 344 845 360 821 q 317 882 329 869 q 283 902 306 894 q 251 910 261 910 q 214 914 242 911 q 207 915 211 915 m 244 647 q 247 647 246 647 q 272 631 263 646 q 292 574 281 615 q 319 486 303 538 q 333 422 342 422 q 270 445 303 446 q 208 424 238 444 q 209 525 201 432 q 226 636 217 618 q 244 647 233 647 z "},"Â":{"ha":596,"x_min":40,"x_max":557,"o":"m 181 1124 q 96 947 154 1076 q 190 943 107 947 q 197 963 192 944 q 211 1005 203 981 q 224 1040 219 1029 q 244 994 229 1029 q 263 947 258 960 q 357 947 336 944 q 268 1122 349 963 q 181 1124 204 1124 m 207 915 q 154 900 163 915 q 40 8 49 606 q 98 27 63 25 q 163 23 133 29 q 211 6 192 17 q 217 87 217 32 q 218 167 217 142 q 269 286 232 282 q 342 224 322 288 q 357 151 347 204 q 375 58 367 99 q 386 17 383 17 q 556 113 435 103 q 372 786 453 515 q 344 845 360 821 q 317 882 329 869 q 283 902 306 894 q 251 910 261 910 q 214 914 242 911 q 207 915 211 915 m 244 647 q 247 647 246 647 q 272 631 263 646 q 292 574 281 615 q 319 486 303 538 q 333 422 342 422 q 270 445 303 446 q 208 424 238 444 q 209 525 201 432 q 226 636 217 618 q 244 647 233 647 z "},"Ã":{"ha":596,"x_min":40,"x_max":557,"o":"m 357 1083 q 329 1067 331 1082 q 300 1026 321 1036 q 257 1036 279 1017 q 200 1081 231 1071 q 141 1064 169 1090 q 103 974 113 1038 q 119 953 106 963 q 143 944 132 944 q 158 950 154 943 q 182 988 169 979 q 208 991 194 997 q 234 974 221 985 q 263 954 247 964 q 290 944 278 944 q 401 1060 368 950 q 385 1077 399 1071 q 357 1083 372 1083 m 207 915 q 154 900 163 915 q 40 8 49 606 q 98 27 63 25 q 163 23 133 29 q 211 6 192 17 q 217 87 217 32 q 218 167 217 142 q 269 286 232 282 q 342 224 322 288 q 357 151 347 204 q 375 58 367 99 q 386 17 383 17 q 556 113 435 103 q 372 786 453 515 q 344 845 360 821 q 317 882 329 869 q 283 902 306 894 q 251 910 261 910 q 214 914 242 911 q 207 915 211 915 m 244 647 q 247 647 246 647 q 272 631 263 646 q 292 574 281 615 q 319 486 303 538 q 333 422 342 422 q 270 445 303 446 q 208 424 238 444 q 209 525 201 432 q 226 636 217 618 q 244 647 233 647 z "},"Ä":{"ha":596,"x_min":40,"x_max":557,"o":"m 150 1064 q 110 1047 125 1063 q 94 1004 94 1032 q 147 949 97 950 q 196 963 182 949 q 210 1006 210 978 q 192 1044 210 1028 q 150 1064 175 1061 m 304 1064 q 264 1047 279 1063 q 250 1004 249 1032 q 301 949 251 950 q 350 963 336 949 q 364 1006 364 978 q 347 1044 364 1028 q 304 1064 331 1061 m 207 915 q 154 900 163 915 q 40 8 49 606 q 98 27 63 25 q 163 23 133 29 q 211 6 192 17 q 217 87 217 32 q 218 167 217 142 q 269 286 232 282 q 342 224 322 288 q 357 151 347 204 q 375 58 367 99 q 386 17 383 17 q 556 113 435 103 q 372 786 453 515 q 344 845 360 821 q 317 882 329 869 q 283 902 306 894 q 251 910 261 910 q 214 914 242 911 q 207 915 211 915 m 244 647 q 247 647 246 647 q 272 631 263 646 q 292 574 281 615 q 319 486 303 538 q 333 422 342 422 q 270 445 303 446 q 208 424 238 444 q 209 525 201 432 q 226 636 217 618 q 244 647 233 647 z "},"Å":{"ha":596,"x_min":40,"x_max":557,"o":"m 239 1099 q 138 994 138 1094 q 161 907 140 933 q 154 900 157 904 q 40 8 49 606 q 98 27 63 25 q 163 23 133 29 q 211 6 192 17 q 217 87 217 32 q 218 167 217 142 q 269 286 232 282 q 342 224 322 288 q 357 151 347 204 q 375 58 367 99 q 386 17 383 17 q 556 113 435 103 q 372 786 453 515 q 296 896 343 871 q 329 994 328 929 q 307 1067 332 1036 q 239 1099 282 1097 m 236 1043 q 271 1027 258 1043 q 282 990 283 1011 q 279 965 282 978 q 265 941 276 953 q 235 929 253 929 q 197 946 208 932 q 185 990 186 960 q 236 1043 185 1042 m 244 647 q 247 647 246 647 q 272 631 263 646 q 292 574 281 615 q 319 486 303 538 q 333 422 342 422 q 270 445 303 446 q 208 424 238 444 q 209 525 201 432 q 226 636 217 618 q 244 647 233 647 z "},"Æ":{"ha":953,"x_min":40,"x_max":915,"o":"m 207 915 q 154 900 163 915 q 40 8 49 606 q 98 27 63 25 q 163 23 133 29 q 211 6 192 17 q 217 87 217 32 q 218 167 217 142 q 269 286 232 282 q 342 224 322 288 q 357 151 347 204 q 375 58 367 99 q 386 17 383 17 q 497 18 432 19 q 724 18 572 14 q 893 29 875 22 q 914 40 913 35 q 901 61 915 46 q 861 176 861 104 q 865 232 860 217 q 864 244 869 244 q 788 228 857 244 q 652 201 719 211 q 581 197 585 190 q 575 253 574 206 q 583 307 576 301 q 797 361 596 317 q 813 375 813 365 q 799 418 814 385 q 785 462 786 444 q 792 513 783 479 q 795 529 794 524 q 796 538 796 535 q 794 542 796 542 q 788 543 792 543 q 621 508 731 536 q 585 502 607 504 q 561 503 563 500 q 553 546 556 510 q 551 622 551 582 q 549 672 550 663 q 839 707 635 683 q 818 787 824 738 q 819 857 813 836 q 825 903 832 897 q 756 908 818 908 q 586 909 683 908 q 439 906 489 910 q 401 902 413 904 q 377 894 389 900 q 363 877 365 889 q 363 846 360 865 q 371 790 367 819 q 344 847 360 824 q 317 883 328 871 q 283 902 306 894 q 251 910 260 910 q 214 914 242 911 q 207 915 211 915 m 244 647 q 247 647 246 647 q 272 631 263 646 q 292 574 281 615 q 319 486 303 538 q 333 422 342 422 q 270 445 303 446 q 208 424 238 444 q 209 525 201 432 q 226 636 217 618 q 244 647 233 647 z "},"Ç":{"ha":704,"x_min":33,"x_max":672,"o":"m 397 901 q 333 893 367 901 q 288 875 300 885 q 296 851 288 863 q 297 844 297 844 q 287 841 297 843 q 265 837 276 839 q 233 826 254 835 q 190 806 211 818 q 93 686 131 763 q 45 523 56 610 q 48 344 35 436 q 96 178 61 253 q 192 56 131 104 q 332 3 254 7 l 331 0 q 302 -47 317 -21 q 282 -81 288 -72 l 276 -90 l 285 -93 q 314 -94 293 -96 q 364 -106 349 -92 q 369 -122 371 -111 q 349 -148 365 -139 q 310 -154 333 -157 q 249 -119 278 -151 q 231 -101 232 -101 q 229 -118 229 -104 q 231 -151 229 -132 q 235 -175 233 -169 q 263 -208 243 -199 q 311 -214 274 -214 q 374 -206 349 -214 q 415 -188 403 -197 q 436 -160 428 -179 q 447 -132 446 -140 q 447 -87 453 -107 q 432 -65 443 -75 q 410 -50 421 -54 q 393 -46 397 -47 q 422 -3 385 -43 q 435 14 435 13 q 433 15 435 15 q 661 276 622 67 q 654 342 672 338 q 633 321 644 344 q 480 206 560 231 q 344 217 400 181 q 250 317 288 254 q 217 468 213 381 q 274 629 222 556 q 318 672 313 686 q 318 668 319 671 q 347 542 319 631 q 401 562 369 550 q 445 579 432 574 q 475 592 458 585 q 501 605 492 599 q 518 619 511 611 q 444 888 465 799 q 397 901 439 903 z "},"È":{"ha":632,"x_min":38,"x_max":594,"o":"m 181 1090 q 99 1081 99 1090 q 120 1044 113 1058 q 132 1022 128 1031 q 148 988 136 1013 q 176 929 160 963 l 176 929 q 318 929 265 944 q 203 1090 260 1000 q 181 1090 192 1090 m 244 892 q 117 888 158 892 q 80 884 92 886 q 56 876 68 882 q 42 859 44 871 q 42 828 39 847 q 90 372 65 679 q 118 26 114 64 l 117 3 l 176 0 q 403 0 251 -4 q 572 11 554 4 q 592 22 592 17 q 579 43 593 28 q 540 158 540 86 q 544 214 539 199 q 542 226 547 226 q 467 210 536 226 q 331 183 399 193 q 260 178 264 172 q 254 235 253 188 q 263 289 256 283 q 476 343 275 299 q 492 357 492 347 q 478 400 493 367 q 464 444 465 426 q 471 494 463 461 q 474 511 474 506 q 475 520 475 517 q 473 524 475 524 q 467 525 471 525 q 300 490 410 518 q 264 484 286 486 q 240 485 242 482 q 233 528 235 492 q 230 604 231 564 q 228 654 229 644 q 517 689 314 665 q 497 769 503 719 q 499 839 492 818 q 504 885 511 879 q 435 890 497 890 q 265 892 364 890 q 244 892 256 892 z "},"É":{"ha":632,"x_min":38,"x_max":594,"o":"m 333 1090 q 311 1090 322 1090 q 197 929 256 1000 q 339 929 242 943 q 367 988 356 963 q 383 1022 379 1013 q 395 1044 388 1031 q 417 1081 403 1058 q 333 1090 417 1090 m 244 892 q 117 888 158 892 q 80 884 92 886 q 56 876 68 882 q 42 859 44 871 q 42 828 39 847 q 90 372 65 679 q 118 26 114 64 l 117 3 l 176 0 q 403 0 251 -4 q 572 11 554 4 q 592 22 592 17 q 581 43 593 28 q 540 158 540 86 q 544 214 539 199 q 542 226 547 226 q 467 210 536 226 q 331 183 399 193 q 260 178 264 172 q 254 235 253 188 q 263 289 256 283 q 476 343 275 299 q 492 357 492 347 q 478 400 493 367 q 464 444 465 426 q 471 494 463 461 q 474 511 474 506 q 475 520 475 517 q 473 524 475 524 q 467 525 471 525 q 300 490 410 518 q 264 484 286 486 q 240 485 242 482 q 233 528 235 492 q 230 604 231 564 q 228 654 229 644 q 517 689 314 665 q 497 769 503 719 q 499 839 492 818 q 504 885 511 879 q 435 890 497 890 q 265 892 364 890 q 244 892 256 892 z "},"Ê":{"ha":632,"x_min":38,"x_max":594,"o":"m 246 1106 q 161 929 219 1058 q 256 925 172 929 q 263 944 257 926 q 277 987 269 963 q 290 1022 285 1011 q 309 976 294 1011 q 328 929 324 942 q 422 929 401 926 q 333 1104 415 943 q 246 1106 269 1106 m 244 892 q 117 888 158 892 q 80 884 92 886 q 56 876 68 882 q 42 859 44 871 q 42 828 39 847 q 90 372 65 679 q 118 26 114 64 l 117 3 l 176 0 q 403 0 251 -4 q 572 11 554 4 q 592 22 592 17 q 579 43 593 28 q 540 158 540 86 q 544 214 539 199 q 542 226 547 226 q 467 210 536 226 q 331 183 399 193 q 260 178 264 172 q 254 235 253 188 q 263 289 256 283 q 476 343 275 299 q 492 357 492 347 q 478 400 493 367 q 464 444 465 426 q 471 494 463 461 q 474 511 474 506 q 475 520 475 517 q 473 524 475 524 q 467 525 471 525 q 300 490 410 518 q 264 484 286 486 q 240 485 242 482 q 233 528 235 492 q 230 604 231 564 q 228 654 229 644 q 517 689 314 665 q 497 769 503 719 q 499 839 492 818 q 504 885 511 879 q 435 890 497 890 q 265 892 364 890 q 244 892 256 892 z "},"Ë":{"ha":632,"x_min":38,"x_max":594,"o":"m 225 1046 q 185 1029 200 1044 q 171 986 169 1014 q 222 931 172 932 q 271 945 257 931 q 285 988 285 960 q 267 1026 285 1010 q 225 1046 250 1043 m 379 1046 q 340 1029 354 1044 q 325 986 325 1014 q 376 931 326 932 q 425 945 411 931 q 440 988 439 960 q 423 1026 440 1010 q 379 1046 406 1043 m 244 892 q 117 888 158 892 q 80 884 92 886 q 56 876 68 882 q 42 859 44 871 q 42 828 39 847 q 90 372 65 679 q 118 26 114 64 l 117 3 l 176 0 q 403 0 251 -4 q 572 11 554 4 q 592 22 592 17 q 579 43 593 28 q 540 158 540 86 q 544 214 539 199 q 542 226 547 226 q 467 210 536 226 q 331 183 399 193 q 260 178 264 172 q 254 235 253 188 q 263 289 256 283 q 476 343 275 299 q 492 357 492 347 q 478 400 493 367 q 464 444 465 426 q 471 494 463 461 q 474 511 474 506 q 475 520 475 517 q 473 524 475 524 q 467 525 471 525 q 300 490 410 518 q 264 484 286 486 q 240 485 242 482 q 233 528 235 492 q 230 604 231 564 q 228 654 229 644 q 517 689 314 665 q 497 769 503 719 q 499 839 492 818 q 504 885 511 879 q 435 890 497 890 q 265 892 364 890 q 244 892 256 892 z "},"Ì":{"ha":356,"x_min":40,"x_max":318,"o":"m 124 1090 q 40 1081 40 1090 q 62 1044 54 1058 q 74 1022 69 1031 q 90 988 78 1013 q 118 929 101 963 l 118 929 q 260 929 207 944 q 144 1090 201 1000 q 124 1090 133 1090 m 282 892 q 261 882 278 892 q 181 848 232 867 q 115 822 131 829 q 108 807 103 817 q 128 651 121 725 q 136 492 136 578 q 135 353 136 407 q 130 183 135 299 q 122 3 125 67 q 306 56 250 53 q 317 75 318 64 q 308 508 313 364 q 286 876 303 651 q 282 892 288 892 z "},"Í":{"ha":313,"x_min":38,"x_max":274,"o":"m 190 1090 q 168 1090 179 1090 q 54 929 111 1000 q 194 929 99 943 q 223 988 211 963 q 239 1022 235 1013 q 251 1044 243 1031 q 272 1081 258 1058 q 190 1090 272 1090 m 217 892 q 196 882 213 892 q 116 848 167 867 q 50 822 65 829 q 42 807 38 817 q 63 651 56 725 q 70 492 69 578 q 70 353 71 407 q 64 183 69 299 q 57 3 58 67 q 240 56 185 53 q 251 75 253 64 q 242 508 247 364 q 221 876 238 651 q 217 892 222 892 z "},"Î":{"ha":340,"x_min":40,"x_max":301,"o":"m 125 1106 q 40 929 99 1058 q 135 925 50 929 q 142 944 136 926 q 156 987 147 963 q 168 1022 164 1011 q 188 976 172 1011 q 207 929 203 942 q 300 929 281 926 q 213 1104 293 944 q 125 1106 149 1106 m 249 892 q 226 882 243 892 q 147 848 199 867 q 81 822 96 829 q 74 807 68 817 q 94 651 88 725 q 102 492 101 578 q 101 353 103 407 q 95 183 100 299 q 88 3 90 67 q 272 56 217 53 q 282 75 283 64 q 274 508 279 364 q 253 876 269 651 q 249 892 254 892 z "},"Ï":{"ha":349,"x_min":39,"x_max":311,"o":"m 94 1046 q 56 1029 71 1044 q 40 986 40 1014 q 92 931 42 932 q 141 945 128 931 q 156 988 154 960 q 138 1026 156 1010 q 94 1046 121 1043 m 249 1046 q 210 1029 225 1044 q 194 986 194 1014 q 246 931 197 932 q 296 945 282 931 q 310 988 310 960 q 292 1026 310 1010 q 249 1046 275 1043 m 253 892 q 232 882 249 892 q 152 848 203 867 q 86 822 101 829 q 78 807 74 817 q 99 651 92 725 q 106 492 106 578 q 106 353 107 407 q 99 183 104 299 q 93 3 94 67 q 276 56 221 53 q 288 75 289 64 q 278 508 283 364 q 257 876 274 651 q 253 892 258 892 z "},"Ð":{"ha":807,"x_min":39,"x_max":776,"o":"m 244 897 q 106 897 124 897 q 85 892 88 896 q 169 474 138 706 q 50 482 103 475 q 40 449 42 483 q 44 382 39 415 q 57 353 49 349 q 181 369 110 365 q 200 -3 201 171 q 262 -6 208 -6 q 329 -3 315 -6 q 538 70 447 19 q 680 188 629 121 q 753 333 731 254 q 765 490 775 413 q 716 642 756 568 q 612 772 676 715 q 452 862 547 828 q 244 897 357 896 m 363 678 q 478 641 431 675 q 547 558 526 607 q 567 449 567 508 q 545 339 567 390 q 479 249 524 288 q 375 203 435 211 q 363 369 371 293 q 453 364 393 368 q 461 394 458 364 q 462 456 464 425 q 454 486 460 486 q 349 478 399 481 q 335 550 343 515 q 321 615 328 585 q 311 661 314 646 q 326 673 311 668 q 363 678 342 678 z "},"Ñ":{"ha":675,"x_min":40,"x_max":643,"o":"m 447 1065 q 418 1049 419 1064 q 389 1008 410 1018 q 347 1018 368 999 q 290 1063 321 1053 q 231 1046 258 1072 q 192 956 203 1019 q 208 935 194 944 q 232 926 221 926 q 249 932 243 925 q 271 970 258 961 q 297 973 283 979 q 324 956 311 967 q 352 936 336 946 q 381 926 368 926 q 492 1042 458 932 q 476 1059 489 1053 q 447 1065 463 1065 m 224 883 q 163 871 217 885 q 89 864 117 863 q 53 874 61 865 q 40 875 46 881 q 49 15 81 358 q 64 17 57 13 q 110 17 71 21 q 182 7 150 14 q 210 9 206 3 q 211 50 214 15 q 210 152 210 82 q 215 293 211 222 q 219 361 218 364 q 232 328 224 357 q 304 151 264 226 q 396 -8 379 14 q 413 -1 399 -10 q 475 15 426 7 q 572 25 524 22 l 597 26 q 619 444 597 129 q 629 881 642 760 q 577 881 615 881 q 512 880 539 881 q 458 875 485 879 q 456 747 457 826 q 453 619 454 667 q 445 488 451 572 q 426 303 439 403 q 329 533 358 444 q 265 775 300 622 q 258 807 263 788 q 244 869 250 856 q 224 883 238 883 z "},"Ò":{"ha":728,"x_min":36,"x_max":692,"o":"m 306 1090 q 222 1081 222 1090 q 244 1044 236 1058 q 256 1022 251 1031 q 272 988 260 1013 q 300 929 283 963 l 301 929 q 442 929 390 944 q 328 1090 383 1000 q 306 1090 317 1090 m 379 889 q 167 792 257 889 q 50 556 76 694 q 41 420 38 486 q 56 292 44 354 q 92 177 67 229 q 149 84 118 125 q 225 21 181 43 q 318 -6 269 -1 q 426 13 367 -10 q 546 83 485 35 q 675 354 635 171 q 688 477 692 414 q 671 593 685 540 q 631 711 657 646 q 534 844 592 797 q 388 889 476 892 q 379 889 385 889 m 372 701 q 376 701 375 701 q 510 599 465 704 q 535 393 554 485 q 464 236 513 288 q 340 191 394 179 q 249 253 285 203 q 197 375 213 304 q 192 510 182 446 q 256 647 207 590 q 372 701 306 703 z "},"Ó":{"ha":728,"x_min":36,"x_max":692,"o":"m 463 1090 q 440 1090 451 1090 q 326 929 385 1000 q 468 929 371 943 q 497 988 485 963 q 513 1022 508 1013 q 524 1044 517 1031 q 546 1081 532 1058 q 463 1090 546 1090 m 379 889 q 167 792 257 889 q 50 556 76 694 q 41 420 38 486 q 56 292 44 354 q 92 177 67 229 q 149 84 118 125 q 225 21 181 43 q 318 -6 269 -1 q 426 13 367 -10 q 546 83 485 35 q 675 354 635 171 q 688 477 692 414 q 671 593 685 540 q 631 711 657 646 q 534 844 592 797 q 388 889 476 892 q 379 889 385 889 m 372 701 q 376 701 375 701 q 510 599 465 704 q 535 393 554 485 q 464 236 513 288 q 340 191 394 179 q 249 253 285 203 q 197 375 213 304 q 192 510 182 446 q 256 647 207 590 q 372 701 306 703 z "},"Ô":{"ha":728,"x_min":36,"x_max":692,"o":"m 321 1106 q 236 929 294 1058 q 331 925 247 929 q 338 944 332 926 q 351 987 343 963 q 364 1022 360 1011 q 383 976 368 1011 q 403 929 399 942 q 497 929 476 926 q 408 1104 489 943 q 321 1106 344 1106 m 379 889 q 167 792 257 889 q 50 556 76 694 q 41 420 38 486 q 56 292 44 354 q 92 177 67 229 q 149 84 118 125 q 225 21 181 43 q 318 -6 269 -1 q 426 13 367 -10 q 546 83 485 35 q 675 354 635 171 q 688 477 692 414 q 671 593 685 540 q 631 711 657 646 q 534 844 592 797 q 388 889 476 892 q 379 889 385 889 m 372 701 q 376 701 375 701 q 510 599 465 704 q 535 393 554 485 q 464 236 513 288 q 340 191 394 179 q 249 253 285 203 q 197 375 213 304 q 192 510 182 446 q 256 647 207 590 q 372 701 306 703 z "},"Õ":{"ha":728,"x_min":36,"x_max":692,"o":"m 501 1065 q 472 1049 474 1064 q 443 1008 464 1018 q 401 1018 422 999 q 344 1063 375 1053 q 285 1046 313 1072 q 246 956 257 1019 q 262 935 249 944 q 286 926 275 926 q 303 932 297 925 q 325 970 313 961 q 351 973 338 979 q 378 956 365 967 q 406 936 390 946 q 435 926 422 926 q 546 1042 513 932 q 530 1059 543 1053 q 501 1065 517 1065 m 379 889 q 167 792 257 889 q 50 556 76 694 q 41 420 38 486 q 56 292 44 354 q 92 177 67 229 q 149 84 118 125 q 225 21 181 43 q 318 -6 269 -1 q 426 13 367 -10 q 546 83 485 35 q 675 354 635 171 q 688 477 692 414 q 671 593 685 540 q 631 711 657 646 q 534 844 592 797 q 388 889 476 892 q 379 889 385 889 m 372 701 q 376 701 375 701 q 510 599 465 704 q 535 393 554 485 q 464 236 513 288 q 340 191 394 179 q 249 253 285 203 q 197 375 213 304 q 192 510 182 446 q 256 647 207 590 q 372 701 306 703 z "},"Ö":{"ha":728,"x_min":36,"x_max":692,"o":"m 281 1046 q 242 1029 257 1044 q 226 986 226 1014 q 278 931 229 932 q 327 945 314 931 q 342 988 340 960 q 324 1026 342 1010 q 281 1046 307 1043 m 435 1046 q 396 1029 411 1044 q 381 986 381 1014 q 432 931 383 932 q 482 945 468 931 q 496 988 496 960 q 478 1026 496 1010 q 435 1046 461 1043 m 379 889 q 167 792 257 889 q 50 556 76 694 q 41 420 38 486 q 56 292 44 354 q 92 177 67 229 q 149 84 118 125 q 225 21 181 43 q 318 -6 269 -1 q 426 13 367 -10 q 546 83 485 35 q 675 354 635 171 q 688 477 692 414 q 671 593 685 540 q 631 711 657 646 q 534 844 592 797 q 388 889 476 892 q 379 889 385 889 m 372 701 q 376 701 375 701 q 510 599 465 704 q 535 393 554 485 q 464 236 513 288 q 340 191 394 179 q 249 253 285 203 q 197 375 213 304 q 192 510 182 446 q 256 647 207 590 q 372 701 306 703 z "},"×":{"ha":551,"x_min":33,"x_max":519,"o":"m 132 690 q 99 669 124 690 q 55 624 74 647 q 42 597 36 601 q 196 458 125 525 q 43 335 113 381 q 55 300 33 331 q 103 245 76 269 q 138 228 131 221 q 276 382 194 299 q 414 228 357 299 q 449 245 421 221 q 497 300 476 269 q 508 335 518 331 q 356 458 439 381 q 511 597 426 525 q 495 627 517 601 q 447 674 474 653 q 417 689 421 694 q 276 538 325 588 q 136 689 226 588 q 132 690 135 690 z "},"Ø":{"ha":728,"x_min":29,"x_max":692,"o":"m 379 889 q 167 792 257 889 q 50 556 76 694 q 51 316 31 433 q 126 117 71 199 q 74 32 97 69 q 96 -7 60 11 q 157 -8 138 -28 q 163 -1 161 -6 q 186 47 174 22 q 286 -2 232 10 q 408 6 340 -14 q 546 83 475 26 q 675 354 635 171 q 688 477 692 414 q 671 593 685 540 q 631 711 657 646 q 597 772 615 744 q 633 831 631 828 q 624 860 640 843 q 588 882 607 876 q 558 876 568 888 q 549 858 556 871 q 539 840 542 844 q 388 889 478 892 q 379 889 385 889 m 372 701 q 376 701 375 701 q 451 681 419 703 q 228 288 332 463 q 193 397 203 336 q 192 510 183 457 q 256 647 207 590 q 372 701 306 703 m 503 614 q 510 599 507 606 q 535 393 554 485 q 464 236 513 288 q 278 221 360 150 q 503 614 368 386 z "},"Ù":{"ha":656,"x_min":40,"x_max":619,"o":"m 301 1090 q 219 1081 219 1090 q 241 1044 233 1058 q 253 1022 249 1031 q 269 988 257 1013 q 296 929 281 963 l 297 929 q 438 929 386 944 q 324 1090 381 1000 q 301 1090 313 1090 m 49 906 q 40 836 47 904 q 44 608 43 753 q 47 490 46 528 q 51 388 49 451 q 57 298 53 325 q 68 225 61 271 q 85 160 75 179 q 110 111 94 142 q 144 68 125 81 q 190 39 164 56 q 247 14 215 22 q 319 0 279 6 q 440 7 388 -8 q 525 65 493 22 q 578 151 557 107 q 607 273 600 196 q 617 406 614 350 q 611 555 619 461 q 597 699 603 649 q 581 839 592 749 q 572 900 575 881 q 540 882 571 903 q 435 831 479 840 q 400 819 411 825 q 399 818 400 819 q 394 797 390 815 q 428 672 397 778 q 436 644 433 654 q 431 275 508 389 q 367 236 406 244 q 296 246 328 228 q 247 372 257 274 q 249 570 238 469 q 273 757 261 671 q 282 849 285 843 q 238 865 278 857 q 139 885 197 874 q 49 906 81 896 z "},"Ú":{"ha":656,"x_min":40,"x_max":619,"o":"m 410 1090 q 388 1090 399 1090 q 272 929 331 1000 q 414 929 318 943 q 442 988 431 963 q 458 1022 454 1013 q 470 1044 463 1031 q 492 1081 478 1058 q 410 1090 492 1090 m 49 906 q 40 836 47 904 q 44 608 43 753 q 47 490 46 528 q 51 388 49 451 q 57 298 53 325 q 68 225 61 271 q 85 160 75 179 q 110 111 94 142 q 144 68 125 81 q 190 39 164 56 q 247 14 215 22 q 319 0 279 6 q 440 7 388 -8 q 525 65 493 22 q 578 151 557 107 q 607 273 600 196 q 617 406 614 350 q 611 555 619 461 q 597 699 603 649 q 581 839 592 749 q 572 900 575 881 q 540 882 571 903 q 435 831 479 840 q 400 819 411 825 q 399 818 400 819 q 394 797 390 815 q 428 672 397 778 q 436 644 433 654 q 431 275 508 389 q 367 236 406 244 q 296 246 328 228 q 247 372 257 274 q 249 570 238 469 q 273 757 261 671 q 282 849 285 843 q 238 865 278 857 q 139 885 197 874 q 49 906 81 896 z "},"Û":{"ha":656,"x_min":40,"x_max":619,"o":"m 299 1106 q 215 929 274 1058 q 310 925 225 929 q 316 944 310 926 q 331 987 322 963 q 343 1022 339 1011 q 363 976 347 1011 q 382 929 378 942 q 475 929 456 926 q 388 1104 468 943 q 299 1106 322 1106 m 49 906 q 40 836 47 904 q 44 608 43 753 q 47 490 46 528 q 51 388 49 451 q 57 298 53 325 q 68 225 61 271 q 85 160 75 179 q 110 111 94 142 q 144 68 125 81 q 190 39 164 56 q 247 14 215 22 q 319 0 279 6 q 440 7 388 -8 q 525 65 493 22 q 578 151 557 107 q 607 273 600 196 q 617 406 614 350 q 611 555 619 461 q 597 699 603 649 q 581 839 592 749 q 572 900 575 881 q 540 882 571 903 q 435 831 479 840 q 400 819 411 825 q 399 818 400 819 q 394 797 390 815 q 428 672 397 778 q 436 644 433 654 q 431 275 508 389 q 367 236 406 244 q 296 246 328 228 q 247 372 257 274 q 249 570 238 469 q 273 757 261 671 q 282 849 285 843 q 238 865 278 857 q 139 885 197 874 q 49 906 81 896 z "},"Ü":{"ha":656,"x_min":40,"x_max":619,"o":"m 247 1046 q 207 1029 222 1044 q 192 986 192 1014 q 243 931 194 932 q 293 945 279 931 q 307 988 307 960 q 290 1026 307 1010 q 247 1046 272 1043 m 401 1046 q 361 1029 376 1044 q 347 986 346 1014 q 399 931 349 932 q 447 945 433 931 q 461 988 461 960 q 444 1026 461 1010 q 401 1046 426 1043 m 49 906 q 40 836 47 904 q 44 608 43 753 q 47 490 46 528 q 51 388 49 451 q 57 298 53 325 q 68 225 61 271 q 85 160 75 179 q 110 111 94 142 q 144 68 125 81 q 190 39 164 56 q 247 14 215 22 q 319 0 279 6 q 440 7 388 -8 q 525 65 493 22 q 578 151 557 107 q 607 273 600 196 q 617 406 614 350 q 611 555 619 461 q 597 699 603 649 q 581 839 592 749 q 572 900 575 881 q 540 882 571 903 q 435 831 479 840 q 400 819 411 825 q 399 818 400 819 q 394 797 390 815 q 428 672 397 778 q 436 644 433 654 q 431 275 508 389 q 367 236 406 244 q 296 246 328 228 q 247 372 257 274 q 249 570 238 469 q 273 757 261 671 q 282 849 285 843 q 238 865 278 857 q 139 885 197 874 q 49 906 81 896 z "},"Ý":{"ha":757,"x_min":40,"x_max":718,"o":"m 268 1090 q 186 1081 186 1090 q 208 1044 200 1058 q 219 1022 215 1031 q 235 988 224 1013 q 263 929 247 963 l 264 929 q 404 929 353 944 q 290 1090 347 1000 q 268 1090 279 1090 m 554 935 q 546 931 550 935 q 536 922 542 928 q 528 914 531 915 q 435 754 490 861 q 360 614 381 647 q 343 630 357 611 q 311 678 329 649 q 274 739 293 708 q 234 797 254 769 q 200 832 214 824 q 171 860 190 839 q 135 892 151 881 q 101 901 118 904 q 95 803 97 828 q 81 740 93 779 q 40 647 68 701 q 120 582 79 619 q 209 497 161 544 q 289 421 257 449 q 233 212 279 369 q 179 -28 186 54 q 310 1 232 -4 q 418 -7 388 6 q 432 158 419 60 q 460 272 444 256 q 478 243 465 265 q 501 208 492 221 q 522 190 511 196 q 534 210 526 196 q 547 231 542 224 q 558 250 551 239 q 572 270 565 261 q 588 286 579 279 q 588 326 600 294 q 550 403 576 357 q 522 454 524 450 q 572 588 538 521 q 650 726 606 654 q 717 846 694 799 q 669 867 706 851 q 607 895 632 882 q 565 925 582 908 q 554 935 560 935 z "},"Þ":{"ha":665,"x_min":35,"x_max":629,"o":"m 156 917 q 47 903 71 918 q 46 871 36 896 q 102 480 93 657 q 93 82 111 303 q 83 31 81 33 q 196 25 89 25 q 306 31 303 25 q 288 115 308 39 q 270 203 268 190 q 358 218 272 215 q 467 241 417 219 q 551 296 518 263 q 604 372 585 329 q 626 458 624 414 q 613 544 629 501 q 564 619 596 586 q 476 674 532 653 q 347 699 419 696 l 256 699 l 261 743 q 278 824 265 778 q 301 882 292 871 q 290 907 317 900 q 218 915 271 911 q 156 917 185 917 m 367 565 q 460 540 419 565 q 500 469 500 515 q 475 394 500 422 q 413 361 450 367 q 338 358 375 356 q 271 372 301 361 q 269 531 269 490 q 367 565 300 565 z "},"ß":{"ha":721,"x_min":36,"x_max":683,"o":"m 471 31 l 404 28 l 443 65 q 505 163 486 101 q 517 283 524 225 q 476 383 510 340 q 389 426 442 426 q 374 432 374 426 q 404 475 372 439 q 457 567 440 518 q 471 656 474 617 q 449 727 468 696 q 390 767 429 758 q 299 763 351 776 q 246 618 253 749 q 260 328 239 488 q 314 28 281 168 q 253 45 288 39 q 167 48 218 51 q 67 25 115 44 q 40 849 139 371 q 79 897 36 885 q 249 911 122 908 q 400 903 332 914 q 519 864 468 892 q 597 794 571 836 q 616 687 622 751 q 568 543 610 622 q 556 497 546 501 q 651 408 618 467 q 681 288 683 350 q 657 168 679 226 q 584 72 635 110 q 471 31 533 33 z "},"à":{"ha":596,"x_min":40,"x_max":557,"o":"m 172 1108 q 90 1099 90 1108 q 112 1063 104 1076 q 124 1040 119 1049 q 140 1006 128 1031 q 167 947 151 981 l 168 947 q 308 947 257 963 q 194 1108 251 1018 q 172 1108 183 1108 m 207 915 q 154 900 163 915 q 40 8 49 606 q 98 27 63 25 q 163 23 133 29 q 211 6 192 17 q 217 87 217 32 q 218 167 217 142 q 269 286 232 282 q 342 224 322 288 q 357 151 347 204 q 375 58 367 99 q 386 17 383 17 q 556 113 435 103 q 372 786 453 515 q 344 845 360 821 q 317 882 329 869 q 283 902 306 894 q 251 910 261 910 q 214 914 242 911 q 207 915 211 915 m 244 647 q 247 647 246 647 q 272 631 263 646 q 292 574 281 615 q 319 486 303 538 q 333 422 342 422 q 270 445 303 446 q 208 424 238 444 q 209 525 201 432 q 226 636 217 618 q 244 647 233 647 z "},"á":{"ha":596,"x_min":40,"x_max":557,"o":"m 292 1108 q 269 1108 281 1108 q 156 947 213 1018 q 297 947 200 961 q 324 1006 313 981 q 340 1040 336 1031 q 352 1063 344 1049 q 374 1099 360 1076 q 292 1108 374 1108 m 207 915 q 154 900 163 915 q 40 8 49 606 q 98 27 63 25 q 163 23 133 29 q 211 6 192 17 q 217 87 217 32 q 218 167 217 142 q 269 286 232 282 q 342 224 322 288 q 357 151 347 204 q 375 58 367 99 q 386 17 383 17 q 556 113 435 103 q 372 786 453 515 q 344 845 360 821 q 317 882 329 869 q 283 902 306 894 q 251 910 261 910 q 214 914 242 911 q 207 915 211 915 m 244 647 q 247 647 246 647 q 272 631 263 646 q 292 574 281 615 q 319 486 303 538 q 333 422 342 422 q 270 445 303 446 q 208 424 238 444 q 209 525 201 432 q 226 636 217 618 q 244 647 233 647 z "},"â":{"ha":596,"x_min":40,"x_max":557,"o":"m 181 1124 q 96 947 154 1076 q 190 943 107 947 q 197 963 192 944 q 211 1005 203 981 q 224 1040 219 1029 q 244 994 229 1029 q 263 947 258 960 q 357 947 336 944 q 268 1122 349 963 q 181 1124 204 1124 m 207 915 q 154 900 163 915 q 40 8 49 606 q 98 27 63 25 q 163 23 133 29 q 211 6 192 17 q 217 87 217 32 q 218 167 217 142 q 269 286 232 282 q 342 224 322 288 q 357 151 347 204 q 375 58 367 99 q 386 17 383 17 q 556 113 435 103 q 372 786 453 515 q 344 845 360 821 q 317 882 329 869 q 283 902 306 894 q 251 910 261 910 q 214 914 242 911 q 207 915 211 915 m 244 647 q 247 647 246 647 q 272 631 263 646 q 292 574 281 615 q 319 486 303 538 q 333 422 342 422 q 270 445 303 446 q 208 424 238 444 q 209 525 201 432 q 226 636 217 618 q 244 647 233 647 z "},"ã":{"ha":596,"x_min":40,"x_max":557,"o":"m 357 1083 q 329 1067 331 1082 q 300 1026 321 1036 q 257 1036 279 1017 q 200 1081 231 1071 q 141 1064 169 1090 q 103 974 113 1038 q 119 953 106 963 q 143 944 132 944 q 158 950 154 943 q 182 988 169 979 q 208 991 194 997 q 234 974 221 985 q 263 954 247 964 q 290 944 278 944 q 401 1060 368 950 q 385 1077 399 1071 q 357 1083 372 1083 m 207 915 q 154 900 163 915 q 40 8 49 606 q 98 27 63 25 q 163 23 133 29 q 211 6 192 17 q 217 87 217 32 q 218 167 217 142 q 269 286 232 282 q 342 224 322 288 q 357 151 347 204 q 375 58 367 99 q 386 17 383 17 q 556 113 435 103 q 372 786 453 515 q 344 845 360 821 q 317 882 329 869 q 283 902 306 894 q 251 910 261 910 q 214 914 242 911 q 207 915 211 915 m 244 647 q 247 647 246 647 q 272 631 263 646 q 292 574 281 615 q 319 486 303 538 q 333 422 342 422 q 270 445 303 446 q 208 424 238 444 q 209 525 201 432 q 226 636 217 618 q 244 647 233 647 z "},"ä":{"ha":596,"x_min":40,"x_max":557,"o":"m 150 1064 q 110 1047 125 1063 q 94 1004 94 1032 q 147 949 97 950 q 196 963 182 949 q 210 1006 210 978 q 192 1044 210 1028 q 150 1064 175 1061 m 304 1064 q 264 1047 279 1063 q 250 1004 249 1032 q 301 949 251 950 q 350 963 336 949 q 364 1006 364 978 q 347 1044 364 1028 q 304 1064 331 1061 m 207 915 q 154 900 163 915 q 40 8 49 606 q 98 27 63 25 q 163 23 133 29 q 211 6 192 17 q 217 87 217 32 q 218 167 217 142 q 269 286 232 282 q 342 224 322 288 q 357 151 347 204 q 375 58 367 99 q 386 17 383 17 q 556 113 435 103 q 372 786 453 515 q 344 845 360 821 q 317 882 329 869 q 283 902 306 894 q 251 910 261 910 q 214 914 242 911 q 207 915 211 915 m 244 647 q 247 647 246 647 q 272 631 263 646 q 292 574 281 615 q 319 486 303 538 q 333 422 342 422 q 270 445 303 446 q 208 424 238 444 q 209 525 201 432 q 226 636 217 618 q 244 647 233 647 z "},"å":{"ha":596,"x_min":40,"x_max":557,"o":"m 239 1099 q 138 994 138 1094 q 161 907 140 933 q 154 900 157 904 q 40 8 49 606 q 98 27 63 25 q 163 23 133 29 q 211 6 192 17 q 217 87 217 32 q 218 167 217 142 q 269 286 232 282 q 342 224 322 288 q 357 151 347 204 q 375 58 367 99 q 386 17 383 17 q 556 113 435 103 q 372 786 453 515 q 296 896 343 871 q 329 994 328 929 q 307 1067 332 1036 q 239 1099 282 1097 m 236 1043 q 271 1027 258 1043 q 282 990 283 1011 q 279 965 282 978 q 265 941 276 953 q 235 929 253 929 q 197 946 208 932 q 185 990 186 960 q 236 1043 185 1042 m 244 647 q 247 647 246 647 q 272 631 263 646 q 292 574 281 615 q 319 486 303 538 q 333 422 342 422 q 270 445 303 446 q 208 424 238 444 q 209 525 201 432 q 226 636 217 618 q 244 647 233 647 z "},"æ":{"ha":953,"x_min":40,"x_max":915,"o":"m 207 915 q 154 900 163 915 q 40 8 49 606 q 98 27 63 25 q 163 23 133 29 q 211 6 192 17 q 217 87 217 32 q 218 167 217 142 q 269 286 232 282 q 342 224 322 288 q 357 151 347 204 q 375 58 367 99 q 386 17 383 17 q 497 18 432 19 q 724 18 572 14 q 893 29 875 22 q 914 40 913 35 q 901 61 915 46 q 861 176 861 104 q 865 232 860 217 q 864 244 869 244 q 788 228 857 244 q 652 201 719 211 q 581 197 585 190 q 575 253 574 206 q 583 307 576 301 q 797 361 596 317 q 814 375 814 365 q 799 418 814 385 q 785 462 786 444 q 792 513 783 479 q 795 529 794 524 q 796 538 796 535 q 794 542 796 542 q 788 543 792 543 q 621 508 731 536 q 585 502 607 504 q 561 503 563 500 q 553 546 556 510 q 551 622 551 582 q 549 672 550 663 q 839 707 635 683 q 818 787 824 738 q 819 857 813 836 q 825 903 832 897 q 756 908 818 908 q 586 909 683 908 q 439 906 489 910 q 401 902 413 904 q 377 894 389 900 q 363 877 365 889 q 363 846 360 865 q 371 790 367 819 q 344 847 360 824 q 317 883 328 871 q 283 902 306 894 q 251 910 260 910 q 214 914 242 911 q 207 915 211 915 m 244 647 q 247 647 246 647 q 272 631 263 646 q 292 574 281 615 q 319 486 303 538 q 333 422 342 422 q 270 445 303 446 q 208 424 238 444 q 209 525 201 432 q 226 636 217 618 q 244 647 233 647 z "},"ç":{"ha":704,"x_min":33,"x_max":672,"o":"m 397 901 q 333 893 367 901 q 288 875 300 885 q 296 851 288 863 q 297 844 297 844 q 287 841 297 843 q 265 837 276 839 q 233 826 254 835 q 190 806 211 818 q 93 686 131 763 q 45 523 56 610 q 48 344 35 436 q 96 178 61 253 q 192 56 131 104 q 332 3 254 7 l 331 0 q 302 -47 317 -21 q 282 -81 288 -72 l 276 -90 l 285 -93 q 314 -94 293 -96 q 364 -106 349 -92 q 369 -122 371 -111 q 349 -148 365 -139 q 310 -154 333 -157 q 249 -119 278 -151 q 231 -101 232 -101 q 229 -118 229 -104 q 231 -151 229 -132 q 235 -175 233 -169 q 263 -208 243 -199 q 311 -214 274 -214 q 374 -206 349 -214 q 415 -188 403 -197 q 436 -160 428 -179 q 447 -132 446 -140 q 447 -87 453 -107 q 432 -65 443 -75 q 410 -50 421 -54 q 393 -46 397 -47 q 422 -3 385 -43 q 435 14 435 13 q 433 15 435 15 q 661 276 622 67 q 654 342 672 338 q 633 321 644 344 q 480 206 560 231 q 344 217 400 181 q 250 317 288 254 q 217 468 213 381 q 274 629 222 556 q 318 672 313 686 q 318 668 319 671 q 347 542 319 631 q 401 562 369 550 q 445 579 432 574 q 475 592 458 585 q 501 605 492 599 q 518 619 511 611 q 444 888 465 800 q 397 901 439 903 z "},"è":{"ha":632,"x_min":38,"x_max":594,"o":"m 181 1090 q 99 1081 99 1090 q 120 1044 113 1058 q 132 1022 128 1031 q 148 988 136 1013 q 176 929 160 963 l 176 929 q 318 929 265 944 q 203 1090 260 1000 q 181 1090 192 1090 m 244 892 q 117 888 158 892 q 80 884 92 886 q 56 876 68 882 q 42 859 44 871 q 42 828 39 847 q 90 372 65 679 q 118 26 114 64 l 117 3 l 176 0 q 403 0 251 -4 q 572 11 554 4 q 592 22 592 17 q 579 43 593 28 q 540 158 540 86 q 544 214 539 199 q 542 226 547 226 q 467 210 536 226 q 331 183 399 193 q 260 178 264 172 q 254 235 253 188 q 263 289 256 283 q 476 343 275 299 q 492 357 492 347 q 478 400 493 367 q 464 444 465 426 q 471 494 463 461 q 474 511 474 506 q 475 520 475 517 q 473 524 475 524 q 467 525 471 525 q 300 490 410 518 q 264 484 286 486 q 240 485 242 482 q 233 528 235 492 q 230 604 231 564 q 228 654 229 644 q 517 689 314 665 q 497 769 503 719 q 499 839 492 818 q 504 885 511 879 q 435 890 497 890 q 265 892 364 890 q 244 892 256 892 z "},"é":{"ha":632,"x_min":38,"x_max":594,"o":"m 333 1090 q 311 1090 322 1090 q 197 929 256 1000 q 339 929 242 943 q 367 988 356 963 q 383 1022 379 1013 q 395 1044 388 1031 q 417 1081 403 1058 q 333 1090 417 1090 m 244 892 q 117 888 158 892 q 80 884 92 886 q 56 876 68 882 q 42 859 44 871 q 42 828 39 847 q 90 372 65 679 q 118 26 114 64 l 117 3 l 176 0 q 403 0 251 -4 q 572 11 554 4 q 592 22 592 17 q 581 43 593 28 q 540 158 540 86 q 544 214 539 199 q 542 226 547 226 q 467 210 536 226 q 331 183 399 193 q 260 178 264 172 q 254 235 253 188 q 263 289 256 283 q 476 343 275 299 q 492 357 492 347 q 478 400 493 367 q 464 444 465 426 q 471 494 463 461 q 474 511 474 506 q 475 520 475 517 q 473 524 475 524 q 467 525 471 525 q 300 490 410 518 q 264 484 286 486 q 240 485 242 482 q 233 528 235 492 q 230 604 231 564 q 228 654 229 644 q 517 689 314 665 q 497 769 503 719 q 499 839 492 818 q 504 885 511 879 q 435 890 497 890 q 265 892 364 890 q 244 892 256 892 z "},"ê":{"ha":632,"x_min":38,"x_max":594,"o":"m 246 1106 q 161 929 219 1058 q 256 925 172 929 q 263 944 257 926 q 277 987 269 963 q 290 1022 285 1011 q 309 976 294 1011 q 328 929 324 942 q 422 929 401 926 q 333 1104 414 944 q 246 1106 269 1106 m 244 892 q 117 888 158 892 q 80 884 92 886 q 56 876 68 882 q 42 859 44 871 q 42 828 39 847 q 90 372 65 679 q 118 26 114 64 l 117 3 l 176 0 q 403 0 251 -4 q 572 11 554 4 q 592 22 592 17 q 579 43 593 28 q 540 158 540 86 q 544 214 539 199 q 542 226 547 226 q 467 210 536 226 q 331 183 399 193 q 260 178 264 172 q 254 235 253 188 q 263 289 256 283 q 476 343 275 299 q 492 357 492 347 q 478 400 493 367 q 464 444 465 426 q 471 494 463 461 q 474 511 474 506 q 475 520 475 517 q 473 524 475 524 q 467 525 471 525 q 300 490 410 518 q 264 484 286 486 q 240 485 242 482 q 233 528 235 492 q 230 604 231 564 q 228 654 229 644 q 517 689 314 665 q 497 769 503 719 q 499 839 492 818 q 504 885 511 879 q 435 890 497 890 q 265 892 364 890 q 244 892 256 892 z "},"ë":{"ha":632,"x_min":38,"x_max":594,"o":"m 225 1046 q 185 1029 200 1044 q 171 986 169 1014 q 222 931 172 932 q 271 945 257 931 q 285 988 285 960 q 267 1026 285 1010 q 225 1046 250 1043 m 379 1046 q 340 1029 354 1044 q 325 986 325 1014 q 376 931 326 932 q 425 945 411 931 q 440 988 439 960 q 423 1026 440 1010 q 379 1046 406 1043 m 244 892 q 117 888 158 892 q 80 884 92 886 q 56 876 68 882 q 42 859 44 871 q 42 828 39 847 q 90 372 65 679 q 118 26 114 64 l 117 3 l 176 0 q 403 0 251 -4 q 572 11 554 4 q 592 22 592 17 q 579 43 593 28 q 540 158 540 86 q 544 214 539 199 q 542 226 547 226 q 467 210 536 226 q 331 183 399 193 q 260 178 264 172 q 254 235 253 188 q 263 289 256 283 q 476 343 275 299 q 492 357 492 347 q 478 400 493 367 q 464 444 465 426 q 471 494 463 461 q 474 511 474 506 q 475 520 475 517 q 473 524 475 524 q 467 525 471 525 q 300 490 410 518 q 264 484 286 486 q 240 485 242 482 q 233 528 235 492 q 230 604 231 564 q 228 654 229 644 q 517 689 314 665 q 497 769 503 719 q 499 839 492 818 q 504 885 511 879 q 435 890 497 890 q 265 892 364 890 q 244 892 256 892 z "},"ì":{"ha":356,"x_min":40,"x_max":318,"o":"m 124 1090 q 40 1081 40 1090 q 62 1044 54 1058 q 74 1022 69 1031 q 90 988 78 1013 q 118 929 101 963 l 118 929 q 260 929 207 944 q 144 1090 201 1000 q 124 1090 133 1090 m 282 892 q 261 882 278 892 q 181 848 232 867 q 115 822 131 829 q 108 807 103 817 q 128 651 121 725 q 136 492 136 578 q 135 353 136 407 q 130 183 135 299 q 122 3 125 67 q 306 56 250 53 q 317 75 318 64 q 308 508 313 364 q 286 876 303 651 q 282 892 288 892 z "},"í":{"ha":313,"x_min":38,"x_max":274,"o":"m 190 1090 q 168 1090 179 1090 q 54 929 111 1000 q 194 929 99 943 q 223 988 211 963 q 239 1022 235 1013 q 251 1044 243 1031 q 272 1081 258 1058 q 190 1090 272 1090 m 217 892 q 196 882 213 892 q 116 848 167 867 q 50 822 65 829 q 42 807 38 817 q 63 651 56 725 q 70 492 69 578 q 70 353 71 407 q 64 183 69 299 q 57 3 58 67 q 240 56 185 53 q 251 75 253 64 q 242 508 247 364 q 221 876 238 651 q 217 892 222 892 z "},"î":{"ha":340,"x_min":40,"x_max":301,"o":"m 125 1106 q 40 929 99 1058 q 135 925 50 929 q 142 944 136 926 q 156 987 147 963 q 168 1022 164 1011 q 188 976 172 1011 q 207 929 203 942 q 300 929 281 926 q 213 1104 293 944 q 125 1106 149 1106 m 249 892 q 226 882 243 892 q 147 848 199 867 q 81 822 96 829 q 74 807 68 817 q 94 651 88 725 q 102 492 101 578 q 101 353 103 407 q 95 183 100 299 q 88 3 90 67 q 272 56 217 53 q 282 75 283 64 q 274 508 279 364 q 253 876 269 651 q 249 892 254 892 z "},"ð":{"ha":807,"x_min":39,"x_max":776,"o":"m 244 897 q 106 897 124 897 q 85 892 88 896 q 169 474 138 706 q 50 482 103 475 q 40 449 42 483 q 44 382 39 415 q 57 353 49 349 q 181 369 110 365 q 200 -3 201 171 q 262 -6 208 -6 q 329 -3 315 -6 q 538 70 447 19 q 680 188 629 121 q 753 333 731 254 q 765 490 775 413 q 716 642 756 568 q 612 772 676 715 q 452 862 547 828 q 244 897 357 896 m 363 678 q 478 641 431 675 q 547 558 526 607 q 567 449 567 508 q 545 339 567 390 q 479 249 524 288 q 375 203 435 211 q 363 369 371 292 q 453 364 393 368 q 461 394 458 364 q 462 456 464 425 q 454 486 460 486 q 349 478 399 481 q 335 550 343 515 q 321 615 328 585 q 311 661 314 646 q 326 673 311 668 q 363 678 342 678 z "},"ñ":{"ha":675,"x_min":40,"x_max":643,"o":"m 447 1065 q 418 1049 419 1064 q 389 1008 410 1018 q 347 1018 368 999 q 290 1063 321 1053 q 231 1046 258 1072 q 192 956 203 1019 q 208 935 194 944 q 232 926 221 926 q 249 932 243 925 q 271 970 258 961 q 297 973 283 979 q 324 956 311 967 q 352 936 336 946 q 381 926 368 926 q 492 1042 458 932 q 476 1059 489 1053 q 447 1065 463 1065 m 224 883 q 163 871 217 885 q 89 864 117 863 q 53 874 61 865 q 40 875 46 881 q 49 15 81 358 q 64 17 57 13 q 110 17 71 21 q 182 7 150 14 q 210 9 206 3 q 211 50 214 15 q 210 152 210 82 q 215 293 211 222 q 219 361 218 364 q 232 328 224 357 q 304 151 264 226 q 396 -8 379 14 q 413 -1 399 -10 q 475 15 426 7 q 572 25 524 22 l 597 26 q 619 444 597 129 q 629 881 642 760 q 577 881 615 881 q 512 880 539 881 q 458 875 485 879 q 456 747 457 826 q 453 619 454 667 q 445 488 451 572 q 426 303 439 403 q 329 533 358 444 q 265 775 300 622 q 258 807 263 788 q 244 869 250 856 q 224 883 238 883 z "},"ò":{"ha":728,"x_min":36,"x_max":692,"o":"m 306 1090 q 222 1081 222 1090 q 244 1044 236 1058 q 256 1022 251 1031 q 272 988 260 1013 q 300 929 283 963 l 301 929 q 442 929 390 944 q 328 1090 383 1000 q 306 1090 317 1090 m 379 889 q 167 792 257 889 q 50 556 76 694 q 41 420 38 486 q 56 292 44 354 q 92 177 67 229 q 149 84 118 125 q 225 21 181 43 q 318 -6 269 -1 q 426 13 367 -10 q 546 83 485 35 q 675 354 635 171 q 688 477 692 414 q 671 593 685 540 q 631 711 657 646 q 534 844 592 797 q 388 889 476 892 q 379 889 385 889 m 372 701 q 376 701 375 701 q 510 599 465 704 q 535 393 554 485 q 464 236 513 288 q 340 191 394 179 q 249 253 285 203 q 197 375 213 304 q 192 510 182 446 q 256 647 207 590 q 372 701 306 703 z "},"ó":{"ha":728,"x_min":36,"x_max":692,"o":"m 463 1090 q 440 1090 451 1090 q 326 929 385 1000 q 468 929 371 943 q 497 988 485 963 q 513 1022 508 1013 q 524 1044 517 1031 q 546 1081 532 1058 q 463 1090 546 1090 m 379 889 q 167 792 257 889 q 50 556 76 694 q 41 420 38 486 q 56 292 44 354 q 92 177 67 229 q 149 84 118 125 q 225 21 181 43 q 318 -6 269 -1 q 426 13 367 -10 q 546 83 485 35 q 675 354 635 171 q 688 477 692 414 q 671 593 685 540 q 631 711 657 646 q 534 844 592 797 q 388 889 476 892 q 379 889 385 889 m 372 701 q 376 701 375 701 q 510 599 465 704 q 535 393 554 485 q 464 236 513 288 q 340 191 394 179 q 249 253 285 203 q 197 375 213 304 q 192 510 182 446 q 256 647 207 590 q 372 701 306 703 z "},"ô":{"ha":728,"x_min":36,"x_max":692,"o":"m 321 1106 q 236 929 294 1058 q 331 925 247 929 q 338 944 332 926 q 351 987 343 963 q 364 1022 360 1011 q 383 976 368 1011 q 403 929 399 942 q 497 929 476 926 q 408 1104 489 943 q 321 1106 344 1106 m 379 889 q 167 792 257 889 q 50 556 76 694 q 41 420 38 486 q 56 292 44 354 q 92 177 67 229 q 149 84 118 125 q 225 21 181 43 q 318 -6 269 -1 q 426 13 367 -10 q 546 83 485 35 q 675 354 635 171 q 688 477 692 414 q 671 593 685 540 q 631 711 657 646 q 534 844 592 797 q 388 889 476 892 q 379 889 385 889 m 372 701 q 376 701 375 701 q 510 599 465 704 q 535 393 554 485 q 464 236 513 288 q 340 191 394 179 q 249 253 285 203 q 197 375 213 304 q 192 510 182 446 q 256 647 207 590 q 372 701 306 703 z "},"õ":{"ha":728,"x_min":36,"x_max":692,"o":"m 501 1065 q 472 1049 474 1064 q 443 1008 464 1018 q 401 1018 422 999 q 344 1063 375 1053 q 285 1046 313 1072 q 246 956 257 1019 q 262 935 249 944 q 286 926 275 926 q 303 932 297 925 q 325 970 313 961 q 351 973 338 979 q 378 956 365 967 q 406 936 390 946 q 435 926 422 926 q 546 1042 513 932 q 530 1059 543 1053 q 501 1065 517 1065 m 379 889 q 167 792 257 889 q 50 556 76 694 q 41 420 38 486 q 56 292 44 354 q 92 177 67 229 q 149 84 118 125 q 225 21 181 43 q 318 -6 269 -1 q 426 13 367 -10 q 546 83 485 35 q 675 354 635 171 q 688 477 692 414 q 671 593 685 540 q 631 711 657 646 q 534 844 592 797 q 388 889 476 892 q 379 889 385 889 m 372 701 q 376 701 375 701 q 510 599 465 704 q 535 393 554 485 q 464 236 513 288 q 340 191 394 179 q 249 253 285 203 q 197 375 213 304 q 192 510 182 446 q 256 647 207 590 q 372 701 306 703 z "},"ö":{"ha":728,"x_min":36,"x_max":692,"o":"m 281 1046 q 242 1029 257 1044 q 226 986 226 1014 q 278 931 229 932 q 327 945 314 931 q 342 988 340 960 q 324 1026 342 1010 q 281 1046 307 1043 m 435 1046 q 396 1029 411 1044 q 381 986 381 1014 q 432 931 383 932 q 482 945 468 931 q 496 988 496 960 q 478 1026 496 1010 q 435 1046 461 1043 m 379 889 q 167 792 257 889 q 50 556 76 694 q 41 420 38 486 q 56 292 44 354 q 92 177 67 229 q 149 84 118 125 q 225 21 181 43 q 318 -6 269 -1 q 426 13 367 -10 q 546 83 485 35 q 675 354 635 171 q 688 477 692 414 q 671 593 685 540 q 631 711 657 646 q 534 844 592 797 q 388 889 476 892 q 379 889 385 889 m 372 701 q 376 701 375 701 q 510 599 465 704 q 535 393 554 485 q 464 236 513 288 q 340 191 394 179 q 249 253 285 203 q 197 375 213 304 q 192 510 182 446 q 256 647 207 590 q 372 701 306 703 z "},"÷":{"ha":578,"x_min":38,"x_max":540,"o":"m 282 710 q 235 690 253 708 q 218 639 218 672 q 278 574 219 575 q 336 591 319 574 q 353 642 353 608 q 333 688 353 668 q 282 710 313 707 m 528 532 q 51 529 233 510 q 40 497 42 531 q 44 429 39 463 q 60 399 50 396 q 294 419 153 418 q 526 411 436 419 q 537 442 533 411 q 538 503 540 472 q 528 532 535 533 m 299 365 q 251 347 269 365 q 233 296 233 329 q 294 229 236 232 q 352 248 336 231 q 369 297 368 265 q 349 344 369 324 q 299 365 329 364 z "},"ø":{"ha":728,"x_min":29,"x_max":692,"o":"m 379 889 q 167 792 257 889 q 50 556 76 694 q 51 316 31 433 q 126 117 71 199 q 74 32 97 69 q 96 -7 60 11 q 157 -8 138 -28 q 163 -1 161 -6 q 186 47 174 22 q 286 -2 232 10 q 408 6 340 -14 q 546 83 475 26 q 675 354 635 171 q 688 477 692 414 q 671 593 685 540 q 631 711 657 646 q 597 772 615 744 q 633 831 631 828 q 624 860 640 843 q 588 882 607 876 q 558 876 568 888 q 549 858 556 871 q 539 840 542 844 q 388 889 478 892 q 379 889 385 889 m 372 701 q 376 701 375 701 q 451 681 419 703 q 228 288 332 463 q 193 397 203 336 q 192 510 183 457 q 256 647 207 590 q 372 701 306 703 m 503 614 q 510 599 507 606 q 535 393 554 485 q 464 236 513 288 q 278 221 360 150 q 503 614 368 386 z "},"ù":{"ha":656,"x_min":40,"x_max":619,"o":"m 301 1090 q 219 1081 219 1090 q 241 1044 233 1058 q 253 1022 249 1031 q 269 988 257 1013 q 296 929 281 963 l 297 929 q 438 929 386 944 q 324 1090 381 1000 q 301 1090 313 1090 m 49 906 q 40 836 47 904 q 44 608 43 753 q 47 490 46 528 q 51 388 49 451 q 57 298 53 325 q 68 225 61 271 q 85 160 75 179 q 110 111 94 142 q 144 68 125 81 q 190 39 164 56 q 247 14 215 22 q 319 0 279 6 q 440 7 388 -8 q 525 65 493 22 q 578 151 557 107 q 607 273 600 196 q 617 406 614 350 q 611 555 619 461 q 597 699 603 649 q 581 839 592 749 q 572 900 575 881 q 540 882 571 903 q 435 831 479 840 q 400 819 411 825 q 399 818 400 819 q 394 797 390 815 q 428 672 397 778 q 436 644 433 654 q 431 275 508 389 q 367 236 406 244 q 296 246 328 228 q 247 372 257 274 q 249 570 238 469 q 273 757 261 671 q 282 849 285 843 q 238 865 278 857 q 139 885 197 874 q 49 906 81 896 z "},"ú":{"ha":656,"x_min":40,"x_max":619,"o":"m 410 1090 q 388 1090 399 1090 q 272 929 331 1000 q 414 929 318 943 q 442 988 431 963 q 458 1022 454 1013 q 470 1044 463 1031 q 492 1081 478 1058 q 410 1090 492 1090 m 49 906 q 40 836 47 904 q 44 608 43 753 q 47 490 46 528 q 51 388 49 451 q 57 298 53 325 q 68 225 61 271 q 85 160 75 179 q 110 111 94 142 q 144 68 125 81 q 190 39 164 56 q 247 14 215 22 q 319 0 279 6 q 440 7 388 -8 q 525 65 493 22 q 578 151 557 107 q 607 273 600 196 q 617 406 614 350 q 611 555 619 461 q 597 699 603 649 q 581 839 592 749 q 572 900 575 881 q 540 882 571 903 q 435 831 479 840 q 400 819 411 825 q 399 818 400 819 q 394 797 390 815 q 428 672 397 778 q 436 644 433 654 q 431 275 508 389 q 367 236 406 244 q 296 246 328 228 q 247 372 257 274 q 249 570 238 469 q 273 757 261 671 q 282 849 285 843 q 238 865 278 857 q 139 885 197 874 q 49 906 81 896 z "},"û":{"ha":656,"x_min":40,"x_max":619,"o":"m 299 1106 q 215 929 274 1058 q 310 925 225 929 q 316 944 310 926 q 331 987 322 963 q 343 1022 339 1011 q 363 976 347 1011 q 382 929 378 942 q 475 929 456 926 q 388 1104 468 943 q 299 1106 322 1106 m 49 906 q 40 836 47 904 q 44 608 43 753 q 47 490 46 528 q 51 388 49 451 q 57 298 53 325 q 68 225 61 271 q 85 160 75 179 q 110 111 94 142 q 144 68 125 81 q 190 39 164 56 q 247 14 215 22 q 319 0 279 6 q 440 7 388 -8 q 525 65 493 22 q 578 151 557 107 q 607 273 600 196 q 617 406 614 350 q 611 555 619 461 q 597 699 603 649 q 581 839 592 749 q 572 900 575 881 q 540 882 571 903 q 435 831 479 840 q 400 819 411 825 q 399 818 400 819 q 394 797 390 815 q 428 672 397 778 q 436 644 433 654 q 431 275 508 389 q 367 236 406 244 q 296 246 328 228 q 247 372 257 274 q 249 570 238 469 q 273 757 261 671 q 282 849 285 843 q 238 865 278 857 q 139 885 197 874 q 49 906 81 896 z "},"ü":{"ha":656,"x_min":40,"x_max":619,"o":"m 247 1046 q 207 1029 222 1044 q 192 986 192 1014 q 243 931 194 932 q 293 945 279 931 q 307 988 307 960 q 290 1026 307 1010 q 247 1046 272 1043 m 401 1046 q 361 1029 376 1044 q 347 986 346 1014 q 399 931 349 932 q 447 945 433 931 q 461 988 461 960 q 444 1026 461 1010 q 401 1046 426 1043 m 49 906 q 40 836 47 904 q 44 608 43 753 q 47 490 46 528 q 51 388 49 451 q 57 298 53 325 q 68 225 61 271 q 85 160 75 179 q 110 111 94 142 q 144 68 125 81 q 190 39 164 56 q 247 14 215 22 q 319 0 279 6 q 440 7 388 -8 q 525 65 493 22 q 578 151 557 107 q 607 273 600 196 q 617 406 614 350 q 611 555 619 461 q 597 699 603 649 q 581 839 592 749 q 572 900 575 881 q 540 882 571 903 q 435 831 479 840 q 400 819 411 825 q 399 818 400 819 q 394 797 390 815 q 428 672 397 778 q 436 644 433 654 q 431 275 508 389 q 367 236 406 244 q 296 246 328 228 q 247 372 257 274 q 249 570 238 469 q 273 757 261 671 q 282 849 285 843 q 238 865 278 857 q 139 885 197 874 q 49 906 81 896 z "},"ý":{"ha":757,"x_min":40,"x_max":718,"o":"m 268 1090 q 186 1081 186 1090 q 208 1044 200 1058 q 219 1022 215 1031 q 235 988 224 1013 q 263 929 247 963 l 264 929 q 404 929 353 944 q 290 1090 347 1000 q 268 1090 279 1090 m 554 935 q 546 931 550 935 q 536 922 542 928 q 528 914 531 915 q 435 754 490 861 q 360 614 381 647 q 343 630 357 611 q 311 678 329 649 q 274 739 293 708 q 234 797 254 769 q 200 832 214 824 q 171 860 190 839 q 135 892 151 881 q 101 901 118 904 q 95 803 97 828 q 81 740 93 779 q 40 647 68 701 q 120 582 79 619 q 209 497 161 544 q 289 421 257 449 q 233 212 279 369 q 179 -28 186 54 q 310 1 232 -4 q 418 -7 388 6 q 432 158 419 60 q 460 272 444 256 q 478 243 465 265 q 501 208 492 221 q 522 190 511 196 q 534 210 526 196 q 547 231 542 224 q 558 250 551 239 q 572 270 565 261 q 588 286 579 279 q 588 326 600 294 q 550 403 576 357 q 522 454 524 450 q 572 588 538 521 q 650 726 606 654 q 717 846 694 799 q 669 867 706 851 q 607 895 632 882 q 565 925 582 908 q 554 935 560 935 z "},"þ":{"ha":736,"x_min":40,"x_max":701,"o":"m 40 872 q 103 588 88 733 q 111 308 119 443 q 74 8 103 174 q 113 24 85 15 q 181 31 142 33 q 243 8 221 29 q 258 18 258 -1 q 257 49 258 28 q 269 92 253 82 q 343 113 285 103 q 361 117 356 115 q 532 193 457 136 q 647 324 607 250 q 694 481 688 397 q 671 635 700 564 q 564 760 642 707 q 371 824 486 813 q 338 827 356 826 q 310 828 319 828 q 290 829 300 828 q 276 833 281 831 q 270 840 272 835 q 269 853 268 846 q 274 874 269 861 q 220 903 276 896 q 105 900 164 910 q 40 872 46 890 m 378 663 q 457 649 426 663 q 492 626 479 640 q 521 588 506 613 q 535 514 533 565 q 526 435 536 463 q 458 341 506 381 q 346 283 410 301 q 312 278 325 279 q 291 297 299 278 q 280 354 283 315 q 276 468 276 393 l 275 639 l 313 651 q 378 663 347 661 z "},"ÿ":{"ha":757,"x_min":40,"x_max":718,"o":"m 249 1046 q 210 1029 225 1044 q 194 986 194 1014 q 246 931 197 932 q 296 945 282 931 q 310 988 310 960 q 292 1026 310 1010 q 249 1046 275 1043 m 404 1046 q 364 1029 379 1044 q 349 986 349 1014 q 401 931 351 932 q 450 945 436 931 q 464 988 464 960 q 447 1026 464 1010 q 404 1046 429 1043 m 554 935 q 546 931 550 935 q 536 922 542 928 q 528 914 531 915 q 435 754 490 861 q 360 614 381 647 q 343 630 357 611 q 311 678 329 649 q 274 739 293 708 q 234 797 254 769 q 200 832 214 824 q 171 860 190 839 q 135 892 151 881 q 101 901 118 904 q 95 803 97 828 q 81 740 93 779 q 40 647 68 701 q 120 582 79 619 q 209 497 161 544 q 289 421 257 449 q 233 212 279 369 q 179 -28 186 54 q 310 1 232 -4 q 418 -7 388 6 q 432 158 419 60 q 460 272 444 256 q 478 243 465 265 q 501 208 492 221 q 522 190 511 196 q 534 210 526 196 q 547 231 542 224 q 558 250 551 239 q 572 270 565 261 q 588 286 579 279 q 588 326 600 294 q 550 403 576 357 q 522 454 524 450 q 572 588 538 521 q 650 726 606 654 q 717 846 694 799 q 669 867 706 851 q 607 895 632 882 q 565 925 582 908 q 554 935 560 935 z "},"Ā":{"ha":596,"x_min":40,"x_max":557,"o":"m 240 1036 q 118 1026 167 1036 q 122 985 118 1014 q 125 939 125 956 q 228 963 172 960 q 343 946 285 965 q 343 1032 344 1010 q 240 1036 290 1036 m 207 915 q 154 900 163 915 q 40 8 49 606 q 98 27 63 25 q 163 23 133 29 q 211 6 192 17 q 217 87 217 32 q 218 167 217 142 q 269 286 232 282 q 342 224 322 288 q 357 151 347 204 q 375 58 367 99 q 386 17 383 17 q 556 113 435 103 q 372 786 453 515 q 344 845 360 821 q 317 882 329 869 q 283 902 306 894 q 251 910 261 910 q 214 914 242 911 q 207 915 211 915 m 244 647 q 247 647 246 647 q 272 631 263 646 q 292 574 281 615 q 319 486 303 538 q 333 422 342 422 q 270 445 303 446 q 208 424 238 444 q 209 525 201 432 q 226 636 217 618 q 244 647 233 647 z "},"ā":{"ha":596,"x_min":40,"x_max":557,"o":"m 240 1036 q 118 1026 167 1036 q 122 985 118 1014 q 125 939 125 956 q 228 963 172 960 q 343 946 285 965 q 343 1032 344 1010 q 240 1036 290 1036 m 207 915 q 154 900 163 915 q 40 8 49 606 q 98 27 63 25 q 163 23 133 29 q 211 6 192 17 q 217 87 217 32 q 218 167 217 142 q 269 286 232 282 q 342 224 322 288 q 357 151 347 204 q 375 58 367 99 q 386 17 383 17 q 556 113 435 103 q 372 786 453 515 q 344 845 360 821 q 317 882 329 869 q 283 902 306 894 q 251 910 261 910 q 214 914 242 911 q 207 915 211 915 m 244 647 q 247 647 246 647 q 272 631 263 646 q 292 574 281 615 q 319 486 303 538 q 333 422 342 422 q 270 445 303 446 q 208 424 238 444 q 209 525 201 432 q 226 636 217 618 q 244 647 233 647 z "},"Ă":{"ha":596,"x_min":40,"x_max":557,"o":"m 313 1094 q 294 1093 311 1094 q 268 1090 278 1092 q 258 1083 258 1088 q 251 1031 261 1060 q 219 1001 240 1001 q 193 1018 203 1006 q 183 1044 183 1031 q 181 1069 182 1057 q 181 1085 181 1081 q 153 1093 175 1092 q 129 1090 132 1094 q 139 999 114 1047 q 219 950 164 950 q 301 997 275 951 q 315 1094 328 1042 q 313 1094 314 1094 m 207 915 q 154 900 163 915 q 40 8 49 606 q 98 27 63 25 q 163 23 133 29 q 211 6 192 17 q 217 87 217 32 q 218 167 217 142 q 269 286 232 282 q 342 224 322 288 q 357 151 347 204 q 375 58 367 99 q 386 17 383 17 q 556 113 435 103 q 372 786 453 515 q 344 845 360 821 q 317 882 329 869 q 283 902 306 894 q 251 910 261 910 q 214 914 242 911 q 207 915 211 915 m 244 647 q 247 647 246 647 q 272 631 263 646 q 292 574 281 615 q 319 486 303 538 q 333 422 342 422 q 270 445 303 446 q 208 424 238 444 q 209 525 201 432 q 226 636 217 618 q 244 647 233 647 z "},"ă":{"ha":596,"x_min":40,"x_max":557,"o":"m 313 1094 q 294 1093 311 1094 q 268 1090 278 1092 q 258 1083 258 1088 q 251 1031 261 1060 q 219 1001 240 1001 q 193 1018 203 1006 q 183 1044 183 1031 q 181 1069 182 1057 q 181 1085 181 1081 q 153 1093 175 1092 q 129 1090 132 1094 q 139 999 114 1047 q 219 950 164 950 q 301 997 275 951 q 315 1094 328 1042 q 313 1094 314 1094 m 207 915 q 154 900 163 915 q 40 8 49 606 q 98 27 63 25 q 163 23 133 29 q 211 6 192 17 q 217 87 217 32 q 218 167 217 142 q 269 286 232 282 q 342 224 322 288 q 357 151 347 204 q 375 58 367 99 q 386 17 383 17 q 556 113 435 103 q 372 786 453 515 q 344 845 360 821 q 317 882 329 869 q 283 902 306 894 q 251 910 261 910 q 214 914 242 911 q 207 915 211 915 m 244 647 q 247 647 246 647 q 272 631 263 646 q 292 574 281 615 q 319 486 303 538 q 333 422 342 422 q 270 445 303 446 q 208 424 238 444 q 209 525 201 432 q 226 636 217 618 q 244 647 233 647 z "},"Ą":{"ha":596,"x_min":40,"x_max":557,"o":"m 207 915 q 154 900 163 915 q 40 8 49 606 q 98 27 63 25 q 163 23 133 29 q 211 6 192 17 q 217 87 217 32 q 218 167 217 142 q 269 286 232 282 q 342 224 322 288 q 374 68 344 214 q 357 -1 358 32 q 372 -59 356 -35 q 410 -96 388 -83 q 468 -103 433 -108 q 540 -72 503 -99 q 552 -62 550 -67 q 551 -56 554 -58 q 542 -51 549 -54 q 532 -43 536 -47 q 493 -32 517 -25 q 446 -32 461 -39 q 429 -4 431 -25 q 434 38 428 17 q 451 83 440 60 q 556 113 496 108 q 372 786 453 515 q 344 845 360 821 q 317 882 329 869 q 283 902 306 894 q 251 910 261 910 q 214 914 242 911 q 207 915 211 915 m 244 647 q 247 647 246 647 q 272 631 263 646 q 292 574 281 615 q 319 486 303 538 q 333 422 342 422 q 270 445 303 446 q 208 424 238 444 q 209 525 201 432 q 226 636 217 618 q 244 647 233 647 z "},"ą":{"ha":596,"x_min":40,"x_max":557,"o":"m 207 915 q 154 900 163 915 q 40 8 49 606 q 98 27 63 25 q 163 23 133 29 q 211 6 192 17 q 217 87 217 32 q 218 167 217 142 q 269 286 232 282 q 342 224 322 288 q 374 68 344 214 q 357 -1 358 32 q 372 -59 356 -35 q 410 -96 388 -83 q 468 -103 433 -108 q 540 -72 503 -99 q 552 -62 550 -67 q 551 -56 554 -58 q 542 -51 549 -54 q 532 -43 536 -47 q 493 -32 517 -25 q 446 -32 461 -39 q 429 -4 431 -25 q 434 38 428 17 q 451 83 440 60 q 556 113 496 108 q 372 786 453 515 q 344 845 360 821 q 317 882 329 869 q 283 902 306 894 q 251 910 261 910 q 214 914 242 911 q 207 915 211 915 m 244 647 q 247 647 246 647 q 272 631 263 646 q 292 574 281 615 q 319 486 303 538 q 333 422 342 422 q 270 445 303 446 q 208 424 238 444 q 209 525 201 432 q 226 636 217 618 q 244 647 233 647 z "},"Ć":{"ha":704,"x_min":33,"x_max":672,"o":"m 243 1090 q 161 1081 161 1090 q 183 1044 175 1058 q 194 1022 190 1031 q 210 988 199 1013 q 239 929 222 963 l 239 929 q 379 929 328 944 q 265 1090 322 1000 q 243 1090 254 1090 m 397 901 q 333 893 367 901 q 288 875 300 885 q 296 851 288 863 q 297 844 297 844 q 287 841 297 843 q 265 837 276 839 q 233 826 254 835 q 190 806 211 818 q 90 680 128 761 q 42 507 51 599 q 51 320 33 415 q 110 151 69 225 q 222 36 151 78 q 379 4 292 -6 q 566 87 493 19 q 661 276 639 154 q 654 342 672 338 q 633 321 644 344 q 480 206 560 231 q 344 217 400 181 q 250 317 288 254 q 217 468 213 381 q 274 629 222 556 q 318 672 313 686 q 318 668 319 671 q 347 542 319 631 q 401 562 369 550 q 445 579 432 574 q 475 592 458 585 q 501 605 492 599 q 518 619 511 611 q 444 888 465 800 q 397 901 439 903 z "},"ć":{"ha":704,"x_min":33,"x_max":672,"o":"m 243 1090 q 161 1081 161 1090 q 183 1044 175 1058 q 194 1022 190 1031 q 210 988 199 1013 q 239 929 222 963 l 239 929 q 379 929 328 944 q 265 1090 322 1000 q 243 1090 254 1090 m 397 901 q 333 893 367 901 q 288 875 300 885 q 296 851 288 863 q 297 844 297 844 q 287 841 297 843 q 265 837 276 839 q 233 826 254 835 q 190 806 211 818 q 90 680 128 761 q 42 507 51 599 q 51 320 33 415 q 110 151 69 225 q 222 36 151 78 q 379 4 292 -6 q 566 87 493 19 q 661 276 639 154 q 654 342 672 338 q 633 321 644 344 q 480 206 560 231 q 344 217 400 181 q 250 317 288 254 q 217 468 213 381 q 274 629 222 556 q 318 672 313 686 q 318 668 319 671 q 347 542 319 631 q 401 562 369 550 q 445 579 432 574 q 475 592 458 585 q 501 605 492 599 q 518 619 511 611 q 444 888 465 800 q 397 901 439 903 z "},"Ĉ":{"ha":704,"x_min":33,"x_max":672,"o":"m 233 1106 q 149 929 207 1058 q 243 925 160 929 q 250 944 244 926 q 264 987 256 963 q 278 1022 272 1011 q 297 976 282 1011 q 315 929 311 942 q 410 929 389 926 q 321 1104 403 943 q 233 1106 257 1106 m 397 901 q 333 893 367 901 q 288 875 300 885 q 296 851 288 863 q 297 844 297 844 q 287 841 297 843 q 265 837 276 839 q 233 826 254 835 q 190 806 211 818 q 90 680 128 761 q 42 507 51 599 q 51 320 33 415 q 110 151 69 225 q 222 36 151 78 q 379 4 292 -6 q 566 87 493 19 q 661 276 639 154 q 654 342 672 338 q 633 321 644 344 q 480 206 560 231 q 344 217 400 181 q 250 317 288 254 q 217 468 213 381 q 274 629 222 556 q 318 672 313 686 q 318 668 319 671 q 347 542 319 631 q 401 562 369 550 q 445 579 432 574 q 475 592 458 585 q 501 605 492 599 q 518 619 511 611 q 444 888 465 800 q 397 901 439 903 z "},"ĉ":{"ha":704,"x_min":33,"x_max":672,"o":"m 233 1106 q 149 929 207 1058 q 243 925 160 929 q 250 944 244 926 q 264 987 256 963 q 278 1022 272 1011 q 297 976 282 1011 q 315 929 311 942 q 410 929 389 926 q 321 1104 403 943 q 233 1106 257 1106 m 397 901 q 333 893 367 901 q 288 875 300 885 q 296 851 288 863 q 297 844 297 844 q 287 841 297 843 q 265 837 276 839 q 233 826 254 835 q 190 806 211 818 q 90 680 128 761 q 42 507 51 599 q 51 320 33 415 q 110 151 69 225 q 222 36 151 78 q 379 4 292 -6 q 566 87 493 19 q 661 276 639 154 q 654 342 672 338 q 633 321 644 344 q 480 206 560 231 q 344 217 400 181 q 250 317 288 254 q 217 468 213 381 q 274 629 222 556 q 318 672 313 686 q 318 668 319 671 q 347 542 319 631 q 401 562 369 550 q 445 579 432 574 q 475 592 458 585 q 501 605 492 599 q 518 619 511 611 q 444 888 465 800 q 397 901 439 903 z "},"Č":{"ha":704,"x_min":33,"x_max":672,"o":"m 253 1106 q 158 1101 169 1103 q 243 925 217 972 q 331 926 267 926 q 419 1101 411 1088 q 325 1103 399 1106 q 306 1055 321 1090 q 286 1008 290 1019 q 274 1045 282 1021 q 260 1087 265 1069 q 253 1106 254 1104 m 397 901 q 333 893 367 901 q 288 875 300 885 q 296 851 288 863 q 297 844 297 844 q 287 841 297 843 q 265 837 276 839 q 233 826 254 835 q 190 806 211 818 q 90 680 128 761 q 42 507 51 599 q 51 320 33 415 q 110 151 69 225 q 222 36 151 78 q 379 4 292 -6 q 566 87 493 19 q 661 276 639 154 q 654 342 672 338 q 633 321 644 344 q 480 206 560 231 q 344 217 400 181 q 250 317 288 254 q 217 468 213 381 q 274 629 222 556 q 318 672 313 686 q 318 668 319 671 q 347 542 319 631 q 401 562 369 550 q 445 579 432 574 q 475 592 458 585 q 501 605 492 599 q 518 619 511 611 q 444 888 465 799 q 397 901 439 903 z "},"č":{"ha":704,"x_min":33,"x_max":672,"o":"m 253 1106 q 158 1101 169 1103 q 243 925 217 972 q 331 926 267 926 q 419 1101 411 1088 q 325 1103 399 1106 q 306 1055 321 1090 q 286 1008 290 1019 q 274 1045 282 1021 q 260 1087 265 1069 q 253 1106 254 1104 m 397 901 q 333 893 367 901 q 288 875 300 885 q 296 851 288 863 q 297 844 297 844 q 287 841 297 843 q 265 837 276 839 q 233 826 254 835 q 190 806 211 818 q 90 680 128 761 q 42 507 51 599 q 51 320 33 415 q 110 151 69 225 q 222 36 151 78 q 379 4 292 -6 q 566 87 493 19 q 661 276 639 154 q 654 342 672 338 q 633 321 644 344 q 480 206 560 231 q 344 217 400 181 q 250 317 288 254 q 217 468 213 381 q 274 629 222 556 q 318 672 313 686 q 318 668 319 671 q 347 542 319 631 q 401 562 369 550 q 445 579 432 574 q 475 592 458 585 q 501 605 492 599 q 518 619 511 611 q 444 888 465 799 q 397 901 439 903 z "},"Ē":{"ha":632,"x_min":38,"x_max":594,"o":"m 285 1018 q 164 1008 213 1018 q 167 967 164 996 q 171 921 169 938 q 274 944 218 942 q 389 928 331 947 q 388 1014 389 992 q 285 1018 335 1018 m 244 892 q 117 888 158 892 q 80 884 92 886 q 56 876 68 882 q 42 859 44 871 q 42 828 39 847 q 90 372 65 679 q 118 26 114 64 l 117 3 l 176 0 q 403 0 251 -4 q 572 11 554 4 q 592 22 592 17 q 579 43 593 28 q 540 158 540 86 q 544 214 539 199 q 542 226 547 226 q 467 210 536 226 q 331 183 399 193 q 260 178 264 172 q 254 235 253 188 q 263 289 256 283 q 476 343 275 299 q 492 357 492 347 q 478 400 493 367 q 464 444 465 426 q 471 494 463 461 q 474 511 474 506 q 475 520 475 517 q 473 524 475 524 q 467 525 471 525 q 300 490 410 518 q 264 484 286 486 q 240 485 242 482 q 233 528 235 492 q 230 604 231 564 q 228 654 229 644 q 517 689 314 665 q 497 769 503 719 q 499 839 492 818 q 504 885 511 879 q 435 890 497 890 q 265 892 364 890 q 244 892 256 892 z "},"ē":{"ha":632,"x_min":38,"x_max":594,"o":"m 285 1018 q 164 1008 213 1018 q 167 967 164 996 q 171 921 169 938 q 274 944 218 942 q 389 928 331 947 q 388 1014 389 992 q 285 1018 335 1018 m 244 892 q 117 888 158 892 q 80 884 92 886 q 56 876 68 882 q 42 859 44 871 q 42 828 39 847 q 90 372 65 679 q 118 26 114 64 l 117 3 l 176 0 q 403 0 251 -4 q 572 11 554 4 q 592 22 592 17 q 579 43 593 28 q 540 158 540 86 q 544 214 539 199 q 542 226 547 226 q 467 210 536 226 q 331 183 399 193 q 260 178 264 172 q 254 235 253 188 q 263 289 256 283 q 476 343 275 299 q 492 357 492 347 q 478 400 493 367 q 464 444 465 426 q 471 494 463 461 q 474 511 474 506 q 475 520 475 517 q 473 524 475 524 q 467 525 471 525 q 300 490 410 518 q 264 484 286 486 q 240 485 242 482 q 233 528 235 492 q 230 604 231 564 q 228 654 229 644 q 517 689 314 665 q 497 769 503 719 q 499 839 492 818 q 504 885 511 879 q 435 890 497 890 q 265 892 364 890 q 244 892 256 892 z "},"Ĕ":{"ha":632,"x_min":38,"x_max":594,"o":"m 378 1076 q 361 1075 378 1076 q 334 1072 344 1074 q 325 1065 324 1069 q 316 1013 326 1042 q 286 983 306 983 q 260 1000 269 988 q 249 1026 250 1013 q 248 1051 249 1039 q 247 1067 247 1063 q 220 1075 242 1074 q 196 1072 199 1076 q 205 981 179 1029 q 285 932 231 932 q 367 978 342 933 q 381 1076 393 1024 q 378 1076 381 1076 m 244 892 q 117 888 158 892 q 80 884 92 886 q 56 876 68 882 q 42 859 44 871 q 42 828 39 847 q 90 372 65 679 q 118 26 114 64 l 117 3 l 176 0 q 403 0 251 -4 q 572 11 554 4 q 592 22 592 17 q 579 43 593 28 q 540 158 540 86 q 544 214 539 199 q 542 226 547 226 q 467 210 536 226 q 331 183 399 193 q 260 178 264 172 q 254 235 253 188 q 263 289 256 283 q 476 343 275 299 q 492 357 492 347 q 478 400 493 367 q 464 444 465 426 q 471 494 463 461 q 474 511 474 506 q 475 520 475 517 q 473 524 475 524 q 467 525 471 525 q 300 490 410 518 q 264 484 286 486 q 240 485 242 482 q 233 528 235 492 q 230 604 231 564 q 228 654 229 644 q 517 689 314 665 q 497 769 503 719 q 499 839 492 818 q 504 885 511 879 q 435 890 497 890 q 265 892 364 890 q 244 892 256 892 z "},"ĕ":{"ha":632,"x_min":38,"x_max":594,"o":"m 378 1076 q 361 1075 378 1076 q 334 1072 344 1074 q 325 1065 324 1069 q 316 1013 326 1042 q 286 983 306 983 q 260 1000 269 988 q 249 1026 250 1013 q 248 1051 249 1039 q 247 1067 247 1063 q 220 1075 242 1074 q 196 1072 199 1076 q 205 981 179 1029 q 285 932 231 932 q 367 978 342 933 q 381 1076 393 1024 q 378 1076 381 1076 m 244 892 q 117 888 158 892 q 80 884 92 886 q 56 876 68 882 q 42 859 44 871 q 42 828 39 847 q 90 372 65 679 q 118 26 114 64 l 117 3 l 176 0 q 403 0 251 -4 q 572 11 554 4 q 592 22 592 17 q 579 43 593 28 q 540 158 540 86 q 544 214 539 199 q 542 226 547 226 q 467 210 536 226 q 331 183 399 193 q 260 178 264 172 q 254 235 253 188 q 263 289 256 283 q 476 343 275 299 q 492 357 492 347 q 478 400 493 367 q 464 444 465 426 q 471 494 463 461 q 474 511 474 506 q 475 520 475 517 q 473 524 475 524 q 467 525 471 525 q 300 490 410 518 q 264 484 286 486 q 240 485 242 482 q 233 528 235 492 q 230 604 231 564 q 228 654 229 644 q 517 689 314 665 q 497 769 503 719 q 499 839 492 818 q 504 885 511 879 q 435 890 497 890 q 265 892 364 890 q 244 892 256 892 z "},"ě":{"ha":632,"x_min":38,"x_max":594,"o":"m 264 1106 q 169 1101 179 1103 q 253 925 228 972 q 342 926 276 926 q 429 1101 422 1088 q 336 1103 410 1106 q 316 1055 331 1090 q 297 1008 301 1019 q 285 1045 293 1021 q 270 1087 276 1069 q 264 1106 264 1104 m 244 892 q 117 888 158 892 q 80 884 92 886 q 56 876 68 882 q 42 859 44 871 q 42 828 39 847 q 90 372 65 679 q 118 26 114 64 l 117 3 l 176 0 q 403 0 251 -4 q 572 11 554 4 q 592 22 592 17 q 579 43 593 28 q 540 158 540 86 q 544 214 539 199 q 542 226 547 226 q 467 210 536 226 q 331 183 399 193 q 260 178 264 172 q 254 235 253 188 q 263 289 256 283 q 476 343 275 299 q 492 357 492 347 q 478 400 493 367 q 464 444 465 426 q 471 494 463 461 q 474 511 474 506 q 475 520 475 517 q 473 524 475 524 q 467 525 471 525 q 300 490 410 518 q 264 484 286 486 q 240 485 242 482 q 233 528 235 492 q 230 604 231 564 q 228 654 229 644 q 517 689 314 665 q 497 769 503 719 q 499 839 492 818 q 504 885 511 879 q 435 890 497 890 q 265 892 364 890 q 244 892 256 892 z "},"ŕ":{"ha":781,"x_min":40,"x_max":743,"o":"m 244 1090 q 161 1081 161 1090 q 183 1044 175 1058 q 194 1022 190 1031 q 210 988 199 1013 q 239 929 222 963 l 240 929 q 381 929 329 944 q 267 1090 322 1000 q 244 1090 256 1090 m 315 893 q 117 871 225 892 q 40 843 72 860 q 87 401 50 657 q 164 -1 124 144 q 278 13 186 1 q 378 25 371 25 q 393 35 390 26 q 386 54 396 44 q 349 129 369 72 q 328 213 328 186 q 332 222 328 217 q 340 231 336 228 q 353 238 344 233 q 363 243 361 243 q 485 7 422 154 q 538 17 494 -6 q 643 78 581 40 q 739 129 706 117 q 741 138 742 133 q 736 142 740 142 q 665 174 699 146 q 593 247 631 203 q 539 306 556 292 l 551 325 q 653 617 644 489 q 575 819 661 744 q 315 893 489 894 m 328 733 q 437 701 386 733 q 493 615 488 668 q 442 516 497 574 q 328 425 386 458 q 268 408 271 392 q 229 599 264 461 q 240 699 210 664 q 328 733 271 733 z "},"ř":{"ha":781,"x_min":40,"x_max":743,"o":"m 261 1106 q 167 1101 176 1103 q 250 925 225 972 q 339 926 274 926 q 426 1101 419 1088 q 333 1103 407 1106 q 313 1055 328 1090 q 294 1008 299 1019 q 281 1045 289 1021 q 267 1087 274 1069 q 261 1106 261 1104 m 315 893 q 117 871 225 892 q 40 843 72 860 q 87 401 50 657 q 164 -1 124 144 q 278 13 186 1 q 378 25 371 25 q 393 35 390 26 q 386 54 396 44 q 349 129 369 72 q 328 213 328 186 q 332 222 328 217 q 340 231 336 228 q 353 238 344 233 q 363 243 361 243 q 485 7 422 154 q 538 17 494 -6 q 643 78 581 40 q 739 129 706 117 q 741 138 742 133 q 736 142 740 142 q 665 174 699 146 q 593 247 631 203 q 539 306 556 292 l 551 325 q 653 617 644 489 q 575 819 661 744 q 315 893 489 894 m 328 733 q 437 701 386 733 q 493 615 488 668 q 442 516 497 574 q 328 425 386 458 q 268 408 271 392 q 229 599 264 461 q 240 699 210 664 q 328 733 271 733 z "},"ś":{"ha":665,"x_min":25,"x_max":661,"o":"m 244 1090 q 222 1090 233 1090 q 108 929 165 1000 q 249 929 153 943 q 277 988 265 963 q 293 1022 289 1013 q 305 1044 297 1031 q 326 1081 313 1058 q 244 1090 326 1090 m 394 940 q 346 928 383 939 q 254 908 300 913 q 203 901 211 906 q 206 879 196 897 q 213 859 215 861 q 181 839 210 857 q 94 749 133 807 q 44 640 54 692 q 88 468 25 528 q 267 421 150 408 q 294 425 283 424 q 325 428 306 426 q 356 428 344 429 q 381 424 367 426 q 402 414 396 421 q 412 396 408 407 q 410 368 415 385 q 394 329 406 351 q 321 271 365 289 q 231 255 276 253 q 135 260 186 257 q 133 162 142 203 q 108 81 125 121 q 86 19 90 42 q 389 63 225 -39 q 585 268 518 142 q 597 504 661 411 q 235 599 517 624 q 229 649 206 600 q 263 694 242 671 l 279 713 l 307 681 q 343 647 336 647 q 379 674 350 647 q 435 714 408 701 q 465 739 468 729 q 461 743 465 742 q 438 764 453 746 q 414 800 424 782 q 395 859 401 825 q 394 914 389 893 q 396 940 400 938 q 394 940 396 940 z "},"ŝ":{"ha":665,"x_min":25,"x_max":661,"o":"m 178 1106 q 94 929 151 1058 q 188 925 104 929 q 195 944 189 926 q 209 987 201 963 q 222 1022 217 1011 q 241 976 226 1011 q 260 929 256 942 q 351 929 328 926 q 349 928 351 929 q 346 928 347 928 q 254 908 300 913 q 203 901 211 906 q 206 879 196 897 q 213 859 215 861 q 181 839 210 857 q 94 749 133 807 q 44 640 54 692 q 88 468 25 528 q 267 421 150 408 q 294 425 283 424 q 325 428 306 426 q 356 428 344 429 q 381 424 367 426 q 402 414 396 421 q 412 396 408 407 q 410 368 415 385 q 394 329 406 351 q 321 271 365 289 q 231 255 276 253 q 135 260 186 257 q 133 162 142 203 q 108 81 125 121 q 86 19 90 42 q 389 63 225 -39 q 585 268 518 142 q 597 504 661 411 q 235 599 517 624 q 229 649 206 600 q 263 694 242 671 l 279 713 l 307 681 q 343 647 336 647 q 379 674 350 647 q 435 714 408 701 q 465 739 468 729 q 461 743 465 742 q 438 764 453 746 q 414 800 424 782 q 395 859 401 825 q 394 914 389 893 q 396 940 400 938 q 354 929 393 942 q 267 1104 346 944 q 178 1106 186 1106 z "},"ş":{"ha":665,"x_min":25,"x_max":628,"o":"m 394 940 q 346 928 383 939 q 254 908 300 913 q 203 901 211 906 q 206 879 196 897 q 213 859 215 861 q 181 839 210 857 q 94 749 133 807 q 44 640 54 692 q 88 468 25 528 q 267 421 150 408 q 294 425 283 424 q 325 428 306 426 q 356 428 344 429 q 381 424 367 426 q 402 414 396 421 q 412 396 408 407 q 410 368 415 385 q 394 329 406 351 q 321 271 365 289 q 231 255 276 253 q 135 260 186 257 q 133 162 142 203 q 108 81 125 121 q 86 19 90 42 q 161 0 122 4 q 133 -47 147 -21 q 113 -81 118 -72 l 107 -90 l 115 -93 q 144 -94 122 -96 q 194 -106 179 -92 q 200 -122 201 -111 q 180 -148 196 -139 q 140 -154 164 -157 q 79 -119 108 -151 q 61 -101 63 -101 q 60 -118 60 -104 q 61 -151 60 -132 q 65 -175 63 -169 q 93 -208 74 -199 q 141 -214 104 -214 q 204 -206 178 -214 q 246 -188 233 -197 q 267 -160 258 -179 q 278 -132 276 -140 q 278 -87 282 -107 q 263 -65 274 -75 q 240 -50 251 -54 q 224 -46 228 -47 q 253 -3 215 -43 q 261 7 257 3 q 517 171 403 40 q 625 414 628 296 q 465 586 622 546 q 235 599 374 611 q 229 649 206 600 q 263 694 242 671 l 279 713 l 307 681 q 343 647 336 647 q 379 674 350 647 q 435 714 408 701 q 465 739 468 729 q 461 743 465 742 q 438 764 453 746 q 414 800 424 782 q 395 859 401 825 q 394 914 389 893 q 396 940 400 938 q 394 940 396 940 z "},"š":{"ha":665,"x_min":25,"x_max":661,"o":"m 203 1106 q 110 1101 119 1103 q 193 925 167 972 q 282 926 217 926 q 369 1101 363 1088 q 275 1103 350 1106 q 256 1055 271 1090 q 238 1008 242 1019 q 224 1045 232 1021 q 210 1087 217 1069 q 203 1106 204 1104 m 394 940 q 346 928 383 939 q 254 908 300 913 q 203 901 211 906 q 206 879 196 897 q 213 859 215 861 q 181 839 210 857 q 94 749 133 807 q 44 640 54 692 q 88 468 25 528 q 267 421 150 408 q 294 425 283 424 q 325 428 306 426 q 356 428 344 429 q 381 424 367 426 q 402 414 396 421 q 412 396 408 407 q 410 368 415 385 q 394 329 406 351 q 321 271 365 289 q 231 255 276 253 q 135 260 186 257 q 133 162 142 203 q 108 81 125 121 q 86 19 90 42 q 389 63 225 -39 q 585 268 518 142 q 597 504 661 411 q 235 599 517 624 q 229 649 206 600 q 263 694 242 671 l 279 713 l 307 681 q 343 647 336 647 q 379 674 350 647 q 435 714 408 701 q 465 739 468 729 q 461 743 465 742 q 438 764 453 746 q 414 800 424 782 q 395 859 401 825 q 394 914 389 893 q 396 940 400 938 q 394 940 396 940 z "},"ˇ":{"ha":340,"x_min":40,"x_max":301,"o":"m 125 753 q 40 929 99 800 q 135 933 50 929 q 142 915 136 932 q 156 872 147 897 q 168 836 164 847 q 188 883 172 847 q 207 931 203 918 q 300 929 281 932 q 213 754 293 915 q 125 753 171 754 z "},"ˆ":{"ha":340,"x_min":40,"x_max":301,"o":"m 125 933 q 40 757 99 886 q 135 753 50 757 q 142 772 136 754 q 156 814 147 789 q 168 850 164 839 q 188 803 172 839 q 207 756 203 768 q 300 757 281 754 q 213 932 293 771 q 125 933 161 932 z "},"ź":{"ha":871,"x_min":40,"x_max":851,"o":"m 461 1090 q 439 1090 450 1090 q 325 929 383 1000 q 467 929 369 943 q 495 988 483 963 q 511 1022 507 1013 q 523 1044 515 1031 q 544 1081 531 1058 q 461 1090 544 1090 m 442 896 q 218 890 322 896 q 85 876 114 885 q 87 830 79 857 q 98 772 94 803 q 78 667 101 742 q 115 669 78 661 q 207 692 151 678 q 319 719 263 707 q 421 728 375 731 q 478 703 467 725 q 236 383 354 579 q 40 -7 118 186 q 310 8 113 11 q 567 -17 507 4 q 585 19 579 -11 q 595 85 592 49 q 617 167 599 121 q 668 249 635 214 q 507 229 633 251 q 350 208 381 207 q 463 397 385 292 q 669 650 542 503 q 828 835 797 797 q 721 882 850 867 q 442 896 617 896 z "},"ž":{"ha":871,"x_min":40,"x_max":851,"o":"m 378 1106 q 283 1101 294 1103 q 368 925 342 972 q 456 926 382 926 q 544 1101 538 1089 q 450 1103 524 1106 q 431 1055 446 1090 q 411 1008 415 1019 q 399 1045 407 1021 q 385 1087 390 1069 q 378 1106 379 1104 m 442 896 q 218 890 322 896 q 85 876 114 885 q 87 830 79 857 q 98 772 94 803 q 78 667 101 742 q 115 669 78 661 q 207 692 151 678 q 319 719 263 707 q 421 728 375 731 q 478 703 467 725 q 236 383 354 579 q 40 -7 118 186 q 310 8 113 11 q 567 -17 507 4 q 585 19 579 -11 q 595 85 592 49 q 617 167 599 121 q 668 249 635 214 q 507 229 633 251 q 350 208 381 207 q 463 397 385 292 q 669 650 542 503 q 828 835 797 797 q 721 882 850 867 q 442 896 617 896 z "},"˜":{"ha":379,"x_min":40,"x_max":340,"o":"m 267 914 q 238 874 258 883 q 196 885 217 864 q 138 928 169 918 q 79 911 107 938 q 40 821 51 885 q 56 801 43 810 q 81 791 69 792 q 96 799 92 790 q 119 835 107 826 q 145 838 132 844 q 172 822 158 832 q 201 801 185 811 q 229 792 217 792 q 340 907 307 797 q 302 931 335 928 q 267 914 269 933 z "},"˛":{"ha":275,"x_min":38,"x_max":238,"o":"m 143 138 q 119 136 136 138 q 77 135 78 135 q 76 127 76 135 q 63 82 76 119 q 41 -8 39 36 q 67 -77 43 -53 q 132 -105 92 -101 q 222 -72 172 -108 q 234 -62 232 -67 q 234 -56 236 -58 q 226 -51 232 -54 q 215 -43 219 -47 q 176 -32 199 -25 q 111 8 108 -50 q 153 113 115 60 q 163 133 164 128 q 143 138 161 138 z "},"˝":{"ha":474,"x_min":40,"x_max":435,"o":"m 194 901 q 142 893 147 901 q 50 679 103 779 l 40 663 l 89 661 l 138 658 l 207 778 l 276 897 q 194 901 235 903 m 350 901 q 299 893 304 901 q 207 679 260 779 l 197 663 l 244 661 l 293 658 l 364 778 l 433 897 q 350 901 392 903 z "},"ʻ":{"ha":228,"x_min":31,"x_max":189,"o":"m 101 899 q 145 893 106 901 q 186 885 185 885 l 156 858 q 114 818 114 821 q 167 796 144 818 q 189 742 189 774 q 167 690 189 711 q 114 668 144 668 q 46 724 60 675 q 51 826 32 774 q 101 899 71 879 z "},"ʼ":{"ha":228,"x_min":40,"x_max":197,"o":"m 128 668 q 84 674 124 667 q 43 682 44 682 l 72 710 q 115 749 115 747 q 63 771 85 749 q 40 824 40 793 q 63 878 40 856 q 115 900 85 900 q 183 843 169 893 q 178 741 197 793 q 128 668 158 689 z "},"ˮ":{"ha":389,"x_min":40,"x_max":358,"o":"m 115 900 q 63 878 85 900 q 40 824 40 856 q 63 771 40 793 q 115 749 85 749 q 94 728 118 749 q 72 710 88 722 l 43 682 q 84 674 44 682 q 128 668 124 667 q 178 741 158 689 q 183 843 197 793 q 115 900 169 893 m 276 900 q 224 878 246 900 q 201 824 201 856 q 224 771 201 793 q 276 749 246 749 q 254 728 279 749 q 233 710 249 722 l 204 682 q 245 674 206 682 q 289 668 285 667 q 339 741 319 689 q 344 843 358 793 q 276 900 331 893 z "},"˂":{"ha":526,"x_min":39,"x_max":493,"o":"m 436 708 q 435 708 436 708 q 326 656 396 689 q 215 602 256 622 q 128 556 174 582 q 62 508 83 531 q 40 464 40 485 q 96 394 40 429 q 326 269 151 358 q 424 221 389 239 q 449 239 431 217 q 479 286 467 261 q 485 314 492 311 q 383 355 460 325 q 246 413 307 385 q 147 464 185 440 q 331 553 197 499 q 486 618 464 607 q 481 644 490 621 q 456 688 471 667 q 436 708 442 710 z "},"˃":{"ha":526,"x_min":35,"x_max":489,"o":"m 92 708 q 93 708 92 708 q 202 656 132 689 q 313 602 272 622 q 399 556 353 582 q 466 508 444 531 q 488 464 488 485 q 432 394 488 429 q 201 269 376 358 q 104 221 139 239 q 78 239 97 217 q 48 286 60 261 q 43 314 36 311 q 144 355 67 325 q 281 413 221 385 q 381 464 342 440 q 197 553 331 499 q 42 618 64 607 q 47 644 38 621 q 72 688 57 667 q 92 708 86 710 z "},"₧":{"ha":1368,"x_min":40,"x_max":1357,"o":"m 1175 669 q 1143 660 1168 668 q 1082 649 1113 650 q 1048 643 1053 646 q 1050 629 1043 640 q 1055 615 1057 617 q 1033 601 1053 614 q 976 542 1003 581 q 943 469 949 504 q 972 355 931 394 q 1090 324 1014 315 q 1117 327 1107 326 q 1143 328 1126 328 q 1168 326 1160 329 q 1183 315 1176 322 q 1188 295 1190 308 q 1175 263 1186 282 q 1127 224 1157 236 q 1067 213 1097 213 q 1003 217 1038 214 q 1002 151 1007 178 q 985 97 997 124 q 971 57 974 71 q 1190 97 1072 14 q 1318 258 1286 164 q 1271 415 1356 365 q 1069 442 1204 454 q 1069 482 1047 443 q 1088 506 1076 493 l 1099 518 l 1118 496 q 1142 474 1138 474 q 1165 492 1146 474 q 1203 518 1185 510 q 1221 538 1229 532 q 1205 552 1215 540 q 1189 575 1194 564 q 1175 651 1168 617 q 1176 669 1179 667 q 1175 669 1176 669 m 906 647 q 694 619 769 628 q 575 608 619 611 q 497 601 531 606 q 507 544 497 597 q 514 447 517 492 q 663 485 638 479 l 660 442 q 658 241 658 418 q 658 49 657 64 q 725 54 676 53 q 782 54 774 56 q 774 186 778 78 q 771 465 767 442 l 774 479 q 817 474 794 478 q 869 465 839 471 q 911 457 900 460 q 904 544 906 489 q 908 647 903 600 q 906 647 908 647 m 193 643 q 40 635 139 644 l 42 621 q 107 46 78 457 q 173 57 136 56 q 232 56 210 58 q 261 51 254 54 q 242 133 258 83 q 222 210 226 183 l 272 211 q 397 260 347 219 q 460 356 446 301 q 467 465 474 410 q 428 566 461 521 q 346 628 394 611 q 193 643 272 643 m 228 538 q 315 515 274 538 q 361 449 356 493 q 357 384 367 410 q 322 346 347 358 q 273 328 297 333 q 210 319 249 324 q 185 408 197 319 q 179 519 174 496 q 228 538 182 538 z "},"₤":{"ha":656,"x_min":39,"x_max":617,"o":"m 447 896 q 215 790 303 897 q 104 507 128 683 q 47 515 74 510 q 40 477 42 517 q 43 399 39 438 q 53 365 47 361 q 96 376 74 372 q 96 340 96 358 q 47 347 71 343 q 40 310 42 349 q 43 233 39 271 q 53 197 47 194 q 108 211 78 207 q 157 7 124 106 q 532 -4 444 25 q 572 94 547 38 q 615 172 597 150 q 589 171 615 172 q 521 168 563 169 q 428 165 479 167 q 331 164 378 164 q 249 165 285 164 q 235 221 240 189 q 371 211 281 219 q 377 247 375 211 q 378 317 379 282 q 372 351 376 351 q 224 338 292 340 q 224 388 224 364 q 371 379 274 388 q 377 414 375 379 q 378 483 379 449 q 372 518 376 518 q 236 506 299 508 q 258 592 246 553 q 374 685 288 658 q 524 689 460 711 q 551 882 547 807 q 447 896 497 896 z "},"€":{"ha":526,"x_min":39,"x_max":488,"o":"m 417 901 q 329 910 411 911 q 242 900 247 910 q 142 593 165 769 q 49 603 92 594 q 40 562 42 604 q 43 478 39 519 q 54 442 47 438 q 135 460 90 454 q 138 404 135 432 q 49 414 89 407 q 40 373 42 415 q 43 290 39 331 q 54 253 47 249 q 158 274 100 268 q 297 36 199 121 q 408 26 331 19 q 488 50 485 32 q 458 81 478 65 q 313 274 357 163 q 396 268 340 272 q 403 305 401 267 q 404 381 406 343 q 397 418 403 418 q 282 406 336 410 q 279 465 279 435 q 396 457 318 464 q 403 494 401 457 q 404 569 406 532 q 397 607 403 607 q 294 596 343 600 q 401 865 324 728 q 417 901 422 894 z "},"™":{"ha":556,"x_min":39,"x_max":517,"o":"m 486 913 q 466 899 482 908 q 443 882 450 889 q 430 814 436 875 q 403 717 424 753 q 349 901 365 800 q 276 897 290 900 q 281 828 278 872 q 286 755 285 785 q 287 685 288 725 q 281 610 286 644 q 317 593 296 607 q 330 592 326 586 q 333 611 333 599 q 339 660 336 628 q 344 707 342 693 q 353 690 346 703 q 368 665 361 676 q 383 642 375 654 q 399 622 392 629 q 414 611 407 614 q 429 647 418 622 q 444 681 440 672 q 457 589 457 633 q 472 586 460 586 q 498 592 483 586 q 515 604 513 597 q 499 690 504 643 q 490 813 493 736 q 486 913 488 890 m 256 904 q 144 890 185 894 q 81 883 104 885 q 40 879 58 882 q 45 850 40 878 q 49 797 50 822 q 128 818 114 815 l 126 796 q 125 689 125 783 q 125 588 125 594 q 160 590 135 589 q 190 589 186 590 q 186 660 189 603 q 185 808 183 796 l 186 815 q 260 803 194 814 q 258 904 250 853 q 257 904 257 904 l 256 904 z "},"№":{"ha":713,"x_min":40,"x_max":674,"o":"m 151 565 q 115 557 147 565 q 47 560 61 544 q 40 560 43 563 q 46 38 65 246 q 56 39 50 36 q 83 40 58 42 q 126 33 107 38 q 143 34 140 31 q 144 58 146 38 q 144 122 143 79 q 146 207 144 164 q 149 247 147 250 q 157 228 151 246 q 200 121 175 167 q 256 24 246 38 q 267 28 257 22 q 364 44 288 40 l 378 44 q 392 299 378 107 q 397 563 406 490 q 294 560 307 561 q 292 482 293 531 q 290 405 292 433 q 285 325 289 376 q 275 213 282 274 q 216 353 233 299 q 176 500 199 407 q 172 518 175 507 q 163 556 167 547 q 151 565 160 565 m 550 525 q 471 490 504 525 q 428 401 438 454 q 438 275 417 333 q 504 199 460 217 q 613 226 549 181 q 660 328 644 260 q 643 460 674 386 q 553 525 613 526 q 550 525 551 525 m 532 447 q 551 443 540 446 q 588 407 576 432 q 594 347 600 375 q 574 301 588 317 q 510 299 533 274 q 489 369 486 325 q 532 447 497 447 m 667 179 q 424 178 517 161 q 418 151 419 178 q 420 97 417 124 q 428 72 424 69 q 667 82 500 96 q 672 107 669 82 q 672 156 674 132 q 667 179 671 181 z "},"—":{"ha":825,"x_min":38,"x_max":789,"o":"m 57 497 q 771 500 329 479 q 785 474 781 500 q 784 420 789 447 q 768 393 779 393 q 68 382 281 408 q 47 409 56 379 q 40 469 38 439 q 57 497 43 499 z "},"–":{"ha":535,"x_min":38,"x_max":497,"o":"m 50 497 q 486 500 217 479 q 494 474 492 500 q 493 420 496 447 q 485 393 490 393 q 57 382 186 408 q 44 409 50 379 q 40 469 39 439 q 50 497 42 499 z "},"“":{"ha":389,"x_min":31,"x_max":350,"o":"m 275 668 q 328 690 306 668 q 350 742 350 711 q 328 796 350 774 q 275 818 306 818 q 296 840 271 818 q 317 858 303 846 l 347 885 q 306 893 346 885 q 263 899 267 901 q 213 826 232 879 q 206 724 193 774 q 275 668 219 675 m 114 668 q 167 690 144 668 q 189 742 189 711 q 167 796 189 774 q 114 818 144 818 q 135 840 110 818 q 156 858 142 846 l 186 885 q 145 893 185 885 q 101 899 106 901 q 51 826 71 879 q 46 724 32 774 q 114 668 60 675 z "},"”":{"ha":389,"x_min":40,"x_max":358,"o":"m 115 900 q 63 878 85 900 q 40 824 40 856 q 63 771 40 793 q 115 749 85 749 q 94 728 118 749 q 72 710 88 722 l 43 682 q 84 674 44 682 q 128 668 124 667 q 178 741 158 689 q 183 843 197 793 q 115 900 169 893 m 276 900 q 224 878 246 900 q 201 824 201 856 q 224 771 201 793 q 276 749 246 749 q 254 728 279 749 q 233 710 249 722 l 204 682 q 245 674 206 682 q 289 668 285 667 q 339 741 319 689 q 344 843 358 793 q 276 900 331 893 z "},"„":{"ha":389,"x_min":40,"x_max":358,"o":"m 115 165 q 63 144 85 165 q 40 91 40 122 q 63 38 40 60 q 115 15 85 15 q 94 -6 118 15 q 72 -25 88 -12 l 43 -51 q 84 -60 44 -51 q 128 -65 124 -68 q 178 7 158 -46 q 183 110 197 60 q 115 165 169 160 m 276 165 q 224 144 246 165 q 201 91 201 122 q 224 38 201 60 q 276 15 246 15 q 254 -6 279 15 q 233 -25 249 -12 l 204 -51 q 245 -60 206 -51 q 289 -65 285 -68 q 339 7 319 -46 q 344 110 358 60 q 276 165 331 160 z "},"≥":{"ha":450,"x_min":39,"x_max":413,"o":"m 363 708 q 272 665 329 692 q 183 622 215 639 q 113 585 150 606 q 58 545 75 564 q 40 510 40 526 q 85 451 40 481 q 274 350 131 422 q 353 311 324 325 q 374 326 358 308 q 399 364 389 343 q 403 386 408 385 q 320 421 383 396 q 208 468 257 446 q 128 510 158 490 q 276 582 168 538 q 403 635 385 626 q 399 656 407 638 q 380 692 392 675 q 363 708 368 710 m 403 283 q 72 282 199 268 q 64 259 65 282 q 67 214 63 236 q 76 194 71 192 q 403 203 175 214 q 409 222 407 201 q 410 263 411 243 q 403 283 408 283 z "},"≤":{"ha":450,"x_min":39,"x_max":411,"o":"m 88 708 q 89 708 89 708 q 178 665 121 692 q 268 622 235 639 q 338 585 301 606 q 392 545 375 564 q 410 510 410 526 q 366 451 411 481 q 176 350 321 422 q 99 311 126 325 q 77 326 92 308 q 52 364 63 343 q 49 386 42 385 q 131 421 68 396 q 242 468 193 446 q 324 510 292 490 q 174 582 282 538 q 47 635 65 626 q 51 656 43 638 q 72 692 60 675 q 88 708 83 710 m 47 283 q 379 282 253 268 q 386 259 385 282 q 383 214 388 236 q 374 194 379 192 q 49 203 275 214 q 41 222 43 201 q 41 263 39 243 q 47 283 43 283 z "},"≈":{"ha":490,"x_min":40,"x_max":453,"o":"m 449 657 q 447 656 449 657 q 402 586 428 608 q 349 565 376 564 q 293 576 322 565 q 234 601 264 586 q 176 628 204 617 q 122 640 149 640 q 74 621 94 639 q 40 572 50 593 q 49 447 42 533 q 98 508 71 492 q 152 517 125 525 q 208 493 179 510 q 267 460 238 476 q 324 439 296 444 q 383 453 353 433 q 439 521 414 472 q 443 564 439 526 q 449 626 447 601 q 449 657 451 650 m 449 496 q 447 493 449 496 q 402 424 428 446 q 349 403 376 403 q 293 413 322 403 q 234 439 264 424 q 176 466 204 454 q 122 477 149 478 q 74 458 94 476 q 40 410 50 431 q 49 285 42 372 q 98 346 71 329 q 152 355 125 363 q 208 331 179 347 q 267 299 238 315 q 324 277 296 283 q 383 290 353 271 q 439 358 414 310 q 443 402 439 364 q 449 464 447 440 q 449 496 451 488 z "},"Œ":{"ha":1100,"x_min":38,"x_max":1064,"o":"m 735 894 q 588 892 638 894 q 532 883 549 888 q 511 860 515 878 q 389 889 458 890 q 381 889 386 889 q 168 792 258 889 q 51 556 78 694 q 42 420 39 486 q 57 292 46 354 q 94 177 68 229 q 151 84 119 125 q 226 21 182 43 q 319 -6 271 -1 q 427 13 368 -10 q 547 83 486 35 q 579 121 564 99 q 588 29 583 68 l 586 6 l 646 3 q 872 4 721 0 q 1042 14 1024 8 q 1063 25 1061 19 q 1050 46 1064 31 q 1010 163 1010 90 q 1014 217 1010 201 q 1013 229 1018 229 q 936 213 1006 231 q 801 185 868 196 q 729 182 733 175 q 724 239 722 192 q 732 292 725 286 q 946 347 744 301 q 963 360 963 350 q 947 403 963 369 q 933 448 935 431 q 940 497 932 465 q 944 514 943 508 q 944 524 944 519 q 942 528 944 528 q 936 528 940 529 q 769 493 879 521 q 734 488 756 490 q 710 488 713 486 q 702 531 704 496 q 699 607 700 567 q 697 657 699 647 q 988 692 783 668 q 967 772 972 724 q 968 842 961 821 q 974 888 981 882 q 904 893 968 893 q 735 894 831 893 m 374 701 q 378 701 376 701 q 511 599 467 704 q 536 393 556 485 q 465 236 514 288 q 341 191 396 179 q 250 253 286 203 q 199 375 214 304 q 193 510 183 446 q 258 647 208 590 q 374 701 307 703 z "},"œ":{"ha":1100,"x_min":38,"x_max":1064,"o":"m 735 900 q 588 897 638 900 q 532 888 549 893 q 511 865 515 883 q 389 894 458 896 q 381 894 386 894 q 168 797 258 894 q 51 561 78 700 q 42 426 39 492 q 57 297 46 360 q 94 183 68 235 q 151 90 119 131 q 226 26 182 49 q 319 0 271 4 q 427 18 368 -4 q 547 89 486 40 q 579 126 564 104 q 588 35 583 74 l 586 11 l 646 8 q 872 10 721 6 q 1042 19 1024 14 q 1063 31 1061 25 q 1050 51 1064 36 q 1010 168 1010 96 q 1014 222 1010 207 q 1013 235 1018 235 q 936 218 1006 236 q 801 191 868 201 q 729 188 733 181 q 724 244 722 197 q 732 297 725 292 q 946 353 744 307 q 963 365 963 356 q 947 408 963 375 q 933 453 935 436 q 940 503 932 471 q 944 519 943 514 q 944 529 944 525 q 942 534 944 533 q 936 533 940 535 q 769 499 879 526 q 734 494 756 496 q 710 493 713 492 q 702 537 704 501 q 699 613 700 572 q 697 663 699 653 q 988 697 783 674 q 967 778 972 729 q 968 847 961 826 q 974 893 981 888 q 904 899 968 899 q 735 900 831 899 m 374 707 q 378 707 376 707 q 511 604 467 710 q 536 399 556 490 q 465 242 514 293 q 341 197 396 185 q 250 259 286 208 q 199 381 214 310 q 193 515 183 451 q 258 652 208 596 q 374 707 307 708 z "}," ":{"ha":271,"x_min":0,"x_max":0,"o":""}}}
